<svg width="95" height="37" viewBox="0 0 95 37" fill="none" xmlns="http://www.w3.org/2000/svg">
<path d="M31.6743 24.5429C31.7363 24.7421 31.8529 24.9353 31.9823 25.1109C32.3174 25.5647 32.6686 26.0087 33.0182 26.4538C33.2913 26.8015 33.6087 27.1282 33.6854 27.5635C33.7045 27.6714 33.8081 27.6979 33.9086 27.7403C34.0263 27.7899 34.1526 27.8542 34.229 27.9421C34.8098 28.6078 35.5991 29.0729 36.3488 29.5731C36.6897 29.8049 37.0567 30.0068 37.4444 30.1756C38.1981 30.4954 38.9709 30.7811 39.7411 31.0726C40.3372 31.2975 40.9377 31.5136 41.5428 31.721C42.2496 31.962 42.9557 32.2244 43.7151 32.3034C44.687 32.4046 45.6402 32.6076 46.6218 32.6367C46.7558 32.6407 46.8899 32.6776 47.0239 32.6967C47.5327 32.7682 48.0407 32.8469 48.5512 32.9071C49.0616 32.9674 49.576 33.0086 50.0884 33.0596C51.0603 33.1562 52.0239 33.2568 52.9653 33.5209C53.6356 33.7089 54.3236 33.8499 54.9878 34.0575C55.063 34.082 55.1422 34.096 55.2224 34.099C55.2485 34.0989 55.2743 34.0939 55.2979 34.0844C55.3215 34.0748 55.3424 34.0609 55.3592 34.0437C55.3813 34.0128 55.3789 33.9387 55.3515 33.9171C55.2335 33.824 55.1169 33.719 54.9738 33.6619C54.1641 33.3356 53.356 33.0095 52.5923 32.6044C51.993 32.2873 51.3523 32.0237 50.7617 31.6968C50.0764 31.3185 49.4178 30.9039 48.8139 30.4282C48.5934 30.2546 48.3602 30.0933 48.1158 29.9453C47.8018 29.7556 47.533 29.5295 47.2683 29.2923C46.6292 28.7191 45.9783 28.1603 45.1995 27.7155C44.0124 27.0374 43.0586 26.1387 42.1339 25.2158C41.3366 24.4201 40.5856 23.5883 39.6804 22.8753C39.3409 22.608 39.0396 22.2987 38.6726 22.0648C37.3157 21.1999 35.8531 20.4834 34.346 19.8322C33.5862 19.5038 32.808 19.2402 31.933 19.3017C31.8522 19.3074 31.7701 19.2947 31.6887 19.2956C31.4541 19.2976 31.2688 19.2129 31.1253 19.0577C31.0073 18.93 30.883 18.8055 30.7788 18.6697C30.4939 18.2995 30.2171 17.9244 29.9409 17.5502C29.9103 17.5114 29.8897 17.4675 29.8806 17.4213C29.8787 17.3779 29.8884 17.3347 29.9088 17.295C29.9167 17.2866 29.9271 17.28 29.9388 17.276C29.9505 17.2721 29.9633 17.2707 29.9758 17.2722C32.0536 17.75 34.1764 18.0184 36.3099 18.2286C36.8753 18.2842 37.4494 18.3251 38.0171 18.2989C39.2461 18.2412 40.4576 18.3989 41.6765 18.4572C41.7847 18.4642 41.8919 18.4803 41.9965 18.5053C42.3652 18.5869 42.7338 18.6636 43.0965 18.7591C44.0013 18.9966 44.9397 19.152 45.7682 19.5796C45.8794 19.6373 46.0276 19.643 46.1593 19.6704C46.3178 19.703 46.485 19.7148 46.6342 19.7664C47.6147 20.1104 48.6352 20.363 49.6782 20.5198C49.8347 20.5426 50.0194 20.5699 50.1287 20.655C50.3499 20.828 50.6143 20.8444 50.877 20.898C51.3781 21.0004 51.8912 21.0803 52.3704 21.2359C54.0461 21.7806 55.7087 22.3578 57.3455 22.9857C57.7397 23.1368 58.1029 23.3473 58.4803 23.5303C58.6479 23.8057 58.976 23.8763 59.2722 23.9876C59.5209 24.0816 59.7642 24.1865 60.0132 24.2799C60.2813 24.38 60.5495 24.4783 60.8511 24.4702C60.6396 24.2304 60.338 24.0905 60.0467 23.942C59.9315 23.8844 59.8095 23.8339 59.6881 23.7852C59.0547 23.5312 58.4535 23.2394 57.9143 22.8473C57.5694 22.5965 57.2235 22.3284 56.7748 22.2084C56.8036 22.2474 56.8272 22.2891 56.8452 22.3327C56.8653 22.4053 56.8411 22.4717 56.7446 22.4866C56.6909 22.4936 56.6359 22.4877 56.5858 22.4696C55.7611 22.1688 54.9375 21.866 54.1148 21.5612C54.0177 21.5199 53.9249 21.4717 53.8373 21.417C53.8175 21.4058 53.7911 21.3709 53.7964 21.3642C53.8205 21.3354 53.8601 21.2852 53.8852 21.2887C54.4734 21.372 55.0653 21.4435 55.6457 21.5568C55.9936 21.6246 56.2704 21.831 56.5322 22.038C56.5348 21.9711 56.5114 21.8901 56.5476 21.8417C56.5714 21.8149 56.6017 21.7929 56.6364 21.7772C56.6712 21.7616 56.7095 21.7527 56.7487 21.7512C57.0707 21.7612 57.3931 21.778 57.7128 21.8108C58.171 21.8578 58.6053 21.9613 58.98 22.2162C59.0106 22.2367 59.0435 22.2546 59.0782 22.2695C59.1818 22.3154 59.3014 22.3436 59.4096 22.3849C59.4046 22.3794 59.3993 22.3748 59.3942 22.369L59.4076 22.3742C59.3986 22.3567 59.3906 22.3388 59.3838 22.3206C59.3115 22.1017 59.3503 22.0271 59.5357 22.0323C59.6697 22.0351 59.8071 22.0398 59.9415 22.0527C60.5609 22.1125 61.18 22.1742 61.7988 22.2378C62.1065 22.2693 62.3555 22.4074 62.5985 22.5619C63.1659 22.9229 63.7343 23.2861 64.3804 23.537C65.1945 23.8541 66.0192 24.1488 66.8407 24.4512C67.0394 24.5244 67.2475 24.5798 67.4409 24.6617C67.4965 24.6853 67.5274 24.7709 67.5441 24.8329C67.5492 24.8514 67.4717 24.9041 67.4248 24.9125C66.9221 25.0036 66.4194 25.0967 65.912 25.172C65.7782 25.1949 65.6399 25.1889 65.5096 25.1544C65.3792 25.1198 65.2609 25.0579 65.1653 24.9742C64.9089 24.7626 64.5979 24.6187 64.2762 24.4893C63.2939 24.0943 62.316 23.6909 61.3347 23.2942C61.2405 23.2562 61.1336 23.2394 61.0331 23.2138C61.0381 23.2178 61.0438 23.221 61.0491 23.2247L61.0327 23.2198C61.2556 23.5021 61.5941 23.6442 61.9527 23.7411C62.8123 23.9738 63.5664 24.3846 64.3425 24.7588C64.3887 24.7827 64.4255 24.8178 64.4485 24.8597C64.4657 24.9018 64.4709 24.9468 64.4635 24.9909C64.4635 25.0053 64.4253 25.0258 64.4019 25.029C64.297 25.0431 64.1874 25.0719 64.0858 25.0578C63.739 25.0134 63.3958 24.9503 63.0496 24.901C62.7369 24.8566 62.4229 24.8191 62.1095 24.7793C63.0717 25.1253 64.0925 25.251 65.1197 25.3124C66.4878 25.394 67.8273 25.1682 69.1444 24.8857C69.9353 24.7165 70.7246 24.5518 71.5282 24.442C72.0095 24.3762 72.5001 24.3607 72.9771 24.2765C73.4798 24.1874 73.9717 24.0444 74.4681 23.9239C74.7556 23.8541 75.0428 23.7834 75.3297 23.7117C75.5905 23.6468 75.8465 23.5482 76.1123 23.5205C76.8496 23.4438 77.5229 23.2034 78.2112 22.9895C79.03 22.7346 79.7529 22.307 80.577 22.0646C80.9611 21.9515 81.3388 21.8229 81.7165 21.6926C81.8307 21.6531 81.8545 21.5713 81.8093 21.4634C81.6906 21.1791 81.7215 21.1174 82.0104 21.1042C82.7695 21.071 83.5205 20.9629 84.2856 20.9759C84.9361 20.9871 85.588 20.9292 86.2391 20.8989C86.7271 20.8761 87.2151 20.8222 87.7024 20.8283C88.6236 20.8398 89.5456 20.8453 90.4672 20.8995C91.3131 20.9494 92.1393 21.0327 92.958 21.212C93.2197 21.2697 93.4919 21.2913 93.7623 21.321C93.7871 21.3201 93.8113 21.314 93.8326 21.3031C93.8539 21.2922 93.8718 21.277 93.8847 21.2587C93.9011 21.2253 93.888 21.1538 93.8582 21.1362C93.7278 21.0546 93.5889 20.9836 93.4433 20.924C92.2033 20.4486 90.9297 20.0475 89.7172 19.5173C89.181 19.2823 88.6716 19.0272 88.2198 18.6812C87.7117 18.2934 87.1829 17.9316 86.5947 17.6289C86.0823 17.3649 85.5877 17.0762 85.1134 16.7639C83.9679 16.0143 82.8258 15.2592 81.5462 14.68C80.8977 14.3865 80.2583 14.0728 79.588 13.8205C78.7679 13.5118 77.9187 13.2598 77.0838 12.9793C76.6276 12.8288 76.1521 12.7254 75.6675 12.6713C75.1291 12.6116 74.587 12.5791 74.0441 12.5742C73.4208 12.5638 72.7988 12.5107 72.1757 12.4816C71.3888 12.4447 70.6006 12.409 69.8154 12.4983C67.775 12.729 65.8607 13.3206 63.9883 14.0238C63.0922 14.3606 62.2158 14.7351 61.2898 15.0119C61.0806 15.0711 60.8805 15.1516 60.6936 15.2517C60.41 15.4092 60.1037 15.4824 59.7749 15.5112C59.2079 15.5631 58.6392 15.6055 58.0758 15.679C57.4323 15.7629 56.7825 15.8399 56.1555 15.9838C54.4214 16.3819 52.67 16.7106 50.9085 16.9957C50.7212 17.026 50.5235 17.0915 50.3542 16.994C50.1377 16.8692 49.942 16.9188 49.7386 16.994C49.3575 17.1324 48.957 17.1869 48.5478 17.2099C48.3038 17.2238 48.0605 17.2445 47.8172 17.2676C46.9264 17.3489 46.0366 17.4443 45.1445 17.5118C44.0888 17.5914 43.0311 17.6493 41.9741 17.7119C41.6218 17.7327 41.2683 17.7407 40.9154 17.752C40.589 17.7635 40.3477 17.6173 40.1362 17.427C40.1229 17.4084 40.1154 17.3872 40.1143 17.3653C40.1132 17.3435 40.1185 17.3218 40.1298 17.3022C40.1968 17.2304 40.2699 17.1552 40.3604 17.1111C41.1155 16.7417 41.8772 16.3816 42.6326 16.0129C43.0013 15.8327 43.3803 15.7494 43.8056 15.8399C43.9614 15.8733 44.1297 15.8638 44.2922 15.8733C45.864 15.9656 47.4355 16.0642 49.008 16.1443C49.3601 16.158 49.7129 16.14 50.0606 16.0907C50.5429 16.0276 51.0191 15.9298 51.497 15.8425C52.67 15.6277 53.7981 15.2912 54.8937 14.8714C55.5143 14.6336 56.1189 14.3764 56.7007 14.0688C57.5325 13.6288 58.4002 13.239 59.2535 12.829C59.7753 12.5785 60.3185 12.3565 60.8172 12.076C61.8404 11.4993 62.8542 10.9106 63.8449 10.2948C64.4196 9.93727 65.0229 9.6256 65.6288 9.31451C66.3041 8.96652 66.9727 8.60901 67.647 8.25958C68.1353 8.00673 68.6135 7.73542 69.1216 7.51688C69.7517 7.24587 70.4082 7.02012 71.054 6.7765C71.2769 6.69231 71.5061 6.61994 71.7243 6.5297C71.8302 6.48617 71.8828 6.39477 71.8205 6.29675C71.737 6.16556 71.7819 6.07792 71.921 6.01189C71.9695 5.99084 72.0197 5.97282 72.0712 5.95798C72.3758 5.85909 72.6831 5.76567 72.9848 5.66015C73.1838 5.5889 73.3785 5.50903 73.5682 5.42085C73.6017 5.40557 73.6262 5.33839 73.6168 5.30264C73.6074 5.26689 73.5438 5.22163 73.5116 5.22566C73.3246 5.24931 73.1305 5.26516 72.9563 5.32254C72.3433 5.52436 71.7059 5.63766 71.0637 5.73771C70.6897 5.79537 70.3167 5.86053 69.9417 5.91358C68.5221 6.11444 67.1021 6.31337 65.6818 6.51038C65.6281 6.51788 65.5738 6.52134 65.5199 6.52682C64.2799 6.65195 63.0298 6.6851 61.7932 6.83647C61.0418 6.92844 60.287 7.00311 59.54 7.11584C58.8721 7.21646 58.2159 7.37273 57.549 7.47883C56.8016 7.59761 56.0495 7.69679 55.2968 7.78732C54.5679 7.87381 53.8655 8.05516 53.1586 8.21748C51.9964 8.48446 50.928 8.9498 49.8686 9.4284C49.1936 9.73256 48.5867 10.1281 47.9583 10.4952C47.1002 10.9931 46.3662 11.6333 45.799 12.3781C45.5309 12.7281 45.2963 13.0989 44.9498 13.4036C44.5106 13.7877 44.1464 14.2303 43.8713 14.7143C43.7996 14.84 43.7094 14.9582 43.6411 15.0854C43.5405 15.2719 43.3696 15.3884 43.1437 15.4089C42.8572 15.4348 42.6376 15.5565 42.4185 15.6972C41.7187 16.1472 40.9358 16.4756 40.1663 16.8216C40.0192 16.8879 39.8677 16.9352 39.6998 16.8723C39.5229 16.8063 39.3808 16.8723 39.2591 16.973C39.1033 17.103 38.9659 17.2503 38.8047 17.3749C38.4712 17.6326 38.0955 17.8013 37.6247 17.7696C37.2456 17.7439 36.8632 17.7514 36.4852 17.7174C35.7559 17.6516 35.026 17.5839 34.3021 17.4867C33.5517 17.3852 32.794 17.2936 32.0647 17.1142C30.9423 16.8377 29.832 16.5177 28.7385 16.166C27.5172 15.7707 26.2987 15.3737 25.0449 15.0612C24.9151 15.0267 24.7894 14.9816 24.6695 14.9265C24.6494 14.9135 24.6329 14.8968 24.6213 14.8776C24.6097 14.8584 24.6033 14.8372 24.6025 14.8155C24.6025 14.7752 24.6344 14.712 24.6695 14.7002C24.9464 14.6062 25.2322 14.5312 25.5074 14.4329C25.9675 14.2683 26.4458 14.2049 26.9398 14.2086C27.5095 14.2127 28.0809 14.2086 28.6517 14.204C28.6905 14.204 28.7291 14.1685 28.768 14.1495C28.7261 14.1224 28.6842 14.095 28.6416 14.0688C28.4831 13.9708 28.5458 13.8468 28.7006 13.8093C28.8554 13.7718 29.0146 13.7271 29.1751 13.7093C29.9383 13.6228 30.637 13.3535 31.3535 13.1413C32.4307 12.8221 33.4907 12.4614 34.5632 12.1299C34.7429 12.0785 34.9325 12.0578 35.1215 12.0688C35.2971 12.0768 35.4406 12.05 35.5739 11.9575C35.9426 11.7029 36.3753 11.5674 36.817 11.4466C36.9983 11.397 37.1803 11.3491 37.3589 11.2935C37.3887 11.2843 37.4031 11.2387 37.4259 11.2099C37.4011 11.2032 37.3753 11.1888 37.3522 11.1914C37.1122 11.2203 36.8733 11.2589 36.6323 11.2747C36.5958 11.2773 36.5073 11.1724 36.5174 11.1306C36.5432 11.0406 36.5921 10.9568 36.6605 10.8852C37.0928 10.4061 37.5955 9.98109 38.0838 9.54603C38.3472 9.31134 38.62 9.07377 38.9354 8.89559C39.4843 8.58393 39.9606 8.20364 40.4271 7.81385C40.6322 7.64259 40.8484 7.53159 41.1212 7.47652C42.2053 7.25856 43.2875 7.03454 44.372 6.8134C44.4245 6.80151 44.4792 6.79819 44.5332 6.8036C44.5835 6.81023 44.6485 6.82493 44.674 6.85607C44.6842 6.87558 44.6887 6.89694 44.6872 6.91831C44.6856 6.93967 44.6779 6.96037 44.6649 6.9786C44.5965 7.05029 44.5207 7.11649 44.4384 7.17639C43.7878 7.672 43.134 8.16415 42.4848 8.6612C42.0786 8.97084 41.6767 9.28405 41.279 9.60081C41.1785 9.67923 41.0759 9.76255 41.0109 9.86029C40.8098 10.1688 40.481 10.3216 40.1134 10.4283C39.8309 10.5099 39.5437 10.5779 39.2568 10.6508C38.8925 10.7437 38.5268 10.8331 38.1646 10.9311C38.1264 10.9415 38.1059 11.0006 38.0774 11.0372C38.1217 11.0562 38.1726 11.0986 38.2091 11.0908C39.2635 10.8645 40.3037 10.5984 41.3142 10.2524C42.2982 9.91536 43.2791 9.57255 44.2634 9.23638C44.3609 9.20322 44.491 9.15882 44.5724 9.18794C44.8492 9.28741 45.057 9.18391 45.2427 9.04379C45.6626 8.72664 46.1811 8.58249 46.6838 8.4095C47.162 8.24545 47.6527 8.1085 48.1326 7.9482C48.7655 7.73677 49.3954 7.51833 50.0221 7.29286C50.3472 7.17552 50.6605 7.03338 50.9792 6.90364C51.1998 6.8134 51.4183 6.71826 51.6428 6.6358C51.735 6.60207 51.8747 6.54642 51.9233 6.65137C51.9478 6.70413 51.8563 6.82436 51.7819 6.87942C51.187 7.32285 50.5848 7.75935 49.9819 8.19499C49.8753 8.26759 49.7641 8.33497 49.6487 8.39681C48.8779 8.83649 48.0967 9.25916 47.2549 9.59331C47.0827 9.66256 46.9149 9.73955 46.7521 9.82396C46.0762 10.1699 45.4056 10.526 44.7272 10.87C43.2741 11.6069 41.7522 12.2288 40.2206 12.8305C39.4045 13.1511 38.5564 13.4078 37.6867 13.5974C36.394 13.8802 35.0967 14.1227 33.7551 14.1374C33.5926 14.1391 33.4307 14.1685 33.2682 14.1752C32.7531 14.1959 32.2376 14.2199 31.7222 14.2282C31.0432 14.2395 30.3635 14.236 29.6846 14.2423C29.6586 14.2435 29.6332 14.2488 29.6095 14.2579C29.5847 14.2663 29.5596 14.2767 29.5348 14.2839C29.5649 14.2957 29.5944 14.3127 29.6242 14.3254C29.6521 14.3395 29.683 14.3486 29.7151 14.3522C29.9316 14.3675 30.1507 14.3779 30.3666 14.3767C31.5623 14.3701 32.7578 14.3548 33.9525 14.3519C34.6074 14.3519 35.2499 14.2758 35.8943 14.1824C37.3193 13.9754 38.7128 13.6755 40.042 13.1831C40.6898 12.9429 41.3061 12.6382 41.9593 12.4101C43.1735 11.986 44.3023 11.4261 45.4129 10.8408C46.2702 10.3891 47.15 9.9759 48.0364 9.57226C48.9228 9.16863 49.8126 8.76643 50.5834 8.19557C51.3234 7.64778 52.0815 7.11526 52.8342 6.579C53.1268 6.37055 53.4187 6.16009 53.7254 5.96778C54.2076 5.66534 54.6993 5.37386 55.1919 5.08353C55.9963 4.60839 56.7885 4.10932 57.7242 3.82677C57.7734 3.80837 57.8181 3.78216 57.8559 3.7495C57.8727 3.73653 57.8895 3.69703 57.8791 3.68838C57.8489 3.65955 57.812 3.62409 57.7695 3.6163C57.7158 3.60875 57.6608 3.61302 57.6096 3.6287C56.9635 3.80774 56.3069 3.96401 55.6749 4.17477C54.2237 4.65884 52.6998 4.90823 51.1998 5.23258C50.1206 5.46612 49.0271 5.6492 47.9439 5.87004C46.8607 6.09089 45.7856 6.33769 44.7031 6.5594C41.8209 7.14929 38.9615 7.79914 36.1507 8.60642C35.5317 8.78431 34.9134 8.9596 34.3172 9.18679C33.8708 9.35689 33.4421 9.5616 32.9917 9.72449C32.1359 10.0285 31.3512 10.4632 30.6752 11.0075C30.5556 11.1029 30.4294 11.1919 30.2972 11.2742C29.7249 11.6325 29.2108 12.0548 28.7683 12.5301C28.0152 13.3408 26.9616 13.6977 25.8583 13.9731C25.5707 14.0449 25.2885 14.0953 25.0278 14.2383C24.7044 14.4132 24.341 14.526 23.9624 14.569C23.8056 14.5877 23.6273 14.5999 23.4842 14.5549C22.9969 14.4021 22.5103 14.2752 21.9827 14.2827C21.8249 14.285 21.662 14.2337 21.5075 14.1905C20.7002 13.9647 19.8684 13.8664 19.0251 13.8156C18.6464 13.7929 18.2704 13.7372 17.892 13.7067C17.2975 13.6588 16.7026 13.6052 16.1064 13.5807C15.4553 13.5539 14.8024 13.5475 14.1502 13.5518C13.4712 13.5553 12.7876 13.5417 12.1149 13.6055C11.0355 13.7078 9.961 13.8557 8.88889 14.0068C7.97664 14.1351 7.0768 14.3141 6.21784 14.62C5.64107 14.825 5.06061 15.0211 4.48283 15.2278C3.74887 15.491 3.1101 15.886 2.5025 16.3185C2.40082 16.3961 2.31196 16.4854 2.23841 16.5837C2.1907 16.6402 2.16596 16.7086 2.16803 16.7783C2.1754 16.8334 2.24377 16.9225 2.29337 16.9254C2.40146 16.9315 2.50965 16.9147 2.6084 16.8764C3.25633 16.6344 3.90136 16.3882 4.54349 16.1377C5.55762 15.7404 6.5704 15.3492 7.66966 15.1413C8.46394 14.9911 9.25654 14.8242 10.0223 14.5794C10.5368 14.4139 11.074 14.3611 11.6213 14.3531C11.9815 14.3479 12.318 14.3917 12.6438 14.539C12.8814 14.6466 13.1381 14.7408 13.3995 14.7893C14.6479 15.0162 15.8986 15.2341 17.1531 15.4331C17.4383 15.4783 17.7426 15.4351 18.0378 15.4293C18.0516 15.4293 18.0713 15.3991 18.075 15.3812C18.0787 15.3633 18.067 15.3235 18.0566 15.3209C17.8441 15.2898 17.6303 15.2393 17.4172 15.2402C16.948 15.2425 16.5009 15.1508 16.0505 15.0638C15.3628 14.9308 14.6734 14.8043 13.9877 14.6633C13.672 14.599 13.3476 14.5425 13.0858 14.3594C13.0567 14.3389 13.0607 14.2775 13.06 14.2349C13.0607 14.2236 13.0646 14.2126 13.0713 14.2028C13.078 14.1931 13.0874 14.1849 13.0986 14.1789C13.1991 14.1486 13.302 14.112 13.4072 14.1002C14.5159 13.9757 15.6289 14.0457 16.7402 14.0573C16.7941 14.0573 16.8481 14.0691 16.902 14.0737C17.388 14.1155 17.876 14.1435 18.3592 14.202C18.8154 14.2573 19.2698 14.3317 19.7179 14.4234C19.9294 14.4667 20.1311 14.5139 20.3546 14.516C20.8238 14.52 21.2619 14.6486 21.6818 14.8204C21.7153 14.8337 21.7381 14.9 21.7317 14.9372C21.7192 14.9809 21.6883 15.0191 21.6449 15.0444C21.5985 15.0688 21.546 15.0831 21.4918 15.0862C20.79 15.152 20.0875 15.2143 19.3858 15.2803C19.1981 15.2979 19.0111 15.3215 18.8261 15.3526C18.7946 15.3578 18.7751 15.4164 18.7503 15.4504C18.7741 15.4619 18.7986 15.4844 18.8211 15.483C19.55 15.4363 20.2869 15.5118 21.0102 15.3575C21.4046 15.2739 21.8145 15.2402 22.2103 15.1638C22.7113 15.0675 23.197 15.1638 23.6497 15.2999C24.1839 15.461 24.699 15.6877 25.188 15.9359C25.5902 16.1397 26.0188 16.2781 26.4354 16.4459C26.6325 16.5252 26.8335 16.5408 27.0614 16.5324C27.7136 16.5119 28.2917 16.6869 28.6969 17.1647C28.8568 17.3532 29.0227 17.5395 29.1701 17.7341C29.5991 18.3032 30.0586 18.8536 30.5811 19.361C30.8156 19.5877 30.9028 19.8261 30.9025 20.1242C30.9056 20.5208 30.9349 20.9169 30.9899 21.3106C31.0569 21.8204 31.1729 22.3252 31.2326 22.8352C31.3019 23.4222 31.4987 23.9804 31.6743 24.5429ZM44.1679 14.9484C44.13 14.9089 44.1287 14.8072 44.1622 14.7593C44.3579 14.4802 44.5406 14.189 44.7799 13.9388C45.2631 13.4331 45.7652 12.9421 46.1281 12.3605C46.191 12.2564 46.2733 12.162 46.3718 12.0809C46.8896 11.6715 47.3232 11.1871 47.9134 10.8411C48.4064 10.5528 48.8696 10.2322 49.3763 9.9563C50.0238 9.60369 50.7145 9.33671 51.3998 9.0582C52.6288 8.55537 53.9326 8.20114 55.2744 8.00557C56.7731 7.7902 58.2487 7.46816 59.7599 7.30988C60.3517 7.24789 60.9329 7.11469 61.5234 7.03915C62.1394 6.96044 62.7597 6.90393 63.38 6.8529C63.8925 6.81081 64.4089 6.8036 64.9217 6.75776C65.3791 6.71682 65.8332 6.64503 66.2887 6.58477C67.2005 6.46502 68.1122 6.34461 69.0238 6.22351C69.4259 6.17018 69.8281 6.11424 70.1763 6.06667C70.2849 6.08311 70.3382 6.0883 70.3901 6.10012C70.4149 6.10559 70.4572 6.12433 70.4572 6.13471C70.4531 6.17767 70.4498 6.23015 70.4199 6.25955C70.3646 6.31077 70.3013 6.3552 70.2319 6.3916C69.7768 6.64618 69.3294 6.91056 68.8609 7.14698C68.5593 7.29863 68.2362 7.43702 67.9027 7.52438C66.8119 7.81216 65.7025 8.04484 64.5802 8.22123C63.6726 8.36193 62.7604 8.48936 61.8793 8.735C61.4148 8.86446 60.9473 8.9867 60.4848 9.12134C60.0475 9.24858 59.6129 9.38227 59.1807 9.52239C58.4434 9.76111 57.7082 10.0007 56.9779 10.2535C56.7527 10.3317 56.5445 10.4484 56.3351 10.5569C55.2147 11.1369 54.033 11.608 52.8188 12.0206C51.9351 12.3207 51.0449 12.6065 50.1645 12.9144C49.5861 13.1162 49.0207 13.3445 48.449 13.5605C47.5548 13.8984 46.6643 14.2447 45.7642 14.5696C45.3144 14.7322 44.8479 14.8608 44.3847 14.994C44.3211 15.013 44.2068 14.9891 44.1679 14.9484ZM44.1079 15.6657C44.0506 15.6585 43.9919 15.5914 43.9598 15.54C43.9477 15.521 43.9993 15.4536 44.0392 15.4328C44.1327 15.3864 44.23 15.346 44.3304 15.312C45.6774 14.8175 47.0179 14.3095 48.3739 13.8341C50.0814 13.2353 51.7775 12.6125 53.5112 12.0679C54.3773 11.7919 55.2108 11.4453 56.0003 11.0329C56.93 10.5509 57.9093 10.1436 58.9257 9.81589C59.6111 9.59533 60.3108 9.4085 61.0036 9.20438C61.4138 9.08329 61.821 8.95383 62.2325 8.83591C62.4889 8.76239 62.7473 8.66725 63.0117 8.64505C64.1447 8.54908 65.2712 8.40252 66.3866 8.20595C66.4137 8.20452 66.441 8.20627 66.4677 8.21114C66.4881 8.22296 66.5146 8.23305 66.5374 8.2443C66.558 8.25192 66.5747 8.26576 66.5843 8.28322C66.5894 8.30524 66.5884 8.32799 66.5813 8.3496C66.5742 8.37121 66.5612 8.39106 66.5434 8.40748C66.3543 8.5386 66.1567 8.66037 65.9515 8.7722C65.6033 8.95326 65.2421 9.11587 64.8895 9.29116C64.678 9.3961 64.4558 9.49298 64.2675 9.62301C63.1665 10.3879 61.9523 11.0118 60.7753 11.6784C59.7129 12.2804 58.5705 12.778 57.4628 13.3218C56.9209 13.5876 56.3703 13.8407 55.8367 14.119C54.5713 14.778 53.2079 15.2235 51.7749 15.5184C51.1944 15.6378 50.6072 15.7326 50.0281 15.8569C49.6849 15.9276 49.3313 15.9537 48.9791 15.9342C47.7056 15.8779 46.4321 15.8312 45.1586 15.7716C44.806 15.7534 44.4561 15.7096 44.1076 15.6655L44.1079 15.6657ZM71.1402 24.1191C71.1381 24.1554 71.0879 24.192 71.0537 24.2246C71.0346 24.2415 71.0103 24.2533 70.9837 24.2586C70.3248 24.3898 69.6699 24.5417 69.0043 24.6395C68.7096 24.6781 68.4085 24.6575 68.1246 24.5792C66.6014 24.1594 65.0939 23.7002 63.7209 22.9748C63.5161 22.8666 63.3361 22.7233 63.1511 22.5881C63.123 22.5674 63.1176 22.4959 63.1377 22.4618C63.1509 22.4433 63.169 22.4278 63.1905 22.4164C63.212 22.405 63.2363 22.3982 63.2614 22.3964C63.6123 22.4128 63.9628 22.4376 64.3134 22.4601C64.3134 22.4693 64.3134 22.4789 64.3134 22.489C64.5842 22.489 64.8556 22.4803 65.1258 22.4918C65.3138 22.4999 65.5169 22.5025 65.6834 22.5659C66.0923 22.7219 66.5213 22.749 66.9536 22.7677C67.3071 22.7781 67.6526 22.8609 67.9614 23.0094C68.6987 23.3721 69.5053 23.5681 70.3177 23.7564C70.5751 23.8161 70.8204 23.9144 71.0681 24.0037C71.1066 24.0164 71.1418 24.0799 71.1398 24.1188L71.1402 24.1191ZM74.4962 23.432C74.4517 23.4851 74.4181 23.552 74.3592 23.5874C74.3002 23.6229 74.2097 23.639 74.1309 23.6549C73.7355 23.7347 73.3403 23.8149 72.9435 23.8887C72.5181 23.9689 72.0759 23.9532 71.6596 23.8432C70.8828 23.6413 70.1016 23.4534 69.3261 23.2478C69.125 23.1942 68.937 23.099 68.7449 23.0194C68.7343 23.0125 68.726 23.0033 68.7207 22.9927C68.7154 22.9822 68.7134 22.9706 68.7148 22.9592C68.7345 22.92 68.7603 22.864 68.7979 22.8542C68.9008 22.8281 69.007 22.8128 69.1143 22.8087C69.5198 22.7911 69.9256 22.7799 70.3315 22.7649C71.2095 22.6475 72.0437 22.7626 72.8725 23.0402C73.346 23.1988 73.8662 23.2544 74.3645 23.3599C74.4121 23.37 74.4523 23.4069 74.4962 23.4317V23.432ZM78.5514 22.1831C78.5916 22.2096 78.6429 22.2407 78.6543 22.2776C78.6657 22.3145 78.6469 22.3857 78.6171 22.3978C78.225 22.5553 77.8309 22.7095 77.4327 22.8557C76.6066 23.159 75.7299 23.1728 74.8682 23.0863C74.2539 23.0232 73.6198 23.0111 73.025 22.8231C72.9503 22.8007 72.8813 22.7664 72.8215 22.7219C72.8011 22.7058 72.8142 22.6175 72.8383 22.6066C72.9318 22.5607 73.0339 22.5291 73.1399 22.5132C73.8129 22.4408 74.4872 22.3765 75.1608 22.3093C75.4856 22.2932 75.8026 22.2574 76.1327 22.3292C76.304 22.3664 76.5034 22.3064 76.6904 22.2935C77.2845 22.2525 77.8786 22.2127 78.4726 22.1738C78.4998 22.1692 78.5279 22.1723 78.5527 22.1828L78.5514 22.1831ZM81.2288 21.159C81.23 21.1766 81.23 21.1943 81.2288 21.212H81.0948V21.1544C81.1407 21.1552 81.1856 21.1552 81.2298 21.1587L81.2288 21.159ZM78.8939 21.2521C79.0518 21.2844 79.2058 21.3292 79.3541 21.3859C79.3876 21.3977 79.4033 21.4559 79.4151 21.4954C79.4184 21.507 79.3815 21.5398 79.3611 21.5427C78.9609 21.6004 78.5621 21.6716 78.159 21.7099C77.1066 21.8097 76.0637 21.9847 74.9999 21.9982C74.7573 22.0014 74.5153 22.0478 74.273 22.0752C73.0893 22.2096 71.9103 22.3782 70.7135 22.4163C70.0097 22.4385 69.3039 22.4855 68.5988 22.5097C68.0269 22.5317 67.4551 22.465 66.9107 22.3128C66.6287 22.2303 66.3268 22.2117 66.034 22.2586C65.7994 22.2946 65.543 22.2721 65.3051 22.2341C64.8233 22.1605 64.3345 22.126 63.8452 22.1312C63.7636 22.1315 63.682 22.128 63.6009 22.1205C62.5214 22.0184 61.4423 21.9132 60.3624 21.8126C59.472 21.7298 58.5812 21.6517 57.6904 21.5718C57.4474 21.5499 57.2014 21.543 56.9615 21.5067C55.5449 21.2912 54.1292 21.0718 52.7143 20.8485C52.6344 20.8386 52.5568 20.8181 52.4844 20.7876C52.4508 20.7712 52.4347 20.7155 52.4223 20.6749C52.4227 20.6639 52.4263 20.6532 52.4327 20.6437C52.439 20.6342 52.448 20.6262 52.4589 20.6204C52.528 20.5864 52.6017 20.5598 52.6784 20.5414C53.7674 20.3417 54.8569 20.144 55.947 19.9483C56.5037 19.848 57.0587 19.7387 57.619 19.6557C57.9649 19.6047 58.3188 19.5908 58.6697 19.5692C59.0759 19.5433 59.4877 19.5525 59.8886 19.4994C60.536 19.4129 61.1862 19.3928 61.8381 19.3778C61.9738 19.3746 62.1135 19.3902 62.2449 19.3683C63.0268 19.2379 63.8157 19.2965 64.5021 19.2936C65.6372 19.2581 66.6614 19.3544 67.6839 19.4781C68.4902 19.5758 69.3026 19.6424 70.1032 19.7664C71.7595 20.0236 73.4104 20.3061 75.0633 20.5852C76.3418 20.8012 77.618 21.0261 78.8949 21.2521H78.8939ZM87.6722 19.007C88.0596 19.0226 88.3981 19.1148 88.7188 19.3273C89.0141 19.5228 89.3724 19.652 89.7118 19.7941C90.1713 19.9861 90.6405 20.1614 91.1023 20.3497C91.1295 20.3606 91.1328 20.4252 91.1358 20.465C91.1358 20.4768 91.094 20.5039 91.0752 20.5013C90.7826 20.4618 90.483 20.4419 90.2001 20.3719C89.1089 20.102 88.0217 19.8195 86.9366 19.5326C86.6809 19.4651 86.4362 19.3651 86.1912 19.2714C86.1577 19.2587 86.1329 19.1921 86.1389 19.1543C86.145 19.1166 86.1889 19.0569 86.2244 19.0517C86.4892 19.0148 86.7559 18.9891 86.9617 18.9652C87.2412 18.9828 87.4567 18.9998 87.6722 19.007ZM84.8905 17.3685C84.9706 17.3772 85.0548 17.4227 85.1251 17.4097C85.6654 17.3132 86.0615 17.5649 86.4593 17.8091C86.7666 17.9979 87.0679 18.1942 87.3665 18.3932C87.4001 18.4148 87.4141 18.4797 87.4044 18.518C87.3947 18.5564 87.3464 18.6097 87.3092 18.6132C86.5827 18.6826 85.8561 18.751 85.1282 18.8058C84.9706 18.8176 84.8027 18.7905 84.6482 18.7542C83.5758 18.5019 82.5576 18.1161 81.5261 17.7655C81.4852 17.7517 81.4292 17.679 81.4403 17.6614C81.477 17.6045 81.5279 17.5553 81.5894 17.5173C81.6361 17.493 81.6891 17.4792 81.7436 17.4772C82.4688 17.4086 83.1941 17.3417 83.9431 17.2725C84.2498 17.3025 84.5712 17.3336 84.8926 17.3685H84.8905ZM79.7331 14.1348C80.1041 14.2775 80.463 14.4436 80.8257 14.6022C80.8741 14.6236 80.9154 14.6552 80.9456 14.6941C80.9751 14.7322 80.9896 14.7774 80.9869 14.823C80.9815 14.8614 80.9443 14.9222 80.9101 14.928C80.5388 14.9934 80.1651 15.0493 79.7928 15.1099C79.6071 15.1387 79.4194 15.1647 79.2388 15.2102C79.0742 15.2517 78.9948 15.3685 78.9519 15.5043L78.9646 15.5078L78.9455 15.5213C79.5066 15.4449 80.0568 15.3157 80.6316 15.3042C80.8762 15.2976 81.1177 15.2552 81.3458 15.1788C81.6598 15.0741 81.9249 15.1292 82.1897 15.2716C82.5804 15.4818 82.9786 15.6819 83.3603 15.9036C83.7625 16.1383 84.1546 16.39 84.544 16.6423C84.6258 16.6953 84.6814 16.7801 84.7431 16.8542C84.7803 16.8986 84.7143 17.0142 84.6509 17.0182C84.5169 17.0269 84.3828 17.0361 84.2488 17.0367C83.0805 17.0436 81.9195 17.1033 80.7925 17.3976C80.6051 17.4467 80.4262 17.4642 80.2348 17.4213C79.1597 17.1803 78.0879 16.9312 77.0577 16.565C76.984 16.5388 76.8988 16.5073 76.8566 16.4549C76.8367 16.4276 76.8237 16.3971 76.8186 16.3652C76.8136 16.3333 76.8164 16.3009 76.8271 16.2701C76.8533 16.2124 76.9277 16.1619 76.993 16.1242C77.3117 15.9414 77.6633 15.824 78.0353 15.7459C78.3439 15.6813 78.6456 15.5914 78.9502 15.5118C78.9502 15.5092 78.9522 15.5069 78.9532 15.5043C78.8279 15.474 78.6989 15.4149 78.5782 15.4256C77.7883 15.4956 77.0198 15.6349 76.3566 16.0437C76.1257 16.1862 75.8874 16.2657 75.5951 16.2029C74.6742 16.0039 73.7268 15.8996 72.8232 15.6386C72.673 15.5918 72.5319 15.5257 72.4046 15.4426C72.3346 15.3988 72.5427 15.218 72.789 15.1393C73.9845 14.757 75.1739 14.3608 76.4511 14.2129C76.7701 14.176 77.0778 14.0647 77.3895 13.9883C78.5179 13.7121 78.6436 13.7162 79.7331 14.1348ZM76.3995 13.047C76.7149 13.1121 77.0235 13.1997 77.3221 13.3088C77.4977 13.376 77.8389 13.3569 77.7833 13.606C77.7457 13.775 77.4619 13.7156 77.2806 13.7274C77.2534 13.7274 77.2263 13.7301 77.1998 13.7352C76.0362 14.0443 74.8173 14.1677 73.6691 14.539C72.9854 14.7604 72.2763 14.9207 71.6298 15.2266C71.3617 15.3541 71.0691 15.3645 70.7611 15.3189C69.9605 15.2007 69.1561 15.0978 68.3518 14.9995C68.0576 14.9634 67.7573 14.9637 67.4613 14.9346C67.302 14.9155 67.145 14.8842 66.9921 14.8412C66.966 14.8343 66.955 14.7677 66.9489 14.7258C66.9508 14.7146 66.9557 14.7038 66.9632 14.6944C66.9708 14.6851 66.9808 14.6773 66.9925 14.6719C67.6701 14.3836 68.3448 14.0869 69.0298 13.8107C69.3478 13.6824 69.6776 13.5628 70.0168 13.489C71.0141 13.2725 72.0155 13.0683 73.0156 12.861C73.4037 12.7806 73.8233 12.8132 74.2285 12.7944C74.9614 12.8026 75.6904 12.8875 76.3995 13.0473V13.047ZM62.0864 15.1779C62.075 15.1701 62.0636 15.1603 62.0529 15.1537C62.0606 15.1442 62.067 15.1321 62.074 15.1214C62.0795 15.1114 62.0884 15.1031 62.0995 15.0975C62.5191 14.9343 62.9547 14.7974 63.3576 14.6074C64.5058 14.0673 65.7421 13.7159 66.9643 13.3359C68.1433 12.9692 69.3753 12.8028 70.6194 12.7045C70.7501 12.6941 70.8858 12.7252 71.0185 12.7411C71.041 12.7437 71.0795 12.7699 71.0771 12.7818C71.0694 12.8239 71.0621 12.8815 71.0285 12.9014C70.9603 12.9378 70.8857 12.9648 70.8077 12.9813C70.2886 13.1127 69.7718 13.252 69.2483 13.3691C68.5016 13.5363 67.8571 13.8857 67.1963 14.2052C66.9626 14.3234 66.747 14.4662 66.5545 14.6304C66.3392 14.8112 66.0531 14.9161 65.7525 14.9245C65.4009 14.9406 65.0487 14.951 64.7296 14.9628C63.9541 14.8945 63.2426 15.0718 62.5194 15.1595C62.3853 15.1756 62.2513 15.1846 62.1192 15.1918C62.1066 15.1907 62.0948 15.1858 62.0861 15.1779H62.0864ZM61.3826 15.2932C61.4037 15.2811 61.4248 15.2601 61.4459 15.2598C61.4671 15.2595 61.4882 15.2806 61.5093 15.2924C61.4878 15.3045 61.4667 15.3261 61.4453 15.3264C61.4238 15.3267 61.402 15.3056 61.3813 15.2935L61.3826 15.2932ZM63.8351 15.6709C63.679 15.6493 63.5298 15.5891 63.379 15.5424C63.3677 15.5367 63.3582 15.5287 63.3514 15.5191C63.3446 15.5095 63.3407 15.4985 63.3401 15.4873C63.3472 15.4469 63.3552 15.3852 63.3857 15.372C63.7105 15.2356 64.0614 15.2111 64.4159 15.2099C64.9046 15.2085 65.3929 15.2099 65.8815 15.2099C65.8815 15.205 65.8815 15.1998 65.8815 15.1949C66.0444 15.1949 66.2083 15.2053 66.3698 15.1932C67.2988 15.1246 68.2074 15.2829 69.1223 15.3694C69.4454 15.3999 69.7882 15.3953 70.0841 15.4919C70.7296 15.7024 71.4119 15.6854 72.0675 15.8013C73.2331 16.0071 74.4104 16.1885 75.5365 16.5396C75.637 16.574 75.7435 16.5941 75.8515 16.599C76.2966 16.6048 76.7014 16.7374 77.1056 16.8755C77.7866 17.1085 78.4743 17.3204 79.1885 17.4726C79.4975 17.5386 79.8641 17.543 80.084 17.7727C80.3521 18.0524 80.6909 17.8122 80.9952 17.9169C81.9762 18.2557 82.9859 18.5322 83.9739 18.8574C84.2122 18.9358 84.3919 19.1457 84.6298 19.2273C84.8473 19.3019 85.1412 19.2273 85.3433 19.3175C86.3424 19.7589 87.4255 19.9806 88.4846 20.2661C88.5355 20.2799 88.5747 20.3606 88.5918 20.4166C88.5982 20.4376 88.5298 20.4961 88.4876 20.5031C88.355 20.526 88.2205 20.5394 88.0854 20.5431C87.1906 20.5653 86.2968 20.5881 85.4067 20.6928C85.0045 20.74 84.5946 20.7305 84.1878 20.7403C83.3747 20.7594 82.561 20.7942 81.7483 20.7847C80.9356 20.7752 80.1272 20.7447 79.3336 20.54C78.3476 20.286 77.3342 20.1109 76.3509 19.8494C74.5348 19.3694 72.725 18.8905 71.0798 18.0273C70.0627 17.4931 68.9846 17.0433 67.9228 16.5745C67.6122 16.4376 67.269 16.3439 66.9298 16.268C65.907 16.0359 64.8801 15.8171 63.8338 15.6715L63.8351 15.6709ZM49.073 17.6603C49.8773 17.545 50.6816 17.4343 51.4806 17.3068C51.9867 17.2264 52.5004 17.1549 52.9871 17.0171C53.9978 16.7308 55.0348 16.5659 56.0821 16.4355C57.1827 16.2986 58.2799 16.1472 59.3664 15.9428C60.0032 15.8223 60.6577 15.8105 61.3102 15.8459C62.1215 15.8903 62.9323 15.9402 63.7426 15.9956C63.9318 16.0123 64.1194 16.0397 64.3043 16.0777C64.8878 16.185 65.4673 16.3101 66.0538 16.4035C66.782 16.5189 67.464 16.7357 68.1196 17.0269C68.9142 17.3803 69.7158 17.7223 70.5111 18.0743C70.6304 18.1271 70.7313 18.2101 70.8436 18.2761C70.933 18.328 71.0202 18.3966 71.12 18.4203C72.0966 18.644 72.9335 19.1529 73.8903 19.4158C74.2516 19.515 74.6045 19.6381 74.9681 19.7304C76.2949 20.0671 77.6247 20.3952 78.9529 20.7279C79.0829 20.7605 79.21 20.8023 79.3366 20.8433C79.3575 20.857 79.3719 20.8768 79.3772 20.8989C79.3413 20.9277 79.3008 20.9681 79.2602 20.9695C79.1522 20.9738 79.0439 20.9668 78.9378 20.9488C77.7695 20.7377 76.6053 20.51 75.434 20.3145C74.023 20.0778 72.6255 19.7837 71.1995 19.6119C70.4213 19.5182 69.6528 19.3662 68.8776 19.2512C68.6112 19.2117 68.3384 19.2056 68.0686 19.1823C67.6913 19.1494 67.3146 19.1108 66.9372 19.0808C66.532 19.0485 66.1268 19.0119 65.7206 18.9963C64.064 18.9332 62.4081 18.9946 60.7556 19.0693C59.4562 19.1269 58.1566 19.2091 56.866 19.3755C56.1692 19.4654 55.4621 19.494 54.7616 19.5655C54.4114 19.6001 54.0642 19.6552 53.7227 19.7304C53.3835 19.8062 53.038 19.8907 52.7287 20.0271C52.3897 20.1758 52.0149 20.2541 51.6344 20.2554C51.3358 20.26 51.0362 20.2554 50.7393 20.2776C50.3587 20.3076 49.9754 20.2577 49.6223 20.132C48.5921 19.7641 47.5079 19.5378 46.4532 19.2345C45.6824 19.0125 44.9404 18.7132 44.1351 18.5789C43.8157 18.5255 43.4983 18.4609 43.1836 18.3894C43.0639 18.3623 42.9125 18.3606 42.8639 18.2225C42.9633 18.1903 43.0647 18.1626 43.1675 18.1395C43.6987 18.0414 44.2397 17.9876 44.7829 17.9789C45.053 17.9754 45.3224 17.9356 45.5926 17.9169C46.0249 17.8866 46.4576 17.8592 46.7914 17.8379C47.6302 17.9019 48.3491 17.765 49.0716 17.6623L49.073 17.6603ZM50.2617 5.6737C50.4279 5.59671 50.6047 5.53801 50.7879 5.49898C51.6814 5.31187 52.5779 5.13398 53.4737 4.95552C53.5782 4.93784 53.6842 4.92714 53.7907 4.92351C53.8088 4.92351 53.838 4.94687 53.846 4.96474C53.8541 4.98262 53.8561 5.0224 53.8423 5.03105C53.6272 5.17031 53.4201 5.32254 53.1891 5.44017C52.5373 5.77173 51.8761 6.09003 51.2172 6.41149C50.4406 6.7916 49.6258 7.11089 48.7827 7.36552C48.453 7.46499 48.1497 7.62788 47.8232 7.73744C47.4211 7.87208 47.0109 7.98366 46.601 8.09812C46.5908 8.10073 46.58 8.10073 46.5698 8.09812C46.5319 8.08405 46.4949 8.06827 46.4589 8.05084C46.4589 8.03931 46.4539 8.02633 46.4515 8.01422C46.4484 8.00351 46.4492 7.99222 46.4539 7.98193C46.4879 7.92014 46.5305 7.86207 46.5806 7.80894C46.939 7.45853 47.3679 7.16652 47.8467 6.94689C48.1336 6.81744 48.4379 6.69606 48.6785 6.51615C49.1554 6.15951 49.7141 5.92799 50.2604 5.67572L50.2617 5.6737ZM45.8134 6.47636C46.6322 6.32125 47.4502 6.1621 48.2686 6.00526C48.2944 6.0028 48.3203 6.0028 48.3461 6.00526C48.3913 6.03063 48.4543 6.04678 48.4691 6.07936C48.4838 6.11194 48.4744 6.18459 48.4439 6.20593C48.1292 6.42447 47.8256 6.66002 47.4854 6.84512C46.7481 7.24673 46.1114 7.74638 45.5004 8.27832C45.3328 8.42564 45.1462 8.58076 44.9327 8.66466C43.9986 9.03139 43.0871 9.4431 42.1122 9.73141C41.963 9.77524 41.8018 9.78907 41.6453 9.81329C41.6296 9.8156 41.5991 9.7885 41.5903 9.76976C41.5851 9.75894 41.5826 9.7473 41.5829 9.73559C41.5832 9.72387 41.5863 9.71234 41.592 9.70172C41.6366 9.64405 41.6761 9.57342 41.7405 9.54199C42.1232 9.35516 42.4108 9.07118 42.7362 8.82842C43.1454 8.52425 43.574 8.23651 43.9638 7.91591C44.4524 7.51544 45.0027 7.16831 45.426 6.71134C45.5306 6.59544 45.6428 6.50866 45.8134 6.47636ZM35.4727 9.0386C35.6704 8.96222 35.8727 8.89486 36.0787 8.83678C37.0798 8.54847 38.082 8.26275 39.0852 7.97962C39.1857 7.95079 39.2946 7.95079 39.4163 7.93407C39.4548 8.00586 39.5148 8.06554 39.5091 8.12032C39.4967 8.18912 39.4569 8.25209 39.3965 8.2985C39.2192 8.44216 39.0311 8.57565 38.8335 8.6981C38.3635 8.9758 37.9325 9.29932 37.5489 9.66222C37.0566 10.1267 36.5686 10.5949 36.0934 11.0721C35.7713 11.3953 35.4168 11.6504 34.9429 11.8165C33.9123 12.1777 32.8533 12.4612 31.7969 12.7538C31.7299 12.7722 31.6381 12.7472 31.5684 12.7212C31.5349 12.7091 31.5228 12.6477 31.5131 12.6059C31.5091 12.5886 31.5308 12.5609 31.5496 12.5459C32.2061 12.0233 32.8241 11.4661 33.4002 10.8775C33.7461 10.522 34.162 10.2172 34.5457 9.88883C34.7927 9.6775 35.096 9.51114 35.2241 9.20553C35.2542 9.13288 35.3779 9.07608 35.4727 9.0386ZM28.2227 13.6516C28.1865 13.6294 28.1724 13.5804 28.1345 13.5216C28.1784 13.4532 28.2136 13.3616 28.283 13.2961C28.8125 12.7944 29.2998 12.249 29.8944 11.8116C30.7992 11.1464 31.7165 10.4804 32.8275 10.0621C33.2498 9.90325 33.663 9.72593 34.0832 9.56246C34.1078 9.55586 34.1338 9.55429 34.1592 9.5579C34.1846 9.5615 34.2086 9.57018 34.2294 9.58322C34.2558 9.60398 34.2666 9.67865 34.2448 9.70085C33.913 10.0405 33.5882 10.3862 33.235 10.7085C32.7504 11.1505 32.2413 11.5734 31.7453 12.0059C31.5355 12.189 31.3281 12.3729 31.2041 12.6148C31.0891 12.8386 30.8763 12.9937 30.6286 13.0928C29.9108 13.3812 29.139 13.5253 28.3748 13.6865C28.3207 13.692 28.2662 13.6793 28.2227 13.651V13.6516ZM37.0801 29.7394C36.6534 29.4929 36.2332 29.2363 35.8266 28.9659C35.5056 28.7523 35.2086 28.5124 34.901 28.2837C34.5933 28.0551 34.3534 27.7688 34.1419 27.4684C34.03 27.308 33.9645 27.1269 33.9509 26.9402C33.8959 26.3128 33.8406 25.6855 33.7716 25.0593C33.7206 24.598 33.8674 24.1834 34.1117 23.7846C34.1975 23.6448 34.3701 23.6206 34.5193 23.727C34.6039 23.7851 34.6843 23.8477 34.7599 23.9144C35.2234 24.3396 35.6949 24.7548 36.2422 25.1054C36.581 25.3228 36.7731 25.6258 36.7489 26.0113C36.7345 26.2436 36.7463 26.4775 36.7463 26.7104H36.7711C36.7711 26.9667 36.7664 27.223 36.7711 27.4794C36.7794 27.8343 36.8927 28.1699 37.0613 28.4899C37.2838 28.9128 37.5211 29.3303 37.7466 29.7521C37.7555 29.7727 37.7589 29.7947 37.7566 29.8166C37.7543 29.8384 37.7463 29.8595 37.7332 29.8784C37.7068 29.909 37.6327 29.9392 37.5965 29.928C37.4209 29.8741 37.2339 29.8277 37.0801 29.7391V29.7394ZM51.0017 32.5992C51.0369 32.6128 51.051 32.667 51.0748 32.703C51.0319 32.7223 50.9886 32.7581 50.9457 32.7575C50.8117 32.7575 50.7198 32.6857 50.7403 32.6133C50.7554 32.5963 50.7738 32.564 50.7859 32.5652C50.8594 32.5664 50.9323 32.5777 51.0017 32.5986V32.5992ZM31.8177 19.8702C31.742 19.7261 31.8539 19.5969 32.0483 19.5819C32.5103 19.5422 32.9767 19.5987 33.4079 19.7468C33.8859 19.9126 34.3648 20.0838 34.8155 20.2946C35.9362 20.8193 37.0422 21.3663 38.0858 22.0017C38.8231 22.45 39.4498 23.0001 40.0789 23.5479C40.3993 23.8326 40.6942 24.1376 40.9613 24.4604C41.5981 25.2147 42.2653 25.9542 43.0428 26.6084C43.4115 26.9177 43.8137 27.1948 44.2054 27.4843C44.3288 27.5756 44.4662 27.6535 44.5851 27.7489C45.1814 28.2261 45.7695 28.7107 46.3691 29.185C46.59 29.3573 46.8217 29.5191 47.0632 29.6697C47.764 30.1113 48.4353 30.5865 49.074 31.0931C49.4306 31.3768 49.8478 31.6037 50.2362 31.858C50.3 31.9006 50.3594 31.9479 50.4139 31.9992C50.4205 32.0094 50.4244 32.0209 50.4251 32.0326C50.4258 32.0443 50.4233 32.0559 50.4179 32.0667C50.4085 32.0851 50.3736 32.1108 50.3576 32.1073C50.123 32.0572 49.8807 32.0188 49.6538 31.9465C48.9651 31.7259 48.272 31.5399 47.5334 31.4682C47.1647 31.4321 46.8091 31.2808 46.4468 31.1847C46.4328 31.181 46.3942 31.2072 46.3899 31.2242C46.3884 31.2356 46.3902 31.2471 46.3951 31.2576C46.4001 31.2682 46.4081 31.2775 46.4184 31.2848C46.7397 31.4085 47.0635 31.5275 47.3856 31.6501C47.5595 31.7161 47.7328 31.7833 47.9027 31.8565C47.9741 31.8871 48.0756 31.924 48.0944 31.9764C48.1875 32.2359 48.456 32.2988 48.6913 32.4046C48.7295 32.4219 48.7727 32.5069 48.7623 32.5156C48.712 32.558 48.6376 32.6197 48.584 32.6119C47.969 32.5234 47.3564 32.4349 46.8004 32.1604C46.472 31.9981 46.1016 31.8989 45.7722 31.7377C45.3486 31.5304 44.9471 31.29 44.5365 31.0634C44.4729 31.0282 44.431 31.0374 44.4213 31.0977C44.4216 31.1093 44.4247 31.1207 44.4305 31.1312C44.4363 31.1416 44.4445 31.151 44.4548 31.1585C44.8633 31.4661 45.2819 31.7608 45.7595 31.9894C45.8077 32.0125 45.8225 32.1047 45.8265 32.1662C45.8265 32.1832 45.7394 32.2083 45.6901 32.2238C45.6648 32.2326 45.6374 32.2357 45.6103 32.2328C44.8331 32.1295 44.055 32.0309 43.2794 31.9182C43.0046 31.8781 42.7767 31.7475 42.5961 31.5613C42.2841 31.2378 41.9748 30.9129 41.6621 30.59C41.595 30.5216 41.521 30.4591 41.4496 30.3942C41.4 30.4983 41.3785 30.6035 41.4549 30.707C41.528 30.8053 41.6108 30.8984 41.6828 30.9973C41.777 31.1268 41.9959 31.2493 41.8337 31.4163C41.713 31.5405 41.5257 31.4364 41.3795 31.3874C40.6687 31.1568 39.9606 30.9181 39.2521 30.6805C38.9742 30.5869 38.7303 30.4315 38.5453 30.2301C38.1817 29.8493 37.8053 29.4825 37.6495 28.993C37.6356 28.9474 37.613 28.9041 37.5824 28.865C37.015 28.167 37.0516 27.3658 37.0623 26.5726C37.0667 26.2399 37.0831 26.2402 37.5516 26.2488C37.5757 26.2488 37.6186 26.2425 37.6216 26.2321C37.6334 26.1927 37.6373 26.1518 37.633 26.1113C37.6307 26.0911 37.6059 26.0715 37.5878 26.0536C37.311 25.797 37.0415 25.5347 36.755 25.2862C36.2006 24.8058 35.6309 24.3385 35.0793 23.8553C34.8667 23.6746 34.6763 23.4756 34.5112 23.2613C33.9981 22.5694 33.3738 21.9536 32.7769 21.3201C32.363 20.8793 32.0878 20.3794 31.8177 19.8702ZM31.2185 20.6461C31.2359 20.574 31.2326 20.4947 31.2745 20.4425C31.3117 20.3964 31.4132 20.3445 31.4618 20.3583C31.5855 20.3935 31.7299 20.4411 31.805 20.5247C32.3801 21.1711 32.9294 21.8345 33.5095 22.4771C33.8446 22.8491 33.9053 23.2368 33.6948 23.6549C33.4498 24.1416 33.4267 24.645 33.4656 25.1625C33.4914 25.5084 33.4803 25.8582 33.4709 26.2059C33.4709 26.2347 33.3547 26.2635 33.2893 26.2849C33.2722 26.2903 33.237 26.2705 33.2193 26.256C32.5664 25.6771 32.0798 25.0094 31.8452 24.2266C31.738 23.8691 31.6022 23.5107 31.6133 23.131C31.6115 23.0144 31.5873 22.8987 31.5419 22.7888C31.2801 22.0888 31.3452 21.3562 31.2185 20.6461Z" fill="#999999"/>
<path d="M61.9795 24.7519C61.6578 24.5432 61.2757 24.5126 60.8943 24.489C61.212 24.7112 61.5897 24.7502 61.9795 24.7519Z" fill="#999999"/>
<path d="M40.8417 28.965C40.7907 28.8439 40.8577 28.7546 40.9871 28.6767C41.1272 28.5925 41.1336 28.5153 41.0394 28.4749C40.7582 28.3581 40.4727 28.248 40.1891 28.1356C40.4432 28.8852 40.9425 29.5414 41.2636 30.2653C41.284 30.3115 41.3749 30.3345 41.4426 30.3651C41.4402 30.0361 41.2683 29.7544 41.1041 29.4696C41.0057 29.3057 40.9181 29.1373 40.8417 28.965Z" fill="#999999"/>
<path d="M40.164 28.1273L40.1889 28.1371C40.1862 28.1293 40.1825 28.1215 40.1801 28.1136L40.164 28.1273Z" fill="#999999"/>
<path d="M41.4422 30.3665C41.4422 30.3738 41.4446 30.3807 41.4446 30.3879L41.4614 30.3749C41.4567 30.372 41.4486 30.3694 41.4422 30.3665Z" fill="#999999"/>
<path d="M42.9735 29.8781C43.007 29.9009 43.0663 29.8945 43.1139 29.9018C43.1082 29.8401 43.1303 29.7576 43.0918 29.7198C42.7412 29.3868 42.3655 29.0815 41.8367 28.9702C41.9255 29.0726 42.0042 29.1853 42.1122 29.2686C42.39 29.482 42.6826 29.6795 42.9735 29.8781Z" fill="#999999"/>
<path d="M41.8193 28.9506L41.8031 28.9633C41.8149 28.9657 41.8253 28.9691 41.8368 28.9714C41.8307 28.9645 41.8253 28.9573 41.8193 28.9503V28.9506Z" fill="#999999"/>
<path d="M44.808 30.5323C45.0312 30.6147 45.2557 30.694 45.4799 30.7742C45.2172 30.4827 44.8197 30.3769 44.4514 30.2307C44.5234 30.3654 44.6502 30.4727 44.808 30.5323Z" fill="#999999"/>
<path d="M45.5233 30.7918L45.4786 30.7756C45.488 30.7861 45.4985 30.7947 45.5075 30.8046L45.5233 30.7918Z" fill="#999999"/>
<path d="M44.4502 30.232C44.4452 30.2233 44.4391 30.2158 44.4344 30.2071L44.4182 30.2195L44.4502 30.232Z" fill="#999999"/>
<path d="M38.5882 26.9284C38.7045 27.0466 38.8308 27.1576 38.9438 27.2616C38.9967 27.2481 39.0269 27.2481 39.0393 27.2354C39.0458 27.227 39.05 27.2175 39.0518 27.2076C39.0536 27.1976 39.0529 27.1874 39.0497 27.1777C38.9826 27.0212 38.8322 26.9301 38.6766 26.8453C38.6534 26.8352 38.629 26.8271 38.6039 26.8211C38.5979 26.8574 38.5697 26.9099 38.5882 26.9284Z" fill="#999999"/>
<path d="M43.9068 30.1024C44.06 30.1474 44.2225 30.1693 44.382 30.1979C44.244 30.116 44.1092 30.0292 43.9638 29.9591C43.8764 29.9182 43.7784 29.8969 43.6789 29.8972C43.5968 29.898 43.7171 30.0471 43.9068 30.1024Z" fill="#999999"/>
<path d="M44.4343 30.2071L44.3824 30.1981L44.4182 30.2197L44.4343 30.2071Z" fill="#999999"/>
<path d="M39.8245 27.8775C39.8275 27.9138 39.8158 27.9735 39.8355 27.9824C39.9297 28.0254 40.0289 28.0594 40.1278 28.0946C40.0517 28.026 39.9763 27.9565 39.8975 27.8902C39.8815 27.8778 39.8479 27.8815 39.8245 27.8775Z" fill="#999999"/>
<path d="M40.1278 28.0949L40.1643 28.1272L40.1801 28.1137L40.1278 28.0949Z" fill="#999999"/>
<path d="M45.7575 30.9757C45.7766 30.9786 45.7994 30.9648 45.8201 30.9584C45.794 30.9244 45.7762 30.8748 45.7397 30.8601C45.6773 30.8386 45.6125 30.8229 45.5463 30.8131C45.5932 30.8569 45.6398 30.9013 45.6888 30.9431C45.7075 30.9595 45.7314 30.9708 45.7575 30.9757Z" fill="#999999"/>
<path d="M45.5454 30.8132L45.5222 30.7917L45.5061 30.8054C45.5202 30.8082 45.5333 30.8106 45.5454 30.8132Z" fill="#999999"/>
<path d="M41.6165 28.8967C41.6202 28.9102 41.654 28.9221 41.6765 28.927C41.71 28.9342 41.7435 28.9385 41.777 28.9434L41.6932 28.8823C41.6329 28.8393 41.6031 28.8454 41.6165 28.8967Z" fill="#999999"/>
<path d="M41.776 28.9434L41.8032 28.9633L41.8194 28.9506L41.776 28.9434Z" fill="#999999"/>
<path d="M41.776 28.9434C41.7425 28.9385 41.709 28.9344 41.6755 28.9269C41.709 28.9344 41.7428 28.9385 41.776 28.9434Z" fill="#999999"/>
<path d="M41.8193 28.9506L41.8031 28.9634L41.8193 28.9506Z" fill="#999999"/>
<path d="M59.405 22.3843H59.4016C59.8098 22.8528 60.4174 23.0359 61.0247 23.2204C61.0223 23.2175 61.019 23.2155 61.0166 23.2124L61.025 23.2144C60.5454 22.8453 59.9894 22.5853 59.3993 22.3745L59.4043 22.3863L59.405 22.3843Z" fill="#999999"/>
<path d="M59.3996 22.3731L59.3862 22.3679L59.4047 22.3846L59.3996 22.3731Z" fill="#999999"/>
<path d="M61.0412 23.2236C61.0361 23.2195 61.0304 23.2164 61.025 23.2126L61.0166 23.2106L61.0412 23.2236Z" fill="#999999"/>
<path d="M61.0247 23.2184L61.0412 23.2233L61.0166 23.2103C61.019 23.2135 61.0223 23.2155 61.0247 23.2184Z" fill="#999999"/>
<path d="M59.3865 22.3672C59.3912 22.373 59.397 22.3774 59.402 22.3832H59.4054L59.3865 22.3672Z" fill="#999999"/>
<path d="M59.405 22.3843H59.4047L59.3862 22.3672L59.4047 22.3843H59.405Z" fill="#999999"/>
</svg>
