<svg width="270" height="162" viewBox="0 0 270 162" fill="none" xmlns="http://www.w3.org/2000/svg">
<g clip-path="url(#clip0)">
<path d="M97.2731 107.793C97.5543 108.365 97.9742 108.89 98.4167 109.356C99.5624 110.559 100.744 111.724 101.922 112.893C102.843 113.806 103.866 114.633 104.327 115.913C104.442 116.23 104.728 116.257 105.015 116.333C105.351 116.423 105.719 116.553 105.971 116.78C107.884 118.498 110.22 119.501 112.474 120.631C113.502 121.158 114.579 121.58 115.691 121.892C117.847 122.473 120.032 122.94 122.214 123.426C123.902 123.8 125.597 124.146 127.298 124.462C129.285 124.828 131.282 125.259 133.309 125.107C135.902 124.912 138.508 125.035 141.083 124.617C141.435 124.56 141.806 124.603 142.167 124.591C143.536 124.546 144.907 124.522 146.273 124.441C147.639 124.361 149.005 124.22 150.371 124.11C152.961 123.902 155.532 123.71 158.144 124.024C160.004 124.248 161.881 124.321 163.737 124.607C163.947 124.643 164.162 124.645 164.373 124.612C164.441 124.598 164.505 124.57 164.561 124.529C164.617 124.488 164.663 124.435 164.696 124.374C164.735 124.269 164.685 124.045 164.6 123.994C164.237 123.773 163.87 123.515 163.463 123.415C161.157 122.844 158.855 122.272 156.622 121.438C154.87 120.786 153.042 120.318 151.307 119.631C149.294 118.838 147.329 117.921 145.47 116.791C144.791 116.378 144.086 116.009 143.361 115.687C142.428 115.274 141.592 114.727 140.76 114.144C138.75 112.736 136.719 111.378 134.422 110.432C130.922 108.988 127.897 106.756 124.933 104.435C122.378 102.434 119.921 100.3 117.134 98.6057C116.089 97.9707 115.118 97.1883 114.022 96.6688C109.966 94.7468 105.725 93.3295 101.407 92.1327C99.2299 91.5292 97.0438 91.1319 94.8005 91.7697C94.5935 91.8288 94.3719 91.8327 94.1602 91.8774C93.5501 92.0046 93.0163 91.8432 92.5494 91.447C92.1653 91.1207 91.7665 90.8072 91.4134 90.4493C90.4488 89.474 89.5022 88.4797 88.5579 87.4877C88.4548 87.3861 88.3748 87.2634 88.3234 87.1281C88.2924 86.9975 88.2916 86.8616 88.3209 86.7307C88.3365 86.701 88.3596 86.6759 88.3878 86.6577C88.416 86.6396 88.4484 86.629 88.4819 86.6271C94.1832 87.0031 99.876 86.7214 105.562 86.2576C107.068 86.1346 108.589 85.9624 110.053 85.5899C113.22 84.7809 116.472 84.6338 119.683 84.1813C119.97 84.1468 120.259 84.1403 120.546 84.1621C121.556 84.2192 122.563 84.2615 123.565 84.3637C126.065 84.617 128.604 84.6038 131.019 85.4725C131.344 85.5899 131.733 85.531 132.093 85.5461C132.526 85.563 132.969 85.5126 133.388 85.592C136.15 86.1289 138.961 86.3679 141.773 86.3051C142.194 86.2934 142.692 86.2811 143.028 86.4826C143.708 86.8929 144.407 86.8063 145.124 86.8333C146.491 86.885 147.876 86.8623 149.218 87.087C153.912 87.8734 158.591 88.7653 163.233 89.8243C164.351 90.079 165.424 90.5296 166.517 90.8899C167.119 91.6381 168.016 91.6829 168.855 91.8675C169.56 92.0241 170.257 92.2167 170.962 92.3714C171.72 92.5363 172.478 92.696 173.259 92.5159C172.564 91.8978 171.694 91.6295 170.846 91.3297C170.511 91.2143 170.163 91.1243 169.818 91.0392C168.014 90.596 166.273 90.0217 164.632 89.1113C163.583 88.5288 162.521 87.8944 161.279 87.7623C161.378 87.8658 161.464 87.98 161.537 88.1028C161.633 88.3126 161.61 88.5261 161.368 88.6214C161.232 88.6703 161.085 88.6808 160.943 88.6518C158.614 88.1654 156.286 87.6724 153.959 87.1728C153.681 87.0978 153.411 86.9995 153.149 86.8789C153.091 86.855 153.001 86.7629 153.011 86.7401C153.057 86.6402 153.13 86.4677 153.197 86.4652C154.78 86.4143 156.365 86.3256 157.946 86.3696C158.893 86.3955 159.738 86.8785 160.545 87.371C160.511 87.1668 160.402 86.9333 160.467 86.7678C160.513 86.6742 160.579 86.5918 160.66 86.5265C160.741 86.4611 160.835 86.4144 160.936 86.3896C161.782 86.2539 162.632 86.1383 163.485 86.0729C164.707 85.979 165.901 86.0686 167.03 86.6479C167.122 86.6943 167.219 86.7314 167.318 86.759C167.616 86.8445 167.944 86.8684 168.251 86.9376C168.235 86.9235 168.218 86.9123 168.201 86.8974L168.239 86.9062C168.205 86.8579 168.174 86.8077 168.145 86.756C167.825 86.1299 167.882 85.8834 168.368 85.8035C168.719 85.7431 169.08 85.6862 169.438 85.6561C171.087 85.5178 172.738 85.3853 174.389 85.2588C175.209 85.1953 175.941 85.4855 176.667 85.8286C178.362 86.6302 180.061 87.4382 181.896 87.8652C184.207 88.4066 186.534 88.8742 188.856 89.3672C189.418 89.4867 189.993 89.5471 190.546 89.6956C190.705 89.7385 190.837 89.9822 190.918 90.1615C190.942 90.2148 190.772 90.4147 190.655 90.4643C189.4 90.9999 188.145 91.5417 186.868 92.0317C186.534 92.1703 186.17 92.2233 185.809 92.1859C185.449 92.1485 185.103 92.0218 184.804 91.8174C184.009 91.3081 183.112 91.0325 182.196 90.806C179.399 90.1155 176.609 89.3973 173.813 88.701C173.545 88.6342 173.256 88.6387 172.979 88.6128C172.995 88.6224 173.011 88.6291 173.028 88.6377L172.982 88.6313C173.732 89.372 174.699 89.6282 175.692 89.7369C178.072 89.9986 180.283 90.855 182.531 91.589C182.665 91.6376 182.782 91.7251 182.867 91.8403C182.938 91.9588 182.978 92.0926 182.985 92.2302C182.994 92.2739 182.907 92.3557 182.847 92.3774C182.583 92.4744 182.314 92.6184 182.041 92.6279C181.111 92.6723 180.179 92.658 179.247 92.6872C178.405 92.714 177.565 92.7624 176.724 92.8035C179.439 93.3558 182.175 93.2101 184.888 92.8662C188.502 92.4076 191.857 91.0319 195.12 89.4956C197.079 88.5744 199.037 87.668 201.065 86.9202C202.28 86.4726 203.549 86.1722 204.741 85.6708C205.998 85.1413 207.194 84.4539 208.415 83.8324C209.122 83.4725 209.828 83.1098 210.533 82.7444C211.173 82.4132 211.781 81.9821 212.457 81.7611C214.332 81.1481 215.942 80.0716 217.608 79.0678C219.588 77.8726 221.215 76.2033 223.217 75.0429C224.15 74.5021 225.057 73.9173 225.963 73.3274C226.237 73.1486 226.25 72.8881 226.067 72.5846C225.588 71.7839 225.631 71.581 226.376 71.3917C228.334 70.8994 230.226 70.1841 232.228 69.8286C233.93 69.527 235.593 69.0149 237.272 68.5871C238.53 68.2662 239.769 67.8509 241.042 67.6178C243.45 67.1773 245.856 66.7182 248.29 66.4069C250.524 66.1216 252.727 65.9478 254.968 66.069C255.685 66.1087 256.407 66.0339 257.13 65.9843C257.194 65.9689 257.253 65.9378 257.302 65.8938C257.351 65.8498 257.388 65.7944 257.411 65.7324C257.434 65.6225 257.357 65.4125 257.268 65.3746C256.88 65.1946 256.475 65.0509 256.06 64.9454C252.543 64.1439 248.984 63.5853 245.506 62.6036C243.967 62.168 242.487 61.6573 241.102 60.8415C239.545 59.9281 237.95 59.104 236.235 58.4898C234.742 57.9541 233.279 57.3338 231.856 56.632C228.421 54.9505 224.991 53.2508 221.309 52.1551C219.443 51.5999 217.589 50.9789 215.69 50.56C213.368 50.0471 211.004 49.7214 208.66 49.3017C207.381 49.081 206.08 49.013 204.784 49.0991C203.345 49.1958 201.913 49.3772 200.496 49.6423C198.865 49.9325 197.212 50.0927 195.571 50.3259C193.499 50.6201 191.423 50.9185 189.431 51.5947C184.253 53.3469 179.619 56.1284 175.162 59.2265C173.029 60.7099 170.97 62.2976 168.724 63.6146C168.214 63.9021 167.741 64.2495 167.314 64.6495C166.67 65.273 165.916 65.6531 165.076 65.9102C163.63 66.3602 162.173 66.7821 160.749 67.2958C159.123 67.8822 157.476 68.4509 155.928 69.2107C151.649 71.3126 147.282 73.2129 142.863 74.9864C142.393 75.1748 141.917 75.4753 141.418 75.2672C140.778 75.0004 140.298 75.2518 139.813 75.5849C138.903 76.2011 137.892 76.573 136.84 76.8541C136.213 77.0219 135.591 77.2104 134.971 77.4059C132.698 78.1121 130.437 78.8606 128.153 79.5255C125.45 80.3116 122.728 81.0331 120.011 81.7683C119.106 82.013 118.189 82.2199 117.277 82.4361C116.433 82.6395 115.716 82.3209 115.051 81.8531C115.005 81.8034 114.973 81.7429 114.957 81.6773C114.941 81.6117 114.942 81.5431 114.96 81.4779C115.091 81.2257 115.236 80.9599 115.446 80.7794C117.191 79.2701 118.96 77.7853 120.707 76.2775C121.56 75.5409 122.497 75.0927 123.66 75.1477C124.086 75.1687 124.519 75.053 124.948 74.998C129.099 74.4665 133.254 73.9545 137.399 73.386C138.325 73.2457 139.234 73.0092 140.11 72.6802C141.329 72.2399 142.511 71.6978 143.704 71.1864C146.632 69.9299 149.369 68.3277 151.972 66.4896C153.447 65.4482 154.868 64.3565 156.199 63.1237C158.103 61.3606 160.13 59.731 162.107 58.0478C163.316 57.0189 164.599 56.0655 165.73 54.9577C168.05 52.6815 170.338 50.3735 172.55 47.9952C173.833 46.6148 175.218 45.3586 176.61 44.1028C178.161 42.6993 179.688 41.2704 181.236 39.863C182.356 38.8445 183.439 37.7751 184.632 36.8504C186.111 35.7036 187.687 34.6804 189.223 33.6086C189.753 33.2383 190.307 32.9006 190.822 32.5144C191.071 32.3278 191.154 32.0236 190.932 31.7586C190.636 31.4039 190.701 31.115 191.023 30.8431C191.137 30.7543 191.257 30.6737 191.382 30.6021C192.117 30.1451 192.861 29.7033 193.584 29.2278C194.06 28.909 194.519 28.5664 194.961 28.2012C195.039 28.1376 195.062 27.9213 195.017 27.8177C194.971 27.7142 194.777 27.6098 194.696 27.6387C194.223 27.8068 193.727 27.9551 193.307 28.2189C191.831 29.1471 190.238 29.8196 188.625 30.4542C187.685 30.8221 186.752 31.2121 185.807 31.5665C182.228 32.908 178.647 34.2439 175.064 35.5742C174.929 35.6246 174.79 35.6631 174.652 35.7075C171.496 36.7268 168.259 37.4724 165.127 38.5695C163.224 39.2361 161.302 39.8519 159.423 40.5792C157.743 41.2289 156.127 42.0413 154.453 42.7072C152.577 43.453 150.677 44.1417 148.769 44.8047C146.922 45.443 145.2 46.3553 143.456 47.2122C140.588 48.6214 138.083 50.5835 135.61 52.5812C134.034 53.8516 132.689 55.3641 131.272 56.8011C129.335 58.7536 127.807 61.0731 126.776 63.624C126.288 64.8235 125.899 66.0686 125.179 67.1713C124.265 68.5624 123.582 70.0921 123.155 71.7014C123.044 72.1195 122.88 72.5244 122.778 72.9452C122.628 73.5626 122.253 74.0039 121.676 74.1825C120.945 74.4091 120.446 74.8912 119.96 75.4309C118.406 77.1564 116.564 78.556 114.766 80.002C114.423 80.279 114.056 80.5005 113.581 80.3966C113.08 80.2877 112.75 80.5612 112.493 80.9291C112.165 81.4037 111.895 81.9213 111.55 82.382C110.836 83.3356 109.958 84.0408 108.712 84.1876C107.709 84.3054 106.717 84.5255 105.712 84.6174C103.772 84.7945 101.829 84.9658 99.8843 85.0448C97.868 85.1243 95.8384 85.2374 93.8304 85.0701C90.7396 84.811 87.6542 84.4138 84.5934 83.9118C81.1737 83.3436 77.76 82.7689 74.3053 82.4684C73.9463 82.4311 73.5917 82.3592 73.2464 82.2539C73.1861 82.2249 73.1331 82.1827 73.0913 82.1305C73.0495 82.0782 73.02 82.0172 73.005 81.952C72.9808 81.8296 73.0259 81.6217 73.1105 81.5678C73.7754 81.1399 74.4753 80.7652 75.1333 80.3251C76.2335 79.5885 77.4416 79.1495 78.7312 78.9059C80.2182 78.6241 81.7048 78.317 83.1893 78.0085C83.2906 77.9884 83.3697 77.861 83.4596 77.7833C83.3342 77.7227 83.2086 77.6613 83.0819 77.6037C82.61 77.3883 82.6988 76.9801 83.0798 76.7866C83.4608 76.5931 83.8488 76.3754 84.2563 76.2384C86.1929 75.5824 87.8521 74.4054 89.5919 73.3923C92.2071 71.8688 94.7528 70.2283 97.3484 68.6697C97.7859 68.4213 98.2676 68.2605 98.7666 68.1963C99.2291 68.1301 99.5867 67.9748 99.8788 67.6254C100.687 66.6633 101.733 66.0292 102.811 65.4351C103.254 65.1911 103.699 64.9521 104.131 64.6913C104.204 64.6479 104.214 64.5024 104.256 64.4032C104.187 64.3959 104.111 64.3655 104.053 64.3853C103.445 64.5965 102.845 64.837 102.227 65.0094C102.133 65.0361 101.84 64.7636 101.841 64.6317C101.854 64.3457 101.931 64.0663 102.066 63.814C102.905 62.1382 103.96 60.5904 104.971 59.0194C105.517 58.172 106.085 57.3109 106.8 56.608C108.043 55.3798 109.056 53.9812 110.037 52.5587C110.469 51.9336 110.966 51.4856 111.643 51.1778C114.338 49.9575 117.023 48.7199 119.717 47.4898C119.846 47.4267 119.987 47.3884 120.131 47.3769C120.266 47.3711 120.444 47.3821 120.529 47.4634C120.567 47.5172 120.592 47.5797 120.601 47.6452C120.609 47.7108 120.602 47.7775 120.579 47.8395C120.444 48.0922 120.286 48.332 120.107 48.5561C118.71 50.3943 117.301 52.2238 115.908 54.0657C115.036 55.2141 114.176 56.371 113.33 57.5366C113.115 57.8262 112.898 58.1317 112.787 58.4616C112.449 59.5006 111.684 60.1336 110.79 60.6467C110.102 61.0398 109.395 61.3943 108.691 61.7635C107.798 62.233 106.898 62.6926 106.013 63.1768C105.92 63.228 105.902 63.4177 105.85 63.5434C105.977 63.5783 106.135 63.6805 106.225 63.638C108.837 62.4078 111.388 61.0642 113.813 59.4938C116.175 57.9642 118.525 56.4187 120.888 54.8916C121.123 54.7408 121.435 54.5391 121.664 54.5853C122.445 54.744 122.925 54.323 123.324 53.8024C124.228 52.6242 125.493 51.9196 126.699 51.1357C127.847 50.3916 129.043 49.7232 130.197 48.9895C131.72 48.0219 133.23 47.0346 134.728 46.0277C135.504 45.5042 136.235 44.9115 136.988 44.3537C137.509 43.9663 138.021 43.5651 138.556 43.1993C138.776 43.0494 139.107 42.8086 139.297 43.1017C139.392 43.249 139.226 43.6607 139.065 43.8661C137.781 45.5174 136.474 47.1515 135.164 48.7834C134.93 49.0585 134.681 49.3201 134.417 49.5672C132.673 51.2979 130.891 52.9825 128.898 54.43C128.491 54.7287 128.1 55.0488 127.726 55.3887C126.173 56.7864 124.639 58.2119 123.078 59.6048C119.733 62.5888 116.141 65.2596 112.511 67.8741C110.577 69.2674 108.521 70.4833 106.369 71.5069C103.17 73.0314 99.9351 74.436 96.4481 75.1729C96.0256 75.262 95.6214 75.4347 95.2019 75.5387C93.872 75.8674 92.5432 76.206 91.2051 76.4973C89.4425 76.8818 87.6694 77.2221 85.9038 77.5917C85.837 77.6086 85.7739 77.6378 85.7176 77.6776C85.658 77.7158 85.5987 77.7602 85.5384 77.7949C85.6241 77.8151 85.7112 77.8515 85.7965 77.8746C85.8776 77.9028 85.9636 77.9145 86.0493 77.909C86.6226 77.8436 87.2 77.7619 87.7617 77.6471C90.8737 77.0099 93.9796 76.3466 97.0913 75.7213C98.7977 75.3834 100.426 74.8211 102.049 74.2053C105.639 72.8423 109.09 71.2142 112.258 69.0353C113.802 67.9729 115.225 66.731 116.79 65.7025C119.699 63.7901 122.304 61.5102 124.847 59.1626C126.81 57.3505 128.854 55.644 130.922 53.9628C132.989 52.2817 135.066 50.6032 136.732 48.4747C138.332 46.4321 139.987 44.4265 141.627 42.4122C142.264 41.6293 142.898 40.8406 143.582 40.0993C144.657 38.9335 145.763 37.7961 146.873 36.6617C148.683 34.8061 150.448 32.8843 152.717 31.5448C152.834 31.4636 152.935 31.3611 153.014 31.2426C153.05 31.1946 153.07 31.0662 153.037 31.0453C152.941 30.9735 152.824 30.885 152.709 30.8834C152.564 30.8882 152.423 30.9295 152.299 31.0034C150.723 31.8797 149.106 32.6923 147.586 33.6574C144.095 35.8738 140.274 37.4163 136.559 39.1738C133.888 40.4387 131.148 41.5581 128.458 42.7866C125.768 44.0151 123.115 45.3181 120.427 46.5489C113.271 49.8246 106.21 53.2704 99.3698 57.1684C97.8636 58.0271 96.3575 58.8776 94.9403 59.8741C93.8792 60.6202 92.8851 61.462 91.8092 62.1883C89.7618 63.5516 87.9777 65.2743 86.5432 67.2733C86.2887 67.6243 86.0132 67.9594 85.7182 68.2769C84.4421 69.6585 83.3558 71.2043 82.4882 72.8734C81.0126 75.7199 78.4812 77.3458 75.7716 78.7499C75.0654 79.1159 74.3603 79.4145 73.7667 79.9826C73.0291 80.6796 72.1499 81.2091 71.189 81.535C70.7916 81.6727 70.3342 81.8014 69.9343 81.7389C68.5728 81.5271 67.2286 81.3937 65.8585 81.6886C65.4485 81.7771 64.9933 81.7055 64.5647 81.6542C62.3254 81.3864 60.0988 81.5176 57.8711 81.7989C56.8705 81.9253 55.8573 81.9506 54.853 82.0533C53.275 82.215 51.6926 82.3594 50.1243 82.5928C48.4113 82.8475 46.7063 83.1652 45.0095 83.5149C43.2422 83.8757 41.4525 84.1875 39.738 84.7278C36.9865 85.5951 34.2755 86.598 31.5725 87.6093C29.2723 88.469 27.035 89.4762 24.9803 90.8469C23.6004 91.766 22.2056 92.6599 20.8241 93.5848C19.0696 94.7616 17.6422 96.2887 16.3185 97.9134C16.1002 98.2012 15.9222 98.5176 15.7896 98.8538C15.6992 99.0495 15.6758 99.2697 15.7231 99.4801C15.7753 99.6433 16.007 99.8781 16.138 99.8612C16.4233 99.824 16.6951 99.7171 16.9295 99.5501C18.4726 98.482 20.0056 97.4027 21.5285 96.3121C23.9326 94.5842 26.3368 92.8755 29.0765 91.678C31.0561 90.8127 33.0212 89.8976 34.8698 88.7603C36.111 87.9931 37.4792 87.5559 38.9005 87.249C39.8362 87.0473 40.7393 87.0066 41.6766 87.2851C42.3604 87.4885 43.0859 87.6419 43.7962 87.6538C47.1855 87.6975 50.5756 87.7128 53.9638 87.6686C54.7342 87.6586 55.5012 87.3705 56.2671 87.2006C56.3029 87.1935 56.3363 87.0915 56.3352 87.0355C56.334 86.9794 56.2796 86.8648 56.2509 86.8623C55.6786 86.8775 55.0911 86.8349 54.5362 86.9475C53.3149 87.1967 52.0949 87.1494 50.8689 87.1179C48.997 87.0698 47.1246 87.0419 45.2532 86.9683C44.3919 86.9363 43.5126 86.9324 42.7207 86.5124C42.6324 86.4654 42.606 86.2772 42.5786 86.1482C42.5737 86.1135 42.5772 86.0782 42.5889 86.0452C42.6005 86.0122 42.6199 85.9826 42.6455 85.9587C42.8893 85.815 43.1354 85.6509 43.4026 85.5608C46.2167 84.6111 49.159 84.2491 52.0619 83.7106C52.2025 83.6827 52.3502 83.6907 52.4935 83.6768C53.7849 83.5528 55.0733 83.3858 56.3677 83.3138C57.5896 83.2463 58.8184 83.2373 60.0411 83.284C60.6181 83.306 61.1722 83.3452 61.756 83.2359C62.981 83.0061 64.1996 83.1698 65.3971 83.4741C65.4924 83.497 65.5916 83.6863 65.5973 83.8023C65.5909 83.9414 65.5332 84.0732 65.4355 84.1723C65.3292 84.2699 65.2009 84.3405 65.0615 84.3781C63.2723 84.9395 61.4792 85.4908 59.6901 86.0531C59.2116 86.2033 58.7385 86.3715 58.2751 86.5613C58.1961 86.5933 58.1806 86.7808 58.1364 86.8967C58.2054 86.9194 58.2826 86.975 58.3403 86.959C60.2117 86.4413 62.1774 86.2899 63.9694 85.4491C64.9471 84.992 65.9949 84.6783 66.9804 84.2424C68.2282 83.6919 69.5515 83.7332 70.813 83.9121C72.3019 84.125 73.7802 84.5462 75.2034 85.0465C76.3738 85.4569 77.5738 85.6553 78.7601 85.949C79.3212 86.0877 79.8545 86.0311 80.4434 85.8882C82.1305 85.4895 83.7421 85.7218 85.0847 86.961C85.6145 87.4502 86.1586 87.9292 86.6597 88.4431C88.1193 89.9472 89.647 91.3787 91.3132 92.6474C92.0606 93.2134 92.4308 93.8912 92.6089 94.7952C92.8553 95.9958 93.1692 97.1816 93.5491 98.3469C94.0298 99.8577 94.6351 101.328 95.0968 102.844C95.63 104.588 96.4778 106.178 97.2731 107.793ZM124.069 72.2581C123.946 72.1579 123.882 71.85 123.94 71.6877C124.283 70.7405 124.584 69.7635 125.057 68.8813C126.013 67.0988 127.026 65.3511 127.623 63.4008C127.724 63.0528 127.882 62.7239 128.09 62.4272C129.194 60.9188 130.033 59.2266 131.363 57.8731C132.475 56.7446 133.489 55.5336 134.644 54.4357C136.119 53.0325 137.759 51.8667 139.378 50.6686C142.278 48.51 145.463 46.7632 148.842 45.4779C152.618 44.0515 156.27 42.3137 160.113 41.054C161.618 40.5606 163.052 39.8569 164.546 39.3232C166.103 38.7667 167.686 38.2752 169.272 37.8004C170.582 37.4083 171.923 37.12 173.232 36.7164C174.4 36.3562 175.54 35.9042 176.69 35.4865C178.995 34.6529 181.298 33.8173 183.601 32.9798C184.617 32.6106 185.631 32.2334 186.51 31.9095C186.803 31.9033 186.945 31.8916 187.087 31.9006C187.155 31.9044 187.276 31.9394 187.282 31.9709C187.298 32.1032 187.321 32.264 187.26 32.3686C187.147 32.5524 187.009 32.7197 186.85 32.8659C185.817 33.8726 184.81 34.905 183.731 35.8635C183.036 36.4789 182.277 37.0652 181.46 37.5022C178.791 38.9375 176.04 40.2155 173.221 41.3294C170.94 42.2243 168.64 43.0814 166.491 44.2808C165.359 44.913 164.214 45.5249 163.089 46.1717C162.026 46.7831 160.974 47.4127 159.932 48.0605C158.154 49.1647 156.382 50.2706 154.631 51.414C154.091 51.7671 153.619 52.2285 153.138 52.6652C150.567 55.002 147.77 57.0401 144.854 58.9175C142.731 60.2835 140.583 61.6091 138.474 62.9969C137.088 63.9073 135.751 64.8913 134.391 65.841C132.264 67.3269 130.152 68.8362 128.001 70.2858C126.927 71.0109 125.788 71.6415 124.661 72.2843C124.507 72.3749 124.195 72.3613 124.069 72.2581ZM124.343 74.4638C124.19 74.4715 123.996 74.2981 123.882 74.1591C123.839 74.1076 123.933 73.8765 124.024 73.793C124.24 73.6041 124.47 73.4315 124.711 73.2764C127.924 71.0823 131.112 68.8504 134.36 66.7093C138.45 64.0126 142.496 61.2493 146.687 58.7035C148.778 57.4197 150.742 55.9388 152.551 54.2811C154.685 52.3403 156.992 50.5999 159.444 49.0819C161.097 48.0596 162.808 47.1321 164.491 46.1557C165.487 45.5769 166.471 44.9743 167.472 44.4045C168.096 44.0493 168.712 43.6275 169.388 43.4237C172.283 42.5481 175.13 41.5224 177.919 40.3509C177.989 40.3325 178.061 40.3237 178.133 40.3248C178.194 40.3501 178.269 40.367 178.335 40.3893C178.393 40.4018 178.445 40.4351 178.48 40.4831C178.507 40.5472 178.518 40.6167 178.513 40.6859C178.507 40.7551 178.485 40.8219 178.448 40.8809C178.034 41.376 177.593 41.8472 177.125 42.2921C176.327 43.0207 175.483 43.7001 174.669 44.4135C174.181 44.8408 173.66 45.2491 173.248 45.7405C170.838 48.6276 168.049 51.1457 165.382 53.774C162.975 56.1473 160.296 58.2455 157.737 60.4656C156.484 61.5512 155.201 62.6028 153.978 63.7216C151.076 66.3728 147.791 68.4268 144.234 70.0605C142.793 70.7219 141.32 71.3125 139.885 71.9881C139.033 72.3797 138.127 72.6411 137.198 72.7637C133.846 73.2505 130.499 73.7661 127.145 74.2424C126.215 74.3692 125.277 74.4169 124.342 74.4631L124.343 74.4638ZM199.86 86.1415C199.877 86.2527 199.768 86.3897 199.698 86.5061C199.658 86.5671 199.602 86.6154 199.536 86.6454C197.898 87.3831 196.283 88.1817 194.607 88.8214C193.862 89.0906 193.065 89.1835 192.278 89.0928C188.057 88.6062 183.853 87.9917 179.84 86.5011C179.241 86.279 178.686 85.9374 178.123 85.623C178.037 85.5746 177.98 85.3606 178.012 85.247C178.035 85.1841 178.073 85.1276 178.122 85.0821C178.171 85.0365 178.231 85.0032 178.295 84.9848C179.219 84.8535 180.148 84.7478 181.075 84.6351C181.08 84.6631 181.086 84.6919 181.092 84.7225C181.798 84.5827 182.5 84.4164 183.211 84.312C183.705 84.2395 184.236 84.1425 184.708 84.2489C185.867 84.5107 187.001 84.3715 188.139 84.2052C189.067 84.0541 190.017 84.1269 190.91 84.4176C193.049 85.1367 195.269 85.3148 197.499 85.4664C198.206 85.5145 198.904 85.6859 199.603 85.8291C199.711 85.8477 199.841 86.0218 199.859 86.1408L199.86 86.1415ZM208.193 82.3267C208.109 82.5105 208.061 82.7306 207.929 82.8685C207.797 83.0065 207.57 83.1021 207.375 83.1909C206.392 83.6371 205.411 84.084 204.421 84.5125C203.361 84.975 202.199 85.1557 201.048 85.037C198.902 84.826 196.754 84.6593 194.61 84.4362C194.053 84.3774 193.506 84.186 192.958 84.0439C192.926 84.0282 192.899 84.0045 192.879 83.9753C192.859 83.946 192.847 83.9121 192.843 83.8768C192.871 83.7477 192.905 83.5648 192.997 83.5157C193.25 83.3833 193.517 83.2821 193.794 83.2143C194.84 82.9517 195.891 82.7082 196.94 82.4533C199.157 81.6444 201.4 81.5627 203.726 81.9768C205.056 82.2131 206.444 82.1134 207.806 82.1761C207.936 82.1822 208.063 82.2733 208.193 82.3258L208.193 82.3267ZM218.01 76.4475C218.131 76.5071 218.283 76.5751 218.335 76.6811C218.387 76.7871 218.381 77.0127 218.31 77.0648C217.383 77.7444 216.449 78.4154 215.499 79.064C213.528 80.4099 211.252 80.9043 208.955 81.0867C207.316 81.2123 205.656 81.5028 203.993 81.2399C203.785 81.2106 203.585 81.1421 203.403 81.0381C203.34 80.9997 203.321 80.7255 203.377 80.6798C203.593 80.4924 203.84 80.3439 204.107 80.2409C205.817 79.6743 207.536 79.1314 209.251 78.5801C210.087 78.3635 210.892 78.0915 211.795 78.1388C212.264 78.1632 212.747 77.8785 213.227 77.7427C214.75 77.312 216.275 76.8845 217.799 76.4602C217.867 76.4322 217.942 76.4272 218.013 76.4459L218.01 76.4475ZM224.372 71.9611C224.386 72.014 224.396 72.0677 224.404 72.1219L224.055 72.1911L224.02 72.0163C224.14 71.9952 224.257 71.972 224.375 71.9597L224.372 71.9611ZM218.344 73.4483C218.774 73.4649 219.203 73.5212 219.623 73.6165C219.717 73.635 219.793 73.8034 219.848 73.9171C219.863 73.9504 219.787 74.069 219.736 74.0883C218.727 74.4696 217.731 74.8914 216.703 75.2157C214.021 76.0612 211.408 77.1299 208.645 77.72C208.014 77.8548 207.412 78.1204 206.797 78.3285C203.793 79.3466 200.822 80.4664 197.726 81.1994C195.905 81.6299 194.094 82.1366 192.271 82.5739C190.794 82.9356 189.264 83.0284 187.754 82.8481C186.97 82.7437 186.172 82.8429 185.437 83.1362C184.847 83.3665 184.166 83.4306 183.523 83.4381C182.223 83.4636 180.929 83.6114 179.657 83.8794C179.445 83.9226 179.23 83.9539 179.014 83.9731C176.14 84.2208 173.265 84.4586 170.39 84.7108C168.02 84.9195 165.652 85.1423 163.283 85.3599C162.637 85.4189 161.991 85.5248 161.344 85.5385C157.524 85.6163 153.703 85.6817 149.882 85.7348C149.668 85.7463 149.453 85.7241 149.246 85.669C149.149 85.6365 149.073 85.4761 149.017 85.3592C149.011 85.3258 149.014 85.2915 149.025 85.2594C149.036 85.2273 149.054 85.1983 149.079 85.1752C149.239 85.0364 149.415 84.9179 149.604 84.8224C152.322 83.655 155.042 82.4934 157.765 81.3377C159.155 80.7462 160.536 80.1285 161.946 79.5876C162.817 79.2544 163.731 79.0298 164.632 78.7832C165.675 78.4949 166.754 78.3103 167.767 77.9427C169.402 77.3463 171.084 76.9496 172.774 76.5677C173.125 76.4881 173.499 76.4632 173.828 76.3289C175.787 75.5304 177.878 75.3007 179.665 74.9377C182.602 74.2444 185.328 74.0079 188.067 73.8552C190.227 73.7354 192.384 73.518 194.545 73.4807C199.015 73.4057 203.487 73.4103 207.961 73.4034C211.423 73.3983 214.883 73.4215 218.346 73.4478L218.344 73.4483ZM239.87 62.1118C240.889 61.9591 241.827 62.0641 242.79 62.5428C243.677 62.9831 244.688 63.1898 245.658 63.4455C246.971 63.7905 248.298 64.0798 249.615 64.4123C249.692 64.4315 249.74 64.6255 249.771 64.7446C249.779 64.7804 249.686 64.8842 249.635 64.886C248.849 64.9173 248.056 65.0116 247.277 64.9452C244.272 64.6901 241.269 64.3946 238.269 64.0849C237.562 64.0123 236.865 63.8353 236.17 63.6776C236.075 63.6565 235.97 63.4674 235.963 63.3497C235.956 63.2321 236.035 63.0285 236.125 62.9945C236.792 62.7459 237.472 62.5305 237.994 62.3517C238.733 62.2608 239.305 62.2012 239.87 62.1118ZM231.638 58.5799C231.852 58.5648 232.099 58.6595 232.274 58.5839C233.624 58.0123 234.807 58.5709 235.991 59.106C236.905 59.5199 237.808 59.9596 238.705 60.4087C238.806 60.4569 238.881 60.6463 238.879 60.7676C238.877 60.8889 238.783 61.0755 238.688 61.1052C236.837 61.6908 234.984 62.2729 233.12 62.8146C232.717 62.9317 232.263 62.9362 231.839 62.9058C228.893 62.6944 226.008 62.0503 223.109 61.5198C222.994 61.4989 222.805 61.3076 222.823 61.2485C222.885 61.0569 222.988 60.8814 223.125 60.7345C223.232 60.6367 223.362 60.5675 223.503 60.5335C225.352 59.9512 227.201 59.3741 229.112 58.7778C229.929 58.7105 230.785 58.639 231.643 58.5789L231.638 58.5799ZM216.257 51.4378C217.31 51.679 218.345 51.9973 219.385 52.2909C219.524 52.3308 219.65 52.4054 219.753 52.5078C219.852 52.6079 219.917 52.7374 219.937 52.8773C219.947 52.9963 219.886 53.1999 219.801 53.235C218.872 53.6251 217.932 53.9875 216.998 54.3632C216.532 54.5464 216.058 54.7219 215.615 54.9532C215.211 55.164 215.074 55.559 215.044 55.9928L215.079 55.9968L215.037 56.0477C216.453 55.5265 217.81 54.851 219.301 54.5194C219.934 54.3733 220.538 54.12 221.086 53.7706C221.842 53.2913 222.566 53.3214 223.341 53.6166C224.486 54.0521 225.643 54.4533 226.771 54.9285C227.96 55.4324 229.133 55.9931 230.299 56.557C230.544 56.6756 230.74 56.9039 230.945 57.0967C231.069 57.2121 230.966 57.5967 230.803 57.6416C230.459 57.737 230.116 57.8342 229.767 57.9051C226.726 58.529 223.737 59.309 220.977 60.7831C220.518 61.0283 220.062 61.174 219.538 61.1425C216.591 60.9666 213.649 60.7645 210.745 60.1861C210.537 60.1446 210.296 60.0932 210.155 59.956C210.086 59.8837 210.034 59.7977 210.002 59.7037C209.969 59.6097 209.957 59.5099 209.967 59.4109C210 59.2226 210.164 59.0312 210.311 58.883C211.032 58.1644 211.878 57.6272 212.8 57.1983C213.566 56.8433 214.298 56.4149 215.044 56.0164C215.042 56.0086 215.046 56.0005 215.047 55.9922C214.702 55.9651 214.331 55.8525 214.023 55.9471C212.006 56.5671 210.088 57.3859 208.605 58.9676C208.089 59.5185 207.515 59.8827 206.716 59.843C204.197 59.7152 201.665 59.8877 199.154 59.5629C198.735 59.4983 198.327 59.3707 197.946 59.1845C197.737 59.0878 198.171 58.4324 198.765 58.0666C201.651 56.2907 204.512 54.4759 207.752 53.3684C208.561 53.0919 209.296 52.5957 210.062 52.2032C212.837 50.7836 213.167 50.7309 216.257 51.4378ZM206.917 49.8603C207.778 49.895 208.635 50.0012 209.479 50.1778C209.977 50.2908 210.854 50.0571 210.859 50.841C210.862 51.3726 210.087 51.339 209.622 51.4684C209.551 51.4825 209.482 51.5044 209.416 51.5337C206.569 53.0712 203.467 54.0743 200.698 55.7927C199.05 56.8168 197.298 57.6687 195.797 58.9297C195.175 59.4544 194.419 59.6369 193.589 59.6577C191.431 59.7125 189.274 59.8156 187.119 59.9326C186.33 59.9752 185.548 60.131 184.759 60.1954C184.333 60.2198 183.905 60.206 183.481 60.1544C183.408 60.1469 183.34 59.9507 183.299 59.827C183.297 59.7918 183.303 59.7567 183.317 59.7244C183.331 59.6921 183.353 59.6635 183.38 59.6411C184.973 58.4173 186.552 57.1698 188.172 55.9789C188.923 55.4258 189.711 54.8929 190.55 54.4941C193.019 53.3229 195.506 52.1873 197.988 51.0428C198.951 50.5986 200.064 50.4809 201.108 50.215C203.023 49.8614 204.974 49.7426 206.917 49.8612L206.917 49.8603ZM170.899 63.7069C170.865 63.6892 170.829 63.6654 170.797 63.6508C170.812 63.618 170.821 63.578 170.833 63.542C170.841 63.5088 170.859 63.479 170.885 63.4563C171.88 62.7451 172.933 62.105 173.869 61.3211C176.537 59.0915 179.548 57.3879 182.504 55.6052C185.356 53.8849 188.467 52.7448 191.65 51.8047C191.984 51.7058 192.356 51.7302 192.712 51.7098C192.772 51.7061 192.888 51.7657 192.889 51.8027C192.894 51.9343 192.91 52.113 192.834 52.1906C192.678 52.3363 192.5 52.4564 192.307 52.5467C191.033 53.2131 189.77 53.902 188.476 54.527C186.631 55.4193 185.161 56.8113 183.631 58.1208C183.093 58.5998 182.617 59.1442 182.214 59.7413C181.761 60.4003 181.079 60.866 180.3 61.0467C179.394 61.2771 178.482 61.4903 177.658 61.6908C175.596 61.8839 173.848 62.7886 172.016 63.4275C171.677 63.5457 171.333 63.6419 170.993 63.7319C170.96 63.7354 170.926 63.7265 170.898 63.7071L170.899 63.7069ZM169.135 64.4197C169.182 64.3721 169.225 64.2974 169.279 64.2857C169.334 64.2739 169.402 64.3268 169.464 64.3518C169.415 64.3995 169.373 64.476 169.318 64.4879C169.262 64.4999 169.193 64.4473 169.131 64.4213L169.135 64.4197ZM175.752 64.2991C175.332 64.3142 174.907 64.2085 174.486 64.1447C174.453 64.1335 174.424 64.1142 174.4 64.0885C174.377 64.0628 174.36 64.0316 174.352 63.9978C174.346 63.8718 174.33 63.6806 174.402 63.6247C175.166 63.0436 176.066 62.7882 176.989 62.6018C178.261 62.3452 179.535 62.0976 180.808 61.8455C180.805 61.8306 180.802 61.8149 180.799 61.8C181.223 61.716 181.657 61.6628 182.07 61.5428C184.45 60.8553 186.912 60.8663 189.348 60.6564C190.209 60.5823 191.099 60.3914 191.928 60.5315C193.737 60.8365 195.505 60.4328 197.282 60.4459C200.443 60.4685 203.62 60.4107 206.765 60.8942C207.048 60.9467 207.337 60.9526 207.622 60.9117C208.785 60.6995 209.92 60.8926 211.056 61.1027C212.97 61.4576 214.89 61.7451 216.842 61.8381C217.687 61.8788 218.645 61.7027 219.356 62.2859C220.222 62.9953 220.961 62.0924 221.817 62.2526C224.576 62.7735 227.374 63.0906 230.144 63.5667C230.812 63.6815 231.406 64.2251 232.075 64.3497C232.686 64.4638 233.407 64.0857 233.988 64.255C236.857 65.0777 239.812 65.1909 242.743 65.5097C242.884 65.5254 243.035 65.7499 243.113 65.9106C243.142 65.9711 242.999 66.1839 242.893 66.2266C242.562 66.3645 242.219 66.4745 241.869 66.5557C239.551 67.0847 237.236 67.6151 234.979 68.3917C233.959 68.7426 232.886 68.9253 231.831 69.1649C229.724 69.6422 227.625 70.1679 225.501 70.5585C223.378 70.949 221.253 71.2735 219.062 71.0625C216.34 70.8012 213.594 70.7937 210.875 70.5083C205.854 69.9902 200.851 69.4723 196.045 67.7043C193.074 66.6096 189.995 65.8024 186.946 64.929C186.055 64.6742 185.104 64.5672 184.175 64.5123C181.37 64.3365 178.563 64.203 175.749 64.3016L175.752 64.2991ZM138.479 77.9484C140.506 77.1837 142.535 76.4329 144.541 75.6343C145.811 75.1293 147.107 74.6473 148.292 73.9784C150.754 72.5888 153.357 71.5538 156.008 70.6182C158.794 69.6351 161.562 68.6099 164.271 67.4295C165.858 66.7355 167.556 66.3619 169.278 66.1327C171.418 65.8487 173.561 65.5815 175.706 65.3311C176.209 65.2842 176.714 65.2706 177.219 65.2903C178.804 65.3144 180.389 65.3947 181.973 65.3752C183.94 65.3491 185.848 65.6544 187.731 66.1989C190.014 66.8605 192.308 67.4834 194.592 68.1403C194.934 68.2387 195.247 68.4383 195.579 68.5806C195.843 68.6917 196.112 68.8548 196.386 68.8749C199.065 69.0492 201.551 70.1601 204.203 70.4635C205.204 70.5777 206.197 70.7689 207.2 70.8609C210.86 71.1971 214.522 71.5056 218.183 71.8288C218.541 71.8605 218.897 71.9217 219.252 71.9804C219.314 72.0114 219.364 72.0639 219.391 72.1282C219.315 72.2341 219.233 72.3774 219.129 72.4027C218.85 72.4714 218.563 72.5061 218.276 72.5062C215.105 72.4692 211.934 72.3795 208.765 72.3914C204.946 72.4019 201.128 72.2315 197.308 72.4465C195.224 72.564 193.131 72.4999 191.042 72.5512C190.324 72.569 189.609 72.6914 188.892 72.7598C187.889 72.8549 186.884 72.9322 185.883 73.036C184.808 73.1472 183.73 73.2453 182.662 73.4077C178.307 74.0712 174.029 75.1119 169.768 76.1911C166.416 77.0365 163.079 77.9563 159.816 79.1266C158.054 79.7589 156.229 80.2104 154.446 80.7886C153.554 81.0743 152.683 81.4205 151.838 81.8247C151 82.2296 150.15 82.664 149.426 83.2371C148.632 83.8631 147.702 84.2937 146.712 84.4941C145.936 84.6622 145.153 84.8028 144.392 85.0233C143.419 85.3108 142.39 85.3571 141.394 85.1584C138.489 84.5747 135.528 84.448 132.597 84.0728C130.455 83.7975 128.342 83.2731 126.163 83.2814C125.299 83.2845 124.433 83.2525 123.57 83.1982C123.242 83.1777 122.846 83.2507 122.637 82.8571C122.876 82.7081 123.124 82.5717 123.378 82.4486C124.703 81.8772 126.081 81.435 127.491 81.1282C128.193 80.9783 128.871 80.7186 129.564 80.5224C130.672 80.2075 131.783 79.9012 132.64 79.6642C134.864 79.4254 136.655 78.6392 138.477 77.9552L138.479 77.9484ZM134.38 40.9952C134.767 40.676 135.192 40.4068 135.646 40.194C137.862 39.1656 140.091 38.1637 142.318 37.1603C142.58 37.0528 142.85 36.9656 143.125 36.8997C143.173 36.8903 143.263 36.9461 143.294 36.9961C143.326 37.0462 143.355 37.1658 143.324 37.1991C142.847 37.7323 142.399 38.3007 141.868 38.7765C140.368 40.1181 138.837 41.4243 137.313 42.7389C135.517 44.292 133.586 45.6805 131.542 46.8875C130.742 47.3592 130.049 48.0096 129.265 48.5102C128.298 49.126 127.296 49.6759 126.296 50.2344C126.271 50.2476 126.243 50.2532 126.215 50.2505C126.108 50.2274 126.002 50.1987 125.898 50.1644C125.891 50.1295 125.87 50.0927 125.856 50.0572C125.842 50.0264 125.837 49.9917 125.843 49.9581C125.895 49.7532 125.971 49.5552 126.069 49.3683C126.793 48.1209 127.735 47.0143 128.851 46.1014C129.521 45.5609 130.241 45.0359 130.76 44.3663C131.789 43.0389 133.106 42.0487 134.378 41.002L134.38 40.9952ZM123.27 45.7242C125.311 44.8314 127.347 43.9268 129.385 43.0289C129.451 43.0082 129.519 42.9948 129.587 42.989C129.72 43.0425 129.894 43.059 129.952 43.1501C130.01 43.2413 130.029 43.4664 129.963 43.5468C129.274 44.3718 128.624 45.2426 127.849 45.9793C126.168 47.5774 124.809 49.4207 123.536 51.3487C123.188 51.8818 122.795 52.4484 122.289 52.8129C120.075 54.4068 117.947 56.1254 115.58 57.5026C115.217 57.7124 114.806 57.8375 114.412 57.9917C114.373 58.0068 114.277 57.9404 114.243 57.8881C114.223 57.858 114.209 57.824 114.203 57.7884C114.197 57.7527 114.198 57.7161 114.206 57.681C114.288 57.4831 114.349 57.2486 114.497 57.1201C115.383 56.3562 115.961 55.3468 116.664 54.4429C117.547 53.3096 118.492 52.2161 119.315 51.043C120.348 49.5767 121.573 48.2403 122.402 46.6365C122.605 46.2312 122.845 45.9101 123.27 45.7242ZM97.8625 58.8285C98.3319 58.4949 98.8185 58.1863 99.3203 57.9039C101.756 56.5132 104.196 55.1298 106.64 53.7538C106.885 53.6145 107.169 53.5583 107.476 53.4448C107.619 53.6425 107.811 53.7925 107.829 53.9615C107.838 54.1766 107.772 54.388 107.643 54.5598C107.267 55.0869 106.857 55.5886 106.416 56.0619C105.358 57.1463 104.429 58.3496 103.647 59.6477C102.643 61.3099 101.653 62.9812 100.701 64.673C100.056 65.8191 99.2848 66.7756 98.1497 67.5236C95.6811 69.1507 93.0916 70.5564 90.5146 71.9887C90.351 72.0793 90.0967 72.0506 89.8995 72.0079C89.8049 71.9885 89.7365 71.8086 89.6861 71.6868C89.6653 71.6365 89.7054 71.5413 89.7453 71.4862C91.1422 69.5629 92.4182 67.5546 93.566 65.4729C94.2538 64.2166 95.1546 63.0781 95.9574 61.8845C96.4742 61.1163 97.1646 60.4555 97.3148 59.4629C97.3497 59.2271 97.6379 58.9911 97.8625 58.8285ZM81.7398 76.5551C81.6321 76.5065 81.566 76.3652 81.432 76.2064C81.5054 75.9766 81.542 75.6805 81.6835 75.4463C82.7622 73.6521 83.7045 71.7469 84.9911 70.1141C86.9497 67.6306 88.9401 65.1382 91.584 63.2965C92.589 62.597 93.5593 61.8462 94.5563 61.1337C94.6163 61.101 94.6831 61.0829 94.7514 61.0807C94.8197 61.0785 94.8876 61.0924 94.9495 61.1213C95.031 61.1705 95.1038 61.3914 95.0603 61.4699C94.3997 62.6708 93.761 63.8864 93.034 65.0459C92.0366 66.636 90.964 68.1809 89.9311 69.748C89.4943 70.4113 89.0642 71.076 88.8863 71.8734C88.7211 72.611 88.2596 73.1911 87.6738 73.6196C85.9763 74.8641 84.0516 75.6994 82.1572 76.5824C82.0194 76.6269 81.8698 76.6166 81.7394 76.5534L81.7398 76.5551ZM114.48 120.758C113.22 120.23 111.971 119.669 110.749 119.059C109.784 118.577 108.866 118.003 107.927 117.469C106.988 116.935 106.191 116.19 105.46 115.389C105.072 114.96 104.792 114.445 104.645 113.886C104.125 112.012 103.604 110.139 103.048 108.276C102.639 106.904 102.772 105.571 103.169 104.236C103.309 103.768 103.744 103.606 104.197 103.851C104.452 103.984 104.699 104.132 104.936 104.295C106.399 105.345 107.877 106.361 109.514 107.141C110.528 107.625 111.21 108.445 111.378 109.626C111.48 110.338 111.651 111.041 111.791 111.747L111.856 111.734C112.01 112.511 112.151 113.291 112.317 114.065C112.552 115.137 113.049 116.096 113.68 116.979C114.514 118.147 115.383 119.29 116.224 120.452C116.26 120.51 116.282 120.575 116.289 120.642C116.296 120.71 116.288 120.778 116.265 120.842C116.214 120.948 116.04 121.078 115.939 121.063C115.449 120.99 114.933 120.946 114.479 120.757L114.48 120.758ZM152.474 122.243C152.574 122.266 152.643 122.423 152.727 122.52C152.627 122.601 152.535 122.732 152.423 122.752C152.074 122.821 151.791 122.651 151.801 122.421C151.83 122.362 151.859 122.254 151.891 122.252C152.084 122.217 152.28 122.214 152.474 122.242L152.474 122.243ZM94.8414 93.5528C94.5575 93.1549 94.7716 92.7055 95.2692 92.5598C96.4493 92.2009 97.6985 92.1317 98.9112 92.3581C100.256 92.614 101.607 92.8861 102.908 93.2924C106.143 94.3049 109.354 95.3923 112.455 96.7802C114.645 97.7589 116.609 99.1032 118.577 100.439C119.582 101.137 120.534 101.91 121.424 102.75C123.536 104.708 125.719 106.606 128.138 108.188C129.284 108.936 130.498 109.568 131.693 110.244C132.069 110.457 132.474 110.622 132.841 110.85C134.682 111.989 136.505 113.155 138.352 114.283C139.031 114.692 139.732 115.062 140.452 115.394C142.543 116.371 144.578 117.466 146.546 118.672C147.646 119.348 148.869 119.821 150.034 120.391C150.226 120.488 150.409 120.6 150.582 120.728C150.606 120.755 150.622 120.788 150.631 120.823C150.64 120.858 150.641 120.895 150.633 120.93C150.62 120.991 150.544 121.087 150.5 121.085C149.859 121.054 149.204 121.062 148.57 120.96C146.643 120.647 144.725 120.441 142.757 120.604C141.775 120.685 140.757 120.41 139.756 120.306C139.717 120.302 139.632 120.401 139.631 120.455C139.634 120.49 139.645 120.524 139.665 120.553C139.684 120.583 139.71 120.607 139.741 120.624C140.653 120.833 141.568 121.027 142.481 121.232C142.974 121.342 143.466 121.457 143.953 121.591C144.157 121.647 144.444 121.706 144.524 121.856C144.923 122.594 145.66 122.646 146.337 122.846C146.446 122.878 146.61 123.114 146.588 123.145C146.483 123.3 146.326 123.525 146.182 123.529C144.526 123.578 142.876 123.626 141.263 123.081C140.309 122.758 139.285 122.649 138.33 122.33C137.101 121.92 135.911 121.399 134.705 120.923C134.518 120.85 134.414 120.899 134.425 121.087C134.433 121.122 134.448 121.155 134.469 121.184C134.491 121.213 134.518 121.236 134.549 121.254C135.798 121.976 137.066 122.653 138.448 123.1C138.587 123.145 138.681 123.417 138.728 123.601C138.739 123.653 138.527 123.774 138.407 123.846C138.347 123.886 138.277 123.909 138.205 123.915C136.118 124.003 134.031 124.105 131.942 124.164C131.202 124.184 130.53 123.906 129.947 123.434C128.94 122.615 127.939 121.789 126.93 120.972C126.715 120.799 126.484 120.648 126.259 120.488C126.192 120.829 126.199 121.159 126.461 121.433C126.71 121.694 126.982 121.933 127.229 122.196C127.552 122.54 128.196 122.798 127.873 123.388C127.634 123.827 127.083 123.608 126.673 123.535C124.682 123.203 122.693 122.844 120.705 122.49C119.924 122.35 119.195 122.004 118.592 121.489C117.416 120.522 116.215 119.605 115.515 118.201C115.452 118.07 115.367 117.95 115.264 117.847C113.366 116.024 112.98 113.576 112.532 111.166C112.344 110.155 112.387 110.147 113.613 109.932C113.675 109.919 113.783 109.878 113.785 109.845C113.792 109.719 113.778 109.594 113.742 109.473C113.724 109.413 113.648 109.366 113.59 109.321C112.714 108.686 111.855 108.03 110.959 107.424C109.226 106.254 107.461 105.131 105.733 103.951C105.071 103.513 104.455 103.008 103.896 102.444C102.144 100.611 100.147 99.0659 98.2114 97.4536C96.8681 96.3307 95.851 94.9571 94.8414 93.5528ZM93.7457 96.2142C93.7479 95.9867 93.6915 95.748 93.7694 95.5682C93.8386 95.4092 94.0721 95.1994 94.207 95.2163C94.5504 95.2591 94.9554 95.3288 95.2012 95.5436C97.0879 97.2065 98.9175 98.9342 100.815 100.583C101.912 101.538 102.303 102.682 102.005 104.058C101.659 105.66 101.901 107.198 102.313 108.747C102.588 109.783 102.769 110.849 102.953 111.907C102.971 111.995 102.685 112.142 102.527 112.241C102.486 112.266 102.383 112.224 102.328 112.189C100.279 110.771 98.6099 108.998 97.5286 106.746C97.0345 105.717 96.4656 104.701 96.2665 103.544C96.1917 103.191 96.0594 102.853 95.875 102.543C94.7726 100.556 94.5022 98.3017 93.7457 96.2142Z" fill="white"/>
<path d="M176.369 92.7875C175.405 92.3207 174.391 92.4253 173.383 92.5504C174.345 93.0603 175.352 92.9834 176.369 92.7875Z" fill="white"/>
<path d="M123.817 116.469C123.611 116.128 123.732 115.822 124.023 115.52C124.337 115.192 124.307 114.955 124.038 114.881C123.235 114.672 122.425 114.485 121.618 114.291C122.73 116.432 124.426 118.164 125.697 120.193C125.778 120.322 126.028 120.345 126.223 120.403C126.02 119.407 125.402 118.642 124.803 117.863C124.449 117.417 124.119 116.952 123.817 116.469Z" fill="white"/>
<path d="M121.548 114.278L121.618 114.295C121.607 114.273 121.592 114.251 121.582 114.229L121.548 114.278Z" fill="white"/>
<path d="M126.223 120.408C126.228 120.43 126.238 120.45 126.242 120.472L126.279 120.423C126.264 120.417 126.242 120.413 126.223 120.408Z" fill="white"/>
<path d="M129.92 118.137C130.021 118.189 130.172 118.139 130.3 118.136C130.248 117.952 130.256 117.69 130.133 117.596C129.02 116.767 127.858 116.035 126.413 115.971C126.706 116.235 126.979 116.537 127.31 116.733C128.162 117.237 129.043 117.685 129.92 118.137Z" fill="white"/>
<path d="M126.356 115.921L126.321 115.967C126.353 115.968 126.382 115.973 126.413 115.974C126.393 115.957 126.375 115.937 126.355 115.92L126.356 115.921Z" fill="white"/>
<path d="M135.093 119.173C135.725 119.308 136.357 119.433 136.99 119.56C136.13 118.812 135.031 118.696 133.983 118.443C134.251 118.814 134.646 119.074 135.093 119.173Z" fill="white"/>
<path d="M137.113 119.591L136.987 119.565C137.018 119.592 137.05 119.612 137.079 119.637L137.113 119.591Z" fill="white"/>
<path d="M133.98 118.447C133.962 118.424 133.942 118.404 133.924 118.38L133.89 118.426L133.98 118.447Z" fill="white"/>
<path d="M116.722 111.457C117.096 111.756 117.492 112.027 117.848 112.284C117.978 112.216 118.057 112.2 118.082 112.155C118.093 112.126 118.099 112.095 118.098 112.064C118.096 112.033 118.088 112.003 118.074 111.975C117.805 111.535 117.359 111.336 116.903 111.16C116.836 111.141 116.767 111.129 116.698 111.124C116.705 111.237 116.663 111.411 116.722 111.457Z" fill="white"/>
<path d="M132.487 118.335C132.913 118.392 133.35 118.375 133.783 118.379C133.374 118.202 132.97 118.009 132.549 117.871C132.297 117.792 132.029 117.778 131.77 117.83C131.556 117.875 131.959 118.265 132.487 118.335Z" fill="white"/>
<path d="M133.924 118.38L133.784 118.38L133.89 118.427L133.924 118.38Z" fill="white"/>
<path d="M120.513 113.697C120.543 113.805 120.548 113.992 120.605 114.009C120.876 114.09 121.155 114.142 121.433 114.198C121.194 114.029 120.956 113.858 120.711 113.697C120.662 113.668 120.577 113.697 120.513 113.697Z" fill="white"/>
<path d="M121.434 114.199L121.549 114.278L121.582 114.229L121.434 114.199Z" fill="white"/>
<path d="M137.833 120.027C137.885 120.026 137.936 119.973 137.986 119.943C137.898 119.853 137.822 119.712 137.718 119.686C137.542 119.653 137.364 119.639 137.186 119.644C137.334 119.752 137.482 119.863 137.635 119.964C137.693 120.004 137.762 120.026 137.833 120.027Z" fill="white"/>
<path d="M137.183 119.644L137.11 119.591L137.076 119.641C137.115 119.642 137.15 119.643 137.183 119.644Z" fill="white"/>
<path d="M125.795 115.862C125.813 115.901 125.908 115.919 125.969 115.922C126.061 115.927 126.151 115.923 126.241 115.92L125.986 115.778C125.803 115.679 125.729 115.713 125.795 115.862Z" fill="white"/>
<path d="M126.239 115.921L126.321 115.967L126.355 115.921L126.239 115.921Z" fill="white"/>
<path d="M126.238 115.921C126.148 115.923 126.058 115.928 125.967 115.923C126.058 115.928 126.149 115.923 126.238 115.921Z" fill="white"/>
<path d="M126.357 115.92L126.321 115.968L126.357 115.92Z" fill="white"/>
<path d="M168.239 86.9382L168.23 86.94C169.575 88.1497 171.268 88.3912 172.961 88.6372C172.953 88.6296 172.943 88.6253 172.935 88.6168L172.958 88.6186C171.487 87.7473 169.882 87.2458 168.218 86.9114L168.238 86.9447L168.239 86.9382Z" fill="white"/>
<path d="M168.219 86.9071L168.18 86.8981L168.239 86.9401L168.219 86.9071Z" fill="white"/>
<path d="M173.007 88.6387C172.991 88.6289 172.974 88.6221 172.958 88.6134L172.934 88.6116L173.007 88.6387Z" fill="white"/>
<path d="M172.96 88.6314L173.007 88.6378L172.934 88.6107C172.942 88.6193 172.952 88.6237 172.96 88.6314Z" fill="white"/>
<path d="M168.18 86.8962C168.196 86.9115 168.214 86.9219 168.231 86.9371L168.24 86.9353L168.18 86.8962Z" fill="white"/>
<path d="M168.24 86.9391L168.239 86.9392L168.179 86.8963L168.239 86.9392L168.24 86.9391Z" fill="white"/>
</g>
<defs>
<clipPath id="clip0">
<rect width="252.362" height="114.351" fill="white" transform="translate(0 49.7321) rotate(-11.2018)"/>
</clipPath>
</defs>
</svg>
