<svg width="182" height="106" viewBox="0 0 211 126" fill="none" xmlns="http://www.w3.org/2000/svg">
<path d="M60.6096 51.6407C60.7097 51.9609 60.8979 52.2714 61.1066 52.5536C61.6474 53.283 62.2141 53.9966 62.7781 54.7121C63.2188 55.2709 63.7309 55.796 63.8547 56.4957C63.8856 56.669 64.0527 56.7116 64.2149 56.7797C64.4047 56.8595 64.6086 56.9628 64.7318 57.1041C65.669 58.1741 66.9425 58.9216 68.1521 59.7256C68.7022 60.0982 69.2944 60.4226 69.9199 60.6941C71.136 61.208 72.383 61.6672 73.6257 62.1357C74.5875 62.4972 75.5566 62.8446 76.5328 63.1779C77.6733 63.5653 78.8126 63.987 80.038 64.114C81.6062 64.2766 83.1441 64.6028 84.728 64.6496C84.9443 64.6561 85.1606 64.7154 85.3769 64.746C86.1978 64.861 87.0176 64.9875 87.8411 65.0843C88.6647 65.1812 89.4948 65.2474 90.3216 65.3294C91.8898 65.4847 93.4445 65.6464 94.9635 66.0709C96.045 66.373 97.1552 66.5996 98.227 66.9333C98.3482 66.9727 98.476 66.9952 98.6055 67C98.6476 66.9999 98.6892 66.9918 98.7273 66.9765C98.7654 66.9611 98.7991 66.9388 98.8261 66.911C98.8618 66.8614 98.858 66.7424 98.8137 66.7076C98.6233 66.5579 98.4351 66.3892 98.2042 66.2975C96.8978 65.7729 95.594 65.2488 94.3616 64.5977C93.3947 64.088 92.3608 63.6645 91.408 63.139C90.3021 62.531 89.2396 61.8646 88.2651 61.1C87.9093 60.821 87.5331 60.5617 87.1387 60.3238C86.632 60.0189 86.1983 59.6556 85.7711 59.2742C84.7399 58.353 83.6898 57.4549 82.433 56.7399C80.5177 55.65 78.9787 54.2056 77.4867 52.7222C76.2002 51.4433 74.9884 50.1064 73.5278 48.9604C72.98 48.5308 72.4939 48.0336 71.9018 47.6578C69.7122 46.2676 67.3524 45.116 64.9206 44.0692C63.6947 43.5414 62.439 43.1178 61.0271 43.2165C60.8968 43.2258 60.7643 43.2054 60.6329 43.2068C60.2544 43.2101 59.9553 43.0738 59.7239 42.8245C59.5335 42.6192 59.3329 42.419 59.1647 42.2008C58.7051 41.6058 58.2584 41.0029 57.8128 40.4014C57.7634 40.3392 57.7302 40.2685 57.7155 40.1943C57.7125 40.1245 57.728 40.0551 57.7609 39.9913C57.7738 39.9777 57.7905 39.9673 57.8094 39.9608C57.8283 39.9544 57.8489 39.9523 57.8691 39.9547C61.2218 40.7225 64.6469 41.154 68.0894 41.4918C69.0017 41.5812 69.928 41.647 70.844 41.6049C72.827 41.5122 74.7818 41.7657 76.7486 41.8593C76.9233 41.8706 77.0962 41.8965 77.265 41.9366C77.8598 42.0678 78.4547 42.1911 79.0398 42.3444C80.4998 42.7263 82.0139 42.976 83.3507 43.6633C83.5302 43.7559 83.7692 43.7652 83.9818 43.8092C84.2375 43.8616 84.5074 43.8806 84.748 43.9636C86.3301 44.5164 87.9767 44.9223 89.6597 45.1744C89.9123 45.211 90.2102 45.255 90.3865 45.3917C90.7434 45.6698 91.1701 45.6962 91.594 45.7824C92.4024 45.9469 93.2303 46.0753 94.0036 46.3255C96.7074 47.2008 99.3901 48.1286 102.031 49.1379C102.667 49.3807 103.253 49.719 103.862 50.0132C104.133 50.4558 104.662 50.5693 105.14 50.7482C105.541 50.8992 105.934 51.0679 106.336 51.218C106.768 51.3788 107.201 51.5369 107.688 51.5239C107.346 51.1383 106.86 50.9136 106.39 50.6749C106.204 50.5823 106.007 50.5012 105.811 50.4229C104.789 50.0146 103.819 49.5456 102.949 48.9154C102.392 48.5123 101.834 48.0813 101.11 47.8885C101.157 47.9512 101.195 48.0182 101.224 48.0883C101.256 48.205 101.217 48.3116 101.062 48.3357C100.975 48.3469 100.886 48.3375 100.805 48.3084C99.4747 47.8249 98.1457 47.3382 96.8183 46.8482C96.6617 46.7819 96.5119 46.7044 96.3705 46.6165C96.3386 46.5984 96.2959 46.5424 96.3046 46.5317C96.3435 46.4854 96.4073 46.4047 96.4479 46.4103C97.3969 46.5442 98.3519 46.6591 99.2885 46.8413C99.8498 46.9502 100.296 47.2819 100.719 47.6147C100.723 47.5072 100.685 47.3769 100.744 47.2991C100.782 47.256 100.831 47.2206 100.887 47.1955C100.943 47.1703 101.005 47.156 101.068 47.1536C101.588 47.1698 102.108 47.1967 102.624 47.2495C103.363 47.325 104.064 47.4914 104.668 47.901C104.718 47.934 104.771 47.9627 104.827 47.9868C104.994 48.0605 105.187 48.1059 105.362 48.1721C105.354 48.1633 105.345 48.1559 105.337 48.1466L105.358 48.155C105.344 48.1269 105.331 48.0981 105.32 48.0688C105.203 47.7171 105.266 47.5971 105.565 47.6054C105.781 47.61 106.003 47.6174 106.22 47.6383C107.219 47.7344 108.218 47.8335 109.217 47.9358C109.713 47.9863 110.115 48.2083 110.507 48.4567C111.423 49.0368 112.34 49.6207 113.382 50.0239C114.696 50.5336 116.027 51.0072 117.352 51.4933C117.673 51.611 118.008 51.7 118.32 51.8316C118.41 51.8696 118.46 52.0072 118.487 52.1068C118.495 52.1365 118.37 52.2213 118.294 52.2347C117.483 52.3812 116.672 52.5309 115.854 52.6518C115.638 52.6887 115.415 52.679 115.204 52.6235C114.994 52.568 114.803 52.4684 114.649 52.3339C114.235 51.9938 113.733 51.7625 113.214 51.5545C111.629 50.9196 110.051 50.2713 108.468 49.6337C108.316 49.5725 108.143 49.5456 107.981 49.5044C107.989 49.5109 107.998 49.516 108.007 49.522L107.981 49.5141C108.34 49.9678 108.886 50.1963 109.465 50.352C110.852 50.7259 112.069 51.3863 113.321 51.9878C113.396 52.0261 113.455 52.0826 113.492 52.1499C113.52 52.2175 113.528 52.2899 113.516 52.3608C113.516 52.384 113.455 52.4169 113.417 52.422C113.248 52.4447 113.071 52.491 112.907 52.4683C112.347 52.3969 111.794 52.2954 111.235 52.2162C110.73 52.1448 110.224 52.0846 109.718 52.0207C111.271 52.5767 112.918 52.7788 114.575 52.8775C116.783 53.0086 118.944 52.6458 121.069 52.1916C122.345 51.9196 123.619 51.655 124.916 51.4785C125.692 51.3728 126.484 51.3478 127.253 51.2125C128.064 51.0693 128.858 50.8395 129.659 50.6457C130.123 50.5336 130.586 50.4199 131.049 50.3047C131.47 50.2004 131.883 50.0419 132.312 49.9975C133.502 49.8742 134.588 49.4877 135.699 49.1439C137.02 48.7342 138.186 48.047 139.516 47.6573C140.136 47.4756 140.745 47.269 141.355 47.0595C141.539 46.996 141.577 46.8644 141.504 46.6911C141.313 46.2342 141.363 46.135 141.829 46.1137C143.054 46.0604 144.265 45.8867 145.5 45.9075C146.55 45.9256 147.601 45.8324 148.652 45.7838C149.439 45.7472 150.227 45.6605 151.013 45.6702C152.5 45.6888 153.987 45.6976 155.474 45.7847C156.839 45.8649 158.172 45.9988 159.493 46.287C159.916 46.3797 160.355 46.4145 160.791 46.4622C160.831 46.4608 160.87 46.4509 160.904 46.4334C160.939 46.416 160.968 46.3915 160.988 46.3621C161.015 46.3083 160.994 46.1934 160.946 46.1652C160.735 46.0341 160.511 45.9199 160.276 45.8241C158.275 45.0599 156.221 44.4154 154.264 43.5632C153.399 43.1855 152.577 42.7754 151.848 42.2193C151.028 41.596 150.175 41.0145 149.226 40.5279C148.399 40.1037 147.601 39.6396 146.836 39.1377C144.987 37.9329 143.144 36.7192 141.08 35.7883C140.034 35.3165 139.002 34.8124 137.92 34.4069C136.597 33.9106 135.227 33.5056 133.88 33.0547C133.143 32.8128 132.376 32.6467 131.594 32.5598C130.726 32.4637 129.851 32.4116 128.975 32.4036C127.969 32.3869 126.966 32.3017 125.96 32.2549C124.691 32.1956 123.419 32.1381 122.152 32.2817C118.86 32.6525 115.771 33.6034 112.75 34.7336C111.304 35.2748 109.889 35.8768 108.395 36.3217C108.058 36.4169 107.735 36.5463 107.433 36.7072C106.976 36.9602 106.482 37.0779 105.951 37.1243C105.036 37.2077 104.119 37.2758 103.21 37.394C102.171 37.5288 101.123 37.6525 100.111 37.8838C97.3131 38.5237 94.4871 39.052 91.6448 39.5103C91.3426 39.559 91.0235 39.6641 90.7504 39.5075C90.4011 39.3069 90.0853 39.3866 89.7571 39.5075C89.1422 39.7299 88.496 39.8175 87.8357 39.8546C87.4421 39.8768 87.0495 39.9102 86.6569 39.9473C85.2196 40.078 83.7838 40.2313 82.3443 40.3398C80.641 40.4677 78.9343 40.5608 77.2288 40.6614C76.6604 40.6947 76.0899 40.7077 75.5205 40.7258C74.9938 40.7443 74.6045 40.5094 74.2632 40.2035C74.2419 40.1736 74.2297 40.1394 74.2279 40.1043C74.2261 40.0693 74.2347 40.0343 74.253 40.0029C74.3611 39.8875 74.479 39.7666 74.625 39.6957C75.8433 39.102 77.0725 38.5233 78.2914 37.9306C78.8862 37.6409 79.4978 37.507 80.184 37.6525C80.4355 37.7063 80.7069 37.691 80.9692 37.7063C83.5053 37.8546 86.041 38.0131 88.5782 38.1419C89.1463 38.1638 89.7156 38.1349 90.2767 38.0557C91.0549 37.9542 91.8233 37.7971 92.5944 37.6567C94.4871 37.3115 96.3073 36.7707 98.075 36.096C99.0765 35.7137 100.052 35.3003 100.991 34.8059C102.333 34.0987 103.733 33.4722 105.11 32.8133C105.952 32.4106 106.828 32.0538 107.633 31.6029C109.284 30.6761 110.92 29.7298 112.518 28.74C113.446 28.1654 114.419 27.6644 115.397 27.1644C116.486 26.6051 117.565 26.0305 118.653 25.4689C119.441 25.0625 120.213 24.6264 121.032 24.2752C122.049 23.8396 123.108 23.4767 124.15 23.0851C124.51 22.9498 124.88 22.8335 125.232 22.6885C125.403 22.6185 125.488 22.4716 125.387 22.3141C125.252 22.1032 125.325 21.9623 125.549 21.8562C125.628 21.8224 125.708 21.7934 125.792 21.7696C126.283 21.6106 126.779 21.4605 127.266 21.2909C127.587 21.1763 127.901 21.048 128.207 20.9062C128.261 20.8817 128.301 20.7737 128.286 20.7163C128.27 20.6588 128.168 20.586 128.116 20.5925C127.814 20.6305 127.501 20.656 127.22 20.7482C126.231 21.0726 125.202 21.2547 124.166 21.4155C123.563 21.5082 122.961 21.6129 122.356 21.6982C120.065 22.021 117.774 22.3408 115.482 22.6574C115.395 22.6695 115.308 22.675 115.221 22.6838C113.22 22.885 111.203 22.9382 109.208 23.1815C107.995 23.3294 106.777 23.4494 105.572 23.6306C104.494 23.7923 103.436 24.0435 102.359 24.214C101.154 24.4049 99.9401 24.5643 98.7255 24.7098C97.5494 24.8488 96.416 25.1403 95.2755 25.4012C93.4001 25.8303 91.6762 26.5782 89.9669 27.3475C88.8778 27.8364 87.8985 28.4721 86.8846 29.0621C85.5 29.8624 84.3156 30.8913 83.4004 32.0885C82.9678 32.6511 82.5893 33.247 82.0302 33.7368C81.3215 34.3541 80.7339 35.0655 80.29 35.8434C80.1743 36.0455 80.0288 36.2355 79.9185 36.4398C79.7563 36.7396 79.4805 36.9268 79.116 36.9598C78.6537 37.0015 78.2995 37.197 77.9458 37.4231C76.8167 38.1465 75.5535 38.6743 74.3119 39.2304C74.0745 39.337 73.8301 39.413 73.5592 39.312C73.2737 39.2058 73.0444 39.312 72.8481 39.4737C72.5966 39.6827 72.3749 39.9195 72.1148 40.1197C71.5768 40.5339 70.9706 40.805 70.2108 40.7541C69.5992 40.7128 68.9822 40.7249 68.3722 40.6702C67.1955 40.5645 66.0178 40.4556 64.8497 40.2995C63.639 40.1363 62.4163 39.989 61.2396 39.7008C59.4286 39.2564 57.6371 38.742 55.8726 38.1766C53.9021 37.5413 51.9359 36.9032 49.9129 36.4009C49.7034 36.3456 49.5006 36.2731 49.3073 36.1845C49.2747 36.1636 49.2481 36.1367 49.2294 36.1059C49.2107 36.075 49.2003 36.0409 49.1991 36.0061C49.1991 35.9412 49.2505 35.8397 49.3073 35.8207C49.7539 35.6697 50.2152 35.5492 50.6591 35.3911C51.4016 35.1265 52.1733 35.0246 52.9703 35.0306C53.8896 35.0371 54.8116 35.0306 55.7325 35.0232C55.7953 35.0232 55.8575 34.9662 55.9202 34.9356C55.8526 34.8921 55.785 34.848 55.7163 34.8059C55.4605 34.6483 55.5617 34.4491 55.8115 34.3888C56.0613 34.3286 56.3182 34.2567 56.5772 34.228C57.8085 34.089 58.936 33.6562 60.0921 33.3151C61.8301 32.8021 63.5406 32.2224 65.271 31.6895C65.561 31.607 65.867 31.5736 66.1719 31.5913C66.4552 31.6043 66.6867 31.5612 66.9019 31.4124C67.4967 31.0032 68.1949 30.7854 68.9076 30.5913C69.2001 30.5116 69.4938 30.4346 69.782 30.3452C69.8301 30.3304 69.8534 30.2572 69.8901 30.2108C69.8501 30.2002 69.8085 30.177 69.7712 30.1812C69.384 30.2275 68.9984 30.2896 68.6096 30.3151C68.5507 30.3193 68.4079 30.1506 68.4241 30.0834C68.4658 29.9388 68.5447 29.8041 68.655 29.689C69.3526 28.9189 70.1638 28.2358 70.9516 27.5365C71.3767 27.1593 71.8169 26.7775 72.3257 26.4911C73.2115 25.9902 73.9799 25.379 74.7326 24.7525C75.0636 24.4772 75.4124 24.2988 75.8525 24.2103C77.6019 23.8599 79.348 23.4999 81.0979 23.1445C81.1827 23.1254 81.2709 23.12 81.358 23.1287C81.4391 23.1394 81.544 23.163 81.5851 23.213C81.6017 23.2444 81.609 23.2787 81.6064 23.3131C81.6039 23.3474 81.5916 23.3807 81.5705 23.41C81.4601 23.5252 81.3378 23.6316 81.205 23.7279C80.1553 24.5245 79.1003 25.3155 78.0529 26.1144C77.3975 26.6121 76.7489 27.1155 76.1072 27.6246C75.945 27.7506 75.7795 27.8846 75.6746 28.0417C75.3502 28.5375 74.8197 28.7831 74.2265 28.9545C73.7706 29.0857 73.3072 29.1951 72.8443 29.3123C72.2565 29.4615 71.6665 29.6052 71.082 29.7627C71.0203 29.7794 70.9873 29.8744 70.9414 29.9332C71.0127 29.9638 71.0949 30.0319 71.1539 30.0194C72.8551 29.6557 74.5336 29.228 76.164 28.6719C77.7517 28.1302 79.3345 27.5792 80.9227 27.0389C81.08 26.9856 81.2899 26.9142 81.4213 26.961C81.8679 27.1209 82.2032 26.9545 82.5028 26.7293C83.1804 26.2196 84.0169 25.9879 84.828 25.7098C85.5997 25.4462 86.3914 25.226 87.1657 24.9684C88.187 24.6286 89.2033 24.2775 90.2145 23.9151C90.7391 23.7265 91.2447 23.498 91.7589 23.2895C92.1148 23.1445 92.4673 22.9915 92.8296 22.859C92.9784 22.8048 93.2038 22.7154 93.2823 22.884C93.3217 22.9688 93.1741 23.1621 93.0541 23.2506C92.0942 23.9633 91.1225 24.6649 90.1496 25.3651C89.9777 25.4817 89.7983 25.59 89.6121 25.6894C88.3684 26.3961 87.1079 27.0755 85.7495 27.6125C85.4717 27.7238 85.201 27.8476 84.9384 27.9833C83.8476 28.5393 82.7656 29.1116 81.6711 29.6645C79.3264 30.8489 76.8708 31.8485 74.3995 32.8156C73.0826 33.331 71.7142 33.7435 70.3108 34.0482C68.2251 34.5028 66.1319 34.8925 63.9672 34.9162C63.7049 34.9189 63.4438 34.9662 63.1815 34.9769C62.3503 35.0102 61.5187 35.0487 60.687 35.0621C59.5914 35.0802 58.4947 35.0746 57.3992 35.0848C57.3573 35.0867 57.3163 35.0952 57.278 35.1099C57.238 35.1233 57.1975 35.14 57.1574 35.1516C57.2061 35.1706 57.2537 35.1979 57.3018 35.2183C57.3468 35.2409 57.3966 35.2556 57.4484 35.2614C57.7977 35.286 58.1514 35.3026 58.4996 35.3008C60.429 35.2901 62.3579 35.2656 64.2857 35.2609C65.3424 35.2609 66.379 35.1386 67.4189 34.9885C69.7182 34.6557 71.9666 34.1738 74.1113 33.3823C75.1566 32.9963 76.151 32.5065 77.205 32.1399C79.1641 31.4583 80.9854 30.5584 82.7775 29.6177C84.1608 28.8915 85.5802 28.2275 87.0105 27.5787C88.4408 26.93 89.8766 26.2835 91.1203 25.366C92.3143 24.4855 93.5375 23.6296 94.752 22.7677C95.2241 22.4327 95.6951 22.0944 96.1899 21.7853C96.9681 21.2992 97.7614 20.8307 98.5563 20.3641C99.8541 19.6004 101.132 18.7983 102.642 18.3441C102.722 18.3145 102.794 18.2724 102.855 18.2199C102.882 18.1991 102.909 18.1356 102.892 18.1217C102.843 18.0753 102.784 18.0184 102.715 18.0058C102.629 17.9937 102.54 18.0006 102.457 18.0258C101.415 18.3135 100.355 18.5647 99.3355 18.9034C96.994 19.6815 94.5352 20.0823 92.1148 20.6036C90.3735 20.979 88.609 21.2733 86.8613 21.6282C85.1136 21.9832 83.3788 22.3799 81.6322 22.7362C76.9816 23.6843 72.3679 24.7288 67.8326 26.0263C66.8338 26.3123 65.8361 26.594 64.8741 26.9592C64.1538 27.2326 63.4621 27.5616 62.7354 27.8234C61.3546 28.312 60.0883 29.0107 58.9976 29.8855C58.8046 30.0388 58.6009 30.182 58.3877 30.3142C57.4643 30.89 56.6347 31.5689 55.9207 32.3327C54.7056 33.6358 53.0055 34.2095 51.2253 34.652C50.7613 34.7674 50.306 34.8485 49.8853 35.0784C49.3636 35.3594 48.7772 35.5407 48.1662 35.6099C47.9132 35.64 47.6255 35.6595 47.3946 35.5872C46.6083 35.3416 45.8231 35.1377 44.972 35.1497C44.7173 35.1534 44.4545 35.0709 44.2052 35.0014C42.9025 34.6386 41.5603 34.4806 40.1998 34.399C39.5887 34.3624 38.982 34.273 38.3715 34.2238C37.4122 34.1469 36.4523 34.0607 35.4903 34.0213C34.4396 33.9782 33.3862 33.9681 32.3339 33.975C31.2383 33.9806 30.1352 33.9588 29.0499 34.0612C27.3081 34.2257 25.5744 34.4634 23.8446 34.7062C22.3726 34.9125 20.9207 35.2002 19.5347 35.6919C18.6041 36.0214 17.6675 36.3365 16.7352 36.6687C15.551 37.0918 14.5203 37.7267 13.5399 38.4218C13.3758 38.5466 13.2324 38.69 13.1138 38.8481C13.0368 38.9388 12.9969 39.0488 13.0002 39.1609C13.0121 39.2494 13.1224 39.3926 13.2024 39.3972C13.3768 39.4071 13.5514 39.38 13.7108 39.3184C14.7562 38.9295 15.797 38.5338 16.8331 38.1312C18.4694 37.4927 20.1036 36.8638 21.8773 36.5297C23.1589 36.2883 24.4378 36.02 25.6734 35.6266C26.5035 35.3606 27.3703 35.2758 28.2534 35.2628C28.8347 35.2544 29.3776 35.3249 29.9032 35.5617C30.2866 35.7345 30.7008 35.8861 31.1226 35.9639C33.137 36.3286 35.1551 36.6789 37.1791 36.9987C37.6393 37.0714 38.1303 37.0019 38.6067 36.9927C38.6289 36.9927 38.6608 36.944 38.6667 36.9153C38.6727 36.8865 38.6538 36.8226 38.637 36.8184C38.2942 36.7684 37.9492 36.6873 37.6052 36.6887C36.8482 36.6924 36.1268 36.545 35.4 36.4051C34.2904 36.1914 33.178 35.988 32.0717 35.7614C31.5623 35.6581 31.0388 35.5672 30.6165 35.273C30.5694 35.2401 30.5759 35.1414 30.5748 35.0728C30.576 35.0546 30.5823 35.037 30.5931 35.0213C30.6039 35.0057 30.619 34.9925 30.637 34.9829C30.7993 34.9342 30.9653 34.8754 31.1351 34.8564C32.9239 34.6562 34.7198 34.7688 36.5129 34.7873C36.6 34.7873 36.687 34.8063 36.7741 34.8138C37.5582 34.8809 38.3455 34.9259 39.1253 35.02C39.8613 35.1089 40.5945 35.2285 41.3175 35.3759C41.6588 35.4454 41.9843 35.5214 42.345 35.5246C43.102 35.5311 43.8088 35.7378 44.4864 36.014C44.5405 36.0353 44.5772 36.1419 44.567 36.2016C44.5467 36.2719 44.4968 36.3333 44.4269 36.374C44.352 36.4131 44.2673 36.4362 44.1798 36.4412C43.0474 36.5469 41.914 36.647 40.7817 36.7531C40.4788 36.7813 40.1771 36.8193 39.8786 36.8694C39.8278 36.8777 39.7964 36.9718 39.7564 37.0265C39.7948 37.045 39.8342 37.0812 39.8705 37.0788C41.0466 37.0038 42.2358 37.1252 43.4027 36.8773C44.0392 36.7429 44.7005 36.6887 45.3392 36.5659C46.1476 36.4111 46.9312 36.5659 47.6617 36.7846C48.5237 37.0436 49.3548 37.4079 50.1438 37.8068C50.7927 38.1345 51.4843 38.3569 52.1565 38.6266C52.4745 38.754 52.7989 38.7791 53.1666 38.7656C54.219 38.7327 55.1518 39.014 55.8055 39.7818C56.0635 40.0849 56.3312 40.3843 56.5691 40.6971C57.2613 41.6118 58.0026 42.4964 58.8457 43.312C59.2242 43.6762 59.3648 44.0595 59.3643 44.5386C59.3694 45.176 59.4166 45.8127 59.5054 46.4455C59.6136 47.2648 59.8007 48.0762 59.8969 48.896C60.0089 49.8394 60.3263 50.7366 60.6096 51.6407ZM80.7686 36.2197C80.7075 36.1562 80.7053 35.9926 80.7594 35.9157C81.0752 35.4671 81.3699 34.9991 81.756 34.5969C82.5358 33.7841 83.3458 32.9949 83.9315 32.0602C84.0329 31.8929 84.1657 31.7411 84.3246 31.6107C85.1601 30.9527 85.8598 30.1742 86.8121 29.6181C87.6075 29.1547 88.3549 28.6394 89.1725 28.196C90.2172 27.6292 91.3317 27.2001 92.4376 26.7525C94.4205 25.9443 96.5244 25.3749 98.6893 25.0606C101.108 24.7145 103.489 24.1968 105.927 23.9424C106.882 23.8428 107.819 23.6287 108.772 23.5073C109.766 23.3808 110.767 23.29 111.768 23.2079C112.595 23.1403 113.428 23.1287 114.256 23.055C114.994 22.9892 115.726 22.8738 116.461 22.777C117.933 22.5845 119.404 22.391 120.874 22.1963C121.523 22.1106 122.172 22.0207 122.734 21.9443C122.909 21.9707 122.995 21.979 123.079 21.998C123.119 22.0068 123.187 22.0369 123.187 22.0536C123.181 22.1227 123.175 22.207 123.127 22.2543C123.038 22.3366 122.936 22.408 122.824 22.4665C122.09 22.8757 121.368 23.3006 120.612 23.6806C120.125 23.9244 119.604 24.1468 119.066 24.2872C117.306 24.7497 115.516 25.1237 113.705 25.4072C112.24 25.6334 110.768 25.8382 109.347 26.233C108.597 26.4411 107.843 26.6376 107.096 26.854C106.391 27.0585 105.69 27.2733 104.992 27.4986C103.803 27.8822 102.616 28.2673 101.438 28.6737C101.075 28.7993 100.739 28.987 100.401 29.1612C98.593 30.0936 96.6863 30.8508 94.7272 31.5139C93.3012 31.9963 91.8649 32.4555 90.4444 32.9504C89.511 33.2748 88.5988 33.6418 87.6762 33.9889C86.2335 34.532 84.7967 35.0885 83.3442 35.6108C82.6185 35.8722 81.8658 36.0788 81.1184 36.2929C81.0157 36.3235 80.8313 36.285 80.7686 36.2197ZM80.6718 37.3726C80.5793 37.3611 80.4847 37.2531 80.4328 37.1706C80.4133 37.14 80.4966 37.0316 80.5609 36.9982C80.7118 36.9237 80.8688 36.8588 81.0308 36.8041C83.2041 36.0093 85.3672 35.1928 87.5551 34.4287C90.3103 33.4662 93.047 32.4653 95.8444 31.5899C97.2419 31.1462 98.5867 30.5892 99.8606 29.9263C101.361 29.1517 102.941 28.497 104.581 27.9703C105.687 27.6158 106.816 27.3155 107.934 26.9874C108.595 26.7928 109.252 26.5847 109.917 26.3952C110.33 26.277 110.747 26.1241 111.174 26.0884C113.002 25.9342 114.82 25.6986 116.619 25.3827C116.663 25.3804 116.707 25.3832 116.75 25.391C116.783 25.41 116.826 25.4262 116.863 25.4443C116.896 25.4566 116.923 25.4788 116.938 25.5069C116.947 25.5423 116.945 25.5788 116.933 25.6136C116.922 25.6483 116.901 25.6802 116.872 25.7066C116.567 25.9173 116.248 26.1131 115.917 26.2928C115.355 26.5838 114.773 26.8452 114.204 27.1269C113.862 27.2956 113.504 27.4513 113.2 27.6603C111.424 28.8897 109.464 29.8925 107.565 30.9638C105.851 31.9314 104.008 32.7312 102.22 33.6052C101.346 34.0325 100.458 34.4393 99.5967 34.8865C97.5548 35.9458 95.355 36.6618 93.0427 37.1358C92.1061 37.3277 91.1587 37.4801 90.2243 37.6799C89.6705 37.7936 89.1 37.8354 88.5317 37.8041C86.4768 37.7137 84.4219 37.6386 82.3671 37.5427C81.7982 37.5135 81.2342 37.4435 80.6718 37.3726ZM124.289 50.9595C124.286 51.0179 124.205 51.0767 124.15 51.1291C124.119 51.1562 124.08 51.1752 124.037 51.1838C122.974 51.3946 121.917 51.6388 120.843 51.7959C120.368 51.858 119.882 51.8248 119.424 51.6991C116.966 51.0243 114.534 50.2862 112.318 49.1202C111.988 48.9465 111.697 48.7162 111.399 48.4988C111.353 48.4655 111.345 48.3505 111.377 48.2959C111.398 48.2661 111.428 48.2411 111.462 48.2228C111.497 48.2045 111.536 48.1935 111.577 48.1907C112.143 48.2171 112.708 48.2569 113.274 48.2931C113.274 48.3079 113.274 48.3232 113.274 48.3394C113.711 48.3394 114.149 48.3255 114.585 48.344C114.888 48.357 115.216 48.3612 115.485 48.4631C116.144 48.7138 116.837 48.7574 117.534 48.7875C118.105 48.8041 118.662 48.9373 119.16 49.1759C120.35 49.7588 121.652 50.0739 122.962 50.3765C123.378 50.4724 123.773 50.6305 124.173 50.7741C124.235 50.7945 124.293 50.8969 124.289 50.9595ZM129.704 49.8552C129.633 49.9405 129.578 50.048 129.483 50.105C129.388 50.162 129.242 50.1879 129.115 50.2134C128.477 50.3418 127.839 50.4706 127.199 50.5892C126.513 50.718 125.799 50.6928 125.128 50.516C123.874 50.1916 122.614 49.8895 121.362 49.5591C121.038 49.4729 120.734 49.32 120.425 49.1921C120.407 49.1808 120.394 49.166 120.385 49.1491C120.377 49.1321 120.374 49.1136 120.376 49.0952C120.408 49.0322 120.449 48.9423 120.51 48.9265C120.676 48.8845 120.847 48.8599 121.02 48.8533C121.675 48.8251 122.33 48.807 122.984 48.7829C124.401 48.5943 125.747 48.7792 127.085 49.2254C127.849 49.4803 128.688 49.5697 129.492 49.7393C129.569 49.7556 129.634 49.8153 129.704 49.8552ZM136.248 47.8478C136.313 47.8904 136.395 47.9404 136.414 47.9997C136.432 48.0591 136.402 48.1735 136.354 48.193C135.721 48.446 135.085 48.6939 134.443 48.9289C133.11 49.4164 131.695 49.4386 130.305 49.2996C129.314 49.1981 128.29 49.1786 127.331 48.8765C127.21 48.8406 127.099 48.7854 127.002 48.7138C126.969 48.6879 126.99 48.5461 127.029 48.5285C127.18 48.4547 127.345 48.4039 127.516 48.3783C128.602 48.262 129.69 48.1587 130.777 48.0507C131.301 48.0248 131.812 47.9673 132.345 48.0827C132.621 48.1425 132.943 48.0461 133.245 48.0252C134.203 47.9594 135.162 47.8953 136.121 47.8329C136.164 47.8255 136.21 47.8305 136.25 47.8473L136.248 47.8478ZM140.568 46.2018C140.57 46.2302 140.57 46.2586 140.568 46.287H140.351V46.1943C140.426 46.1957 140.498 46.1957 140.569 46.2013L140.568 46.2018ZM136.8 46.3514C137.055 46.4034 137.304 46.4754 137.543 46.5665C137.597 46.5855 137.622 46.6791 137.641 46.7425C137.647 46.7611 137.587 46.8139 137.554 46.8185C136.908 46.9112 136.265 47.0257 135.614 47.0873C133.916 47.2477 132.234 47.5289 130.517 47.5507C130.126 47.5558 129.735 47.6304 129.344 47.6744C127.434 47.8904 125.532 48.1615 123.601 48.2226C122.465 48.2583 121.327 48.3339 120.189 48.3728C119.266 48.4081 118.343 48.3008 117.465 48.0563C117.01 47.9238 116.523 47.8938 116.05 47.9692C115.672 48.0271 115.258 47.9909 114.874 47.9298C114.097 47.8115 113.308 47.7561 112.519 47.7643C112.387 47.7649 112.255 47.7592 112.124 47.7472C110.383 47.5832 108.641 47.414 106.899 47.2523C105.462 47.1193 104.025 46.9937 102.588 46.8653C102.196 46.8301 101.799 46.819 101.411 46.7606C99.1259 46.4143 96.8415 46.0617 94.5584 45.7027C94.4296 45.6869 94.3044 45.6539 94.1875 45.6049C94.1334 45.5785 94.1075 45.4891 94.0874 45.4237C94.0881 45.4061 94.0938 45.3889 94.1041 45.3736C94.1144 45.3583 94.1289 45.3454 94.1464 45.3361C94.2579 45.2815 94.3769 45.2388 94.5006 45.2092C96.2577 44.8882 98.0157 44.5704 99.7746 44.256C100.673 44.0947 101.568 43.9191 102.472 43.7856C103.031 43.7036 103.602 43.6813 104.168 43.6466C104.823 43.6049 105.488 43.6197 106.134 43.5344C107.179 43.3954 108.228 43.363 109.28 43.3389C109.499 43.3338 109.725 43.3588 109.937 43.3236C111.198 43.1141 112.471 43.2082 113.579 43.2036C115.41 43.1466 117.063 43.3014 118.713 43.5002C120.014 43.6572 121.324 43.7643 122.616 43.9636C125.289 44.3769 127.952 44.831 130.619 45.2796C132.682 45.6267 134.742 45.9881 136.802 46.3514H136.8ZM150.964 42.743C151.59 42.768 152.136 42.9163 152.653 43.2578C153.13 43.572 153.708 43.7796 154.255 44.008C154.997 44.3167 155.754 44.5984 156.499 44.901C156.543 44.9186 156.548 45.0224 156.553 45.0864C156.553 45.1054 156.486 45.1489 156.455 45.1448C155.983 45.0813 155.5 45.0493 155.043 44.9367C153.283 44.5029 151.528 44.0488 149.777 43.5877C149.365 43.4793 148.97 43.3185 148.575 43.1679C148.521 43.1475 148.481 43.0405 148.49 42.9798C148.5 42.919 148.571 42.8231 148.628 42.8148C149.056 42.7555 149.486 42.7142 149.818 42.6758C150.269 42.704 150.617 42.7314 150.964 42.743ZM146.476 40.1095C146.605 40.1234 146.741 40.1966 146.855 40.1757C147.726 40.0205 148.366 40.425 149.007 40.8175C149.503 41.1211 149.989 41.4366 150.471 41.7564C150.525 41.7911 150.548 41.8954 150.532 41.957C150.517 42.0187 150.439 42.1044 150.379 42.11C149.206 42.2216 148.034 42.3315 146.86 42.4195C146.605 42.4385 146.334 42.3949 146.085 42.3366C144.355 41.9311 142.712 41.3111 141.047 40.7476C140.981 40.7253 140.891 40.6085 140.909 40.5803C140.968 40.4887 141.05 40.4096 141.15 40.3486C141.225 40.3095 141.31 40.2873 141.398 40.2842C142.569 40.1739 143.739 40.0664 144.947 39.9552C145.442 40.0034 145.961 40.0534 146.479 40.1095H146.476ZM138.154 34.912C138.753 35.1414 139.332 35.4083 139.917 35.6632C139.995 35.6975 140.062 35.7484 140.111 35.811C140.158 35.8721 140.182 35.9447 140.177 36.0181C140.169 36.0798 140.109 36.1775 140.054 36.1868C139.454 36.292 138.851 36.3819 138.251 36.4792C137.951 36.5255 137.648 36.5673 137.357 36.6405C137.091 36.7072 136.963 36.8949 136.894 37.1131L136.914 37.1187L136.884 37.1405C137.789 37.0177 138.677 36.8101 139.604 36.7915C139.999 36.781 140.389 36.7128 140.757 36.59C141.263 36.4217 141.691 36.5103 142.118 36.7392C142.749 37.077 143.391 37.3986 144.007 37.7549C144.656 38.1321 145.289 38.5367 145.917 38.9422C146.049 39.0274 146.139 39.1637 146.238 39.2828C146.298 39.3541 146.192 39.54 146.089 39.5464C145.873 39.5603 145.657 39.5752 145.441 39.5761C143.555 39.5872 141.682 39.6831 139.864 40.1563C139.561 40.235 139.273 40.2633 138.964 40.1943C137.229 39.8069 135.5 39.4065 133.838 38.818C133.719 38.7758 133.581 38.7253 133.513 38.641C133.481 38.5972 133.46 38.5481 133.452 38.4968C133.444 38.4456 133.448 38.3935 133.465 38.3439C133.508 38.2512 133.628 38.1701 133.733 38.1094C134.247 37.8156 134.815 37.627 135.415 37.5015C135.913 37.3977 136.4 37.2531 136.891 37.1252C136.891 37.121 136.894 37.1173 136.896 37.1131C136.694 37.0645 136.486 36.9695 136.291 36.9866C135.016 37.0992 133.776 37.3231 132.706 37.9802C132.334 38.2091 131.949 38.337 131.478 38.2359C129.992 37.9162 128.463 37.7485 127.005 37.3291C126.763 37.2537 126.535 37.1475 126.33 37.014C126.217 36.9435 126.552 36.653 126.95 36.5265C128.879 35.912 130.798 35.2753 132.859 35.0376C133.374 34.9783 133.87 34.7994 134.373 34.6766C136.194 34.2327 136.396 34.2391 138.154 34.912ZM132.775 33.1636C133.284 33.2683 133.782 33.409 134.264 33.5844C134.548 33.6923 135.098 33.6617 135.008 34.0621C134.948 34.3337 134.49 34.2382 134.197 34.2572C134.153 34.2573 134.11 34.2614 134.067 34.2697C132.189 34.7665 130.223 34.9648 128.37 35.5617C127.267 35.9176 126.123 36.1752 125.079 36.6669C124.647 36.8717 124.175 36.8884 123.678 36.8152C122.386 36.6252 121.088 36.4597 119.79 36.3017C119.315 36.2438 118.831 36.2443 118.353 36.1975C118.096 36.1668 117.843 36.1165 117.596 36.0473C117.554 36.0362 117.536 35.9292 117.527 35.862C117.53 35.8438 117.537 35.8265 117.55 35.8114C117.562 35.7964 117.578 35.784 117.597 35.7753C118.69 35.3119 119.779 34.8351 120.884 34.3911C121.397 34.1849 121.929 33.9926 122.477 33.874C124.086 33.526 125.702 33.1979 127.315 32.8647C127.942 32.7354 128.619 32.7878 129.272 32.7577C130.455 32.7707 131.631 32.9067 132.775 33.1636ZM109.681 36.5886C109.662 36.5761 109.644 36.5603 109.627 36.5496C109.639 36.5344 109.649 36.5149 109.661 36.4977C109.67 36.4817 109.684 36.4683 109.702 36.4593C110.379 36.197 111.082 35.9769 111.732 35.6715C113.584 34.8036 115.579 34.2387 117.551 33.6279C119.454 33.0385 121.442 32.7711 123.449 32.6131C123.66 32.5964 123.879 32.6464 124.093 32.6719C124.129 32.6761 124.191 32.7183 124.188 32.7373C124.175 32.8049 124.163 32.8976 124.109 32.9296C123.999 32.9881 123.879 33.0315 123.753 33.0579C122.915 33.2692 122.081 33.4931 121.237 33.6812C120.032 33.95 118.992 34.5116 117.926 35.0251C117.549 35.2151 117.201 35.4447 116.89 35.7086C116.543 35.9991 116.081 36.1677 115.596 36.1812C115.029 36.2072 114.461 36.2239 113.946 36.2429C112.694 36.133 111.546 36.418 110.379 36.5589C110.163 36.5849 109.947 36.5992 109.734 36.6108C109.713 36.6092 109.695 36.6013 109.681 36.5886ZM108.545 36.7739C108.579 36.7545 108.613 36.7206 108.647 36.7202C108.681 36.7197 108.715 36.7535 108.75 36.7725C108.715 36.792 108.681 36.8268 108.646 36.8272C108.612 36.8277 108.577 36.7939 108.543 36.7744L108.545 36.7739ZM112.502 37.381C112.25 37.3462 112.01 37.2494 111.766 37.1743C111.748 37.1653 111.733 37.1524 111.722 37.1369C111.711 37.1215 111.705 37.1039 111.704 37.0858C111.715 37.0209 111.728 36.9218 111.777 36.9004C112.301 36.6812 112.867 36.6419 113.44 36.64C114.228 36.6377 115.016 36.64 115.804 36.64C115.804 36.6321 115.804 36.6238 115.804 36.6159C116.067 36.6159 116.332 36.6326 116.592 36.6131C118.091 36.5028 119.557 36.7572 121.033 36.8963C121.555 36.9454 122.108 36.938 122.585 37.0932C123.627 37.4315 124.728 37.4042 125.786 37.5904C127.666 37.9213 129.566 38.2128 131.383 38.7772C131.545 38.8325 131.717 38.8648 131.891 38.8727C132.609 38.8819 133.263 39.0951 133.915 39.3171C135.014 39.6915 136.123 40.0321 137.276 40.2768C137.774 40.3829 138.366 40.3898 138.721 40.7592C139.153 41.2086 139.7 40.8226 140.191 40.9909C141.774 41.5353 143.403 41.9797 144.997 42.5025C145.382 42.6285 145.671 42.9659 146.055 43.097C146.406 43.217 146.881 43.097 147.207 43.242C148.819 43.9515 150.566 44.3079 152.275 44.7666C152.357 44.7889 152.421 44.9186 152.448 45.0085C152.459 45.0423 152.348 45.1364 152.28 45.1475C152.066 45.1844 151.849 45.2059 151.631 45.2119C150.187 45.2476 148.745 45.2842 147.309 45.4524C146.66 45.5284 145.999 45.5132 145.342 45.5289C144.03 45.5595 142.717 45.6156 141.406 45.6003C140.095 45.585 138.79 45.5359 137.51 45.2068C135.919 44.7986 134.284 44.5173 132.697 44.097C129.767 43.3254 126.847 42.5557 124.192 41.1683C122.551 40.3097 120.811 39.5868 119.098 38.8333C118.597 38.6132 118.043 38.4626 117.496 38.3407C115.845 37.9676 114.189 37.6159 112.5 37.3819L112.502 37.381ZM88.6831 40.5784C89.9809 40.3931 91.2787 40.2151 92.5679 40.0103C93.3845 39.881 94.2134 39.7661 94.9986 39.5446C96.6296 39.0844 98.3027 38.8194 99.9925 38.6099C101.768 38.3898 103.539 38.1465 105.292 37.818C106.319 37.6243 107.376 37.6053 108.428 37.6623C109.737 37.7336 111.046 37.8138 112.353 37.9028C112.658 37.9296 112.961 37.9738 113.259 38.0348C114.201 38.2072 115.136 38.4083 116.082 38.5585C117.257 38.7438 118.358 39.0923 119.415 39.5603C120.698 40.1285 121.991 40.6781 123.274 41.2439C123.467 41.3287 123.63 41.4621 123.811 41.5682C123.955 41.6517 124.096 41.7619 124.257 41.7999C125.833 42.1595 127.183 42.9774 128.727 43.4001C129.31 43.5595 129.879 43.7573 130.466 43.9056C132.607 44.4469 134.752 44.9742 136.896 45.509C137.105 45.5613 137.31 45.6285 137.515 45.6943C137.548 45.7165 137.571 45.7482 137.58 45.7838C137.522 45.8301 137.457 45.895 137.391 45.8973C137.217 45.9041 137.042 45.8929 136.871 45.8639C134.986 45.5247 133.107 45.1587 131.218 44.8445C128.941 44.464 126.686 43.9914 124.385 43.7152C123.129 43.5646 121.889 43.3204 120.639 43.1355C120.209 43.072 119.769 43.0622 119.333 43.0247C118.724 42.9719 118.117 42.9098 117.508 42.8616C116.854 42.8097 116.2 42.7508 115.545 42.7258C112.872 42.6243 110.2 42.723 107.533 42.8431C105.437 42.9357 103.34 43.0678 101.257 43.3352C100.133 43.4798 98.9921 43.5256 97.8619 43.6406C97.2968 43.6962 96.7367 43.7847 96.1856 43.9056C95.6383 44.0275 95.0808 44.1633 94.5817 44.3825C94.0348 44.6216 93.4301 44.7473 92.8161 44.7495C92.3343 44.7569 91.8509 44.7495 91.3718 44.7852C90.7577 44.8334 90.1392 44.7531 89.5694 44.5511C87.9071 43.9598 86.1578 43.5961 84.456 43.1086C83.2123 42.7518 82.015 42.2708 80.7156 42.0548C80.2002 41.9691 79.6881 41.8653 79.1804 41.7504C78.9873 41.7068 78.7429 41.704 78.6645 41.4821C78.825 41.4303 78.9885 41.3857 79.1544 41.3486C80.0115 41.191 80.8844 41.1046 81.7609 41.0905C82.1967 41.0849 82.6315 41.021 83.0673 40.9909C83.7649 40.9422 84.463 40.8982 85.0016 40.8639C86.3551 40.9668 87.5151 40.7466 88.6809 40.5817L88.6831 40.5784ZM90.6012 21.3126C90.8693 21.1889 91.1546 21.0946 91.4502 21.0318C92.8918 20.7311 94.3384 20.4452 95.7838 20.1583C95.9525 20.1299 96.1236 20.1127 96.2954 20.1069C96.3246 20.1069 96.3716 20.1444 96.3846 20.1732C96.3976 20.2019 96.4008 20.2658 96.3786 20.2797C96.0315 20.5036 95.6973 20.7482 95.3247 20.9373C94.2729 21.4702 93.206 21.9818 92.1429 22.4985C90.8898 23.1094 89.5751 23.6226 88.2148 24.0319C87.6827 24.1917 87.1933 24.4536 86.6666 24.6297C86.0177 24.8461 85.3558 25.0254 84.6945 25.2094C84.6781 25.2135 84.6606 25.2135 84.6442 25.2094C84.583 25.1868 84.5233 25.1614 84.4652 25.1334C84.4652 25.1148 84.4571 25.094 84.4533 25.0745C84.4482 25.0573 84.4495 25.0391 84.4571 25.0226C84.5121 24.9233 84.5807 24.83 84.6615 24.7446C85.2399 24.1814 85.9319 23.712 86.7045 23.359C87.1674 23.1509 87.6584 22.9559 88.0466 22.6667C88.8161 22.0935 89.7176 21.7214 90.599 21.3159L90.6012 21.3126ZM83.4237 22.6027C84.7448 22.3534 86.0648 22.0976 87.3853 21.8456C87.4268 21.8416 87.4687 21.8416 87.5102 21.8456C87.5832 21.8863 87.6849 21.9123 87.7087 21.9646C87.7325 22.017 87.7173 22.1338 87.6681 22.1681C87.1603 22.5193 86.6704 22.8979 86.1215 23.1954C84.9319 23.8409 83.9044 24.644 82.9186 25.499C82.6482 25.7358 82.347 25.9851 82.0026 26.1199C80.4955 26.7094 79.0246 27.3711 77.4516 27.8345C77.2109 27.905 76.9508 27.9272 76.6983 27.9661C76.6729 27.9698 76.6237 27.9263 76.6096 27.8961C76.6012 27.8788 76.5971 27.86 76.5975 27.8412C76.598 27.8224 76.603 27.8039 76.6123 27.7868C76.6842 27.6941 76.748 27.5806 76.8519 27.5301C77.4694 27.2298 77.9334 26.7733 78.4585 26.3832C79.1187 25.8943 79.8103 25.4318 80.4393 24.9165C81.2277 24.2728 82.1156 23.7149 82.7986 22.9804C82.9673 22.7941 83.1484 22.6547 83.4237 22.6027ZM66.7386 26.721C67.0576 26.5982 67.384 26.4899 67.7163 26.3966C69.3317 25.9332 70.9488 25.474 72.5674 25.0189C72.7297 24.9726 72.9054 24.9726 73.1017 24.9457C73.1639 25.0611 73.2607 25.157 73.2515 25.245C73.2314 25.3556 73.1672 25.4568 73.0698 25.5314C72.7837 25.7623 72.4802 25.9769 72.1613 26.1737C71.403 26.62 70.7075 27.14 70.0886 27.7233C69.2942 28.4698 68.5069 29.2224 67.7401 29.9893C67.2204 30.5088 66.6483 30.9189 65.8837 31.1858C64.2208 31.7664 62.512 32.222 60.8076 32.6923C60.6994 32.722 60.5512 32.6817 60.4388 32.64C60.3847 32.6205 60.3652 32.5218 60.3495 32.4546C60.343 32.4268 60.3782 32.3823 60.4085 32.3582C61.4677 31.5182 62.465 30.6226 63.3945 29.6765C63.9526 29.1052 64.6237 28.6153 65.2429 28.0875C65.6414 27.7479 66.1308 27.4805 66.3374 26.9893C66.386 26.8725 66.5856 26.7812 66.7386 26.721ZM55.0404 34.1353C54.982 34.0997 54.9593 34.0209 54.8982 33.9263C54.969 33.8165 55.0258 33.6692 55.1377 33.564C55.9921 32.7577 56.7784 31.8809 57.7377 31.1779C59.1977 30.1089 60.6778 29.0384 62.4704 28.366C63.1517 28.1107 63.8185 27.8257 64.4966 27.563C64.5362 27.5523 64.5782 27.5498 64.6191 27.5556C64.6601 27.5614 64.6989 27.5754 64.7324 27.5963C64.7751 27.6297 64.7924 27.7497 64.7573 27.7854C64.2219 28.3313 63.6979 28.8869 63.1279 29.405C62.346 30.1154 61.5246 30.7952 60.7243 31.4903C60.3858 31.7845 60.051 32.0802 59.851 32.469C59.6655 32.8286 59.3221 33.0779 58.9225 33.2373C57.7642 33.7007 56.5188 33.9324 55.2859 34.1914C55.1985 34.2002 55.1106 34.1807 55.0404 34.1353ZM69.3321 59.993C68.6437 59.5967 67.9656 59.1843 67.3096 58.7497C66.7916 58.4063 66.3125 58.0207 65.8161 57.6533C65.3196 57.2858 64.9325 56.8256 64.5912 56.3428C64.4107 56.085 64.305 55.7939 64.283 55.4938C64.1943 54.4855 64.1051 53.4771 63.9937 52.4706C63.9115 51.7292 64.1484 51.0628 64.5426 50.4219C64.681 50.1972 64.9595 50.1583 65.2001 50.3293C65.3367 50.4227 65.4664 50.5233 65.5884 50.6305C66.3363 51.314 67.0971 51.9813 67.9802 52.5448C68.5269 52.8942 68.8367 53.3812 68.7978 54.0008C68.7746 54.3743 68.7935 54.7501 68.7935 55.1245H68.8335C68.8335 55.5365 68.8259 55.9484 68.8335 56.3604C68.847 56.9308 69.0298 57.4702 69.3018 57.9846C69.6609 58.6644 70.0437 59.3354 70.4076 60.0133C70.4219 60.0464 70.4274 60.0818 70.4237 60.1169C70.4199 60.152 70.4071 60.186 70.386 60.2163C70.3433 60.2654 70.2238 60.3141 70.1654 60.296C69.882 60.2094 69.5803 60.1352 69.3321 59.993ZM91.7952 64.5894C91.852 64.6112 91.8747 64.6983 91.9131 64.7562C91.8438 64.7873 91.7741 64.8447 91.7049 64.8438C91.4886 64.8438 91.3404 64.7284 91.3734 64.6121C91.3977 64.5848 91.4275 64.5329 91.4469 64.5347C91.5656 64.5366 91.6832 64.5557 91.7952 64.5894ZM60.8411 44.1304C60.7189 43.8987 60.8995 43.6911 61.2131 43.667C61.9586 43.6031 62.7111 43.694 63.407 43.932C64.1781 44.1985 64.9508 44.4737 65.6782 44.8125C67.4865 45.6559 69.271 46.5349 70.9549 47.5563C72.1446 48.2769 73.1558 49.161 74.1708 50.0415C74.6877 50.499 75.1637 50.9893 75.5946 51.5081C76.622 52.7204 77.6987 53.909 78.9532 54.9605C79.5481 55.4577 80.197 55.903 80.8291 56.3683C81.0281 56.5152 81.2498 56.6403 81.4418 56.7937C82.4038 57.5606 83.3529 58.3396 84.3203 59.1018C84.6767 59.3788 85.0506 59.6388 85.4402 59.8808C86.571 60.5906 87.6542 61.3544 88.6847 62.1686C89.2601 62.6246 89.9333 62.9893 90.5601 63.398C90.6629 63.4666 90.7588 63.5426 90.8467 63.6251C90.8574 63.6415 90.8636 63.6598 90.8647 63.6786C90.8659 63.6974 90.8619 63.7162 90.8532 63.7335C90.838 63.7632 90.7818 63.8044 90.7558 63.7988C90.3773 63.7182 89.9863 63.6566 89.6202 63.5403C88.509 63.1858 87.3907 62.8869 86.1989 62.7715C85.604 62.7136 85.0303 62.4703 84.4457 62.316C84.423 62.3099 84.3608 62.3521 84.3538 62.3795C84.3514 62.3977 84.3543 62.4161 84.3623 62.4331C84.3704 62.4501 84.3832 62.4651 84.3998 62.4768C84.9184 62.6756 85.4407 62.867 85.9604 63.0639C86.2411 63.17 86.5206 63.278 86.7948 63.3957C86.91 63.4448 87.0738 63.5041 87.1041 63.5885C87.2544 64.0055 87.6876 64.1065 88.0672 64.2766C88.1288 64.3044 88.1986 64.4411 88.1818 64.455C88.1007 64.5231 87.9807 64.6223 87.8941 64.6098C86.9018 64.4675 85.9133 64.3253 85.0162 63.8841C84.4863 63.6232 83.8887 63.4638 83.3572 63.2048C82.6737 62.8716 82.0258 62.4851 81.3634 62.1209C81.2607 62.0643 81.1931 62.0792 81.1774 62.176C81.1779 62.1947 81.183 62.213 81.1923 62.2298C81.2016 62.2467 81.215 62.2617 81.2315 62.2738C81.8906 62.7682 82.5661 63.2418 83.3366 63.6093C83.4145 63.6464 83.4383 63.7947 83.4448 63.8934C83.4448 63.9207 83.3042 63.961 83.2247 63.9861C83.1839 64.0001 83.1396 64.0051 83.096 64.0004C81.842 63.8345 80.5863 63.676 79.335 63.4949C78.8916 63.4304 78.5239 63.2205 78.2324 62.9212C77.729 62.4012 77.2298 61.879 76.7253 61.36C76.6172 61.2502 76.4977 61.1496 76.3825 61.0453C76.3024 61.2126 76.2678 61.3818 76.3911 61.5481C76.509 61.7061 76.6426 61.8558 76.7588 62.0148C76.9108 62.2228 77.2639 62.4198 77.0022 62.6881C76.8075 62.8878 76.5052 62.7205 76.2695 62.6417C75.1225 62.271 73.9799 61.8873 72.8367 61.5055C72.3884 61.3551 71.9948 61.1053 71.6963 60.7817C71.1095 60.1695 70.5023 59.5801 70.2508 58.7932C70.2285 58.7199 70.192 58.6503 70.1427 58.5875C69.2272 57.4656 69.2861 56.1778 69.3034 54.903C69.3104 54.3682 69.3369 54.3687 70.0929 54.3826C70.1319 54.3826 70.2011 54.3724 70.2059 54.3557C70.2249 54.2924 70.2311 54.2267 70.2243 54.1615C70.2205 54.1291 70.1805 54.0976 70.1513 54.0689C69.7047 53.6564 69.2699 53.2348 68.8075 52.8353C67.9131 52.0633 66.9938 51.3121 66.1037 50.5355C65.7607 50.2451 65.4536 49.9252 65.1872 49.5809C64.3593 48.4687 63.3518 47.4789 62.3887 46.4608C61.7209 45.7523 61.2769 44.9487 60.8411 44.1304ZM59.8742 45.3774C59.9023 45.2615 59.8969 45.1341 59.9645 45.0502C60.0245 44.9761 60.1884 44.8927 60.2668 44.9149C60.4663 44.9714 60.6994 45.0479 60.8205 45.1823C61.7485 46.2212 62.6348 47.2875 63.5708 48.3204C64.1116 48.9182 64.2095 49.5415 63.8699 50.2134C63.4746 50.9956 63.4373 51.8047 63.5 52.6365C63.5416 53.1926 63.5238 53.7547 63.5086 54.3135C63.5086 54.3599 63.321 54.4062 63.2156 54.4405C63.188 54.4493 63.1312 54.4173 63.1025 54.3942C62.0491 53.4637 61.264 52.3904 60.8854 51.1323C60.7124 50.5577 60.4934 49.9817 60.5112 49.3714C60.5083 49.1839 60.4694 48.9981 60.396 48.8214C59.9737 47.6962 60.0786 46.5187 59.8742 45.3774Z" fill="white"/>
<path d="M109.508 51.9766C108.989 51.6411 108.373 51.592 107.757 51.554C108.27 51.9113 108.879 51.9738 109.508 51.9766Z" fill="white"/>
<path d="M75.4016 58.7483C75.3194 58.5536 75.4275 58.41 75.6362 58.2849C75.8623 58.1496 75.8726 58.0254 75.7206 57.9605C75.2669 57.7728 74.8062 57.5958 74.3487 57.4151C74.7586 58.6199 75.5643 59.6746 76.0824 60.8382C76.1153 60.9123 76.2619 60.9494 76.3711 60.9985C76.3673 60.4698 76.0899 60.0171 75.825 59.5592C75.6663 59.2959 75.5249 59.0252 75.4016 58.7483Z" fill="white"/>
<path d="M74.3081 57.4017L74.3483 57.4175C74.344 57.4049 74.338 57.3924 74.3342 57.3798L74.3081 57.4017Z" fill="white"/>
<path d="M76.3706 61.0008C76.3706 61.0125 76.3744 61.0236 76.3744 61.0352L76.4015 61.0143C76.3939 61.0097 76.3809 61.0055 76.3706 61.0008Z" fill="white"/>
<path d="M78.8413 60.2158C78.8954 60.2524 78.9911 60.2422 79.0679 60.2538C79.0587 60.1547 79.0944 60.0221 79.0322 59.9614C78.4666 59.4262 77.8604 58.9355 77.0071 58.7566C77.1504 58.9211 77.2774 59.1023 77.4516 59.2362C77.8998 59.5791 78.3719 59.8965 78.8413 60.2158Z" fill="white"/>
<path d="M76.979 58.725L76.953 58.7455C76.972 58.7492 76.9888 58.7548 77.0072 58.7585C76.9975 58.7474 76.9888 58.7362 76.979 58.725Z" fill="white"/>
<path d="M81.8014 61.2673C82.1616 61.3998 82.5239 61.5273 82.8856 61.6561C82.4617 61.1876 81.8203 61.0175 81.2261 60.7826C81.3421 60.9991 81.5469 61.1715 81.8014 61.2673Z" fill="white"/>
<path d="M82.9557 61.6844L82.8835 61.6584C82.8987 61.6751 82.9155 61.6891 82.9301 61.7049L82.9557 61.6844Z" fill="white"/>
<path d="M81.2241 60.7846C81.2159 60.7706 81.2062 60.7585 81.1986 60.7446L81.1725 60.7646L81.2241 60.7846Z" fill="white"/>
<path d="M71.7655 55.4748C71.9531 55.6648 72.157 55.8432 72.3392 56.0105C72.4247 55.9887 72.4733 55.9887 72.4933 55.9683C72.5038 55.9548 72.5107 55.9395 72.5136 55.9235C72.5165 55.9075 72.5153 55.8912 72.5101 55.8756C72.402 55.624 72.1592 55.4776 71.9082 55.3413C71.8708 55.325 71.8314 55.312 71.7909 55.3024C71.7812 55.3608 71.7357 55.4451 71.7655 55.4748Z" fill="white"/>
<path d="M80.3473 60.5764C80.5944 60.6487 80.8567 60.6839 81.1141 60.7298C80.8913 60.5982 80.6739 60.4587 80.4392 60.3461C80.2982 60.2803 80.1401 60.246 79.9796 60.2464C79.8471 60.2478 80.0412 60.4874 80.3473 60.5764Z" fill="white"/>
<path d="M81.1986 60.7446L81.1141 60.7298L81.1725 60.7646L81.1986 60.7446Z" fill="white"/>
<path d="M73.7603 57.0003C73.7652 57.0587 73.7463 57.1546 73.7782 57.169C73.9301 57.238 74.0902 57.2927 74.2497 57.3492C74.1269 57.239 74.0053 57.1273 73.8782 57.0207C73.8522 57.0008 73.7982 57.0068 73.7603 57.0003Z" fill="white"/>
<path d="M74.2497 57.3492L74.3081 57.4017L74.3342 57.3798L74.2497 57.3492Z" fill="white"/>
<path d="M83.3334 61.98C83.3642 61.9847 83.401 61.9624 83.4345 61.9522C83.3923 61.8976 83.3637 61.8179 83.3047 61.7942C83.2041 61.7597 83.0995 61.7344 82.9927 61.7187C83.0684 61.7891 83.1436 61.8605 83.2225 61.9277C83.2528 61.954 83.2913 61.9722 83.3334 61.98Z" fill="white"/>
<path d="M82.9927 61.7187L82.9538 61.6843L82.9278 61.7062C82.9506 61.7109 82.9732 61.7145 82.9927 61.7187Z" fill="white"/>
<path d="M76.6518 58.6384C76.6577 58.6602 76.7123 58.6792 76.7486 58.6871C76.8026 58.6987 76.8567 58.7056 76.9108 58.7135L76.7756 58.6153C76.6783 58.5462 76.6301 58.556 76.6518 58.6384Z" fill="white"/>
<path d="M76.9108 58.7135L76.953 58.7455L76.979 58.725L76.9108 58.7135Z" fill="white"/>
<path d="M105.354 48.1712H105.349C106.007 48.9242 106.988 49.2185 107.968 49.5151C107.964 49.5104 107.958 49.5072 107.955 49.5021L107.968 49.5053C107.194 48.9122 106.297 48.4942 105.345 48.1554L105.353 48.1744L105.354 48.1712Z" fill="white"/>
<path d="M105.346 48.1532L105.324 48.1448L105.354 48.1712L105.346 48.1532Z" fill="white"/>
<path d="M107.994 49.5202C107.986 49.5137 107.977 49.5086 107.968 49.5025L107.955 49.4993L107.994 49.5202Z" fill="white"/>
<path d="M107.968 49.5118L107.994 49.5202L107.955 49.4993C107.958 49.5044 107.964 49.5072 107.968 49.5118Z" fill="white"/>
<path d="M105.324 48.1448C105.331 48.1541 105.341 48.1601 105.349 48.1694H105.355L105.324 48.1448Z" fill="white"/>
<path fill-rule="evenodd" clip-rule="evenodd" d="M14.8667 56.054C13.3462 55.8925 14.0226 56.894 14.6412 56.9506C14.9766 56.9992 15.3156 57.0181 15.6543 57.0071C13.1223 61.7676 10.5887 67.1436 10.8705 69.2727C11.5232 69.7027 12.2851 69.936 13.0659 69.9447C14.5848 69.9447 16.1617 67.2567 17.0057 66.0242C17.4202 65.6469 17.6807 65.1289 17.7369 64.5703C16.8702 64.9847 16.1454 65.6475 15.6543 66.4749C14.3657 67.9869 12.5022 68.2114 13.7972 65.021C14.5284 63.341 15.9361 60.3154 17.7369 57.0669C21.3302 57.0125 24.9105 56.6188 28.4302 55.8909C35.6349 54.2674 43.5143 50.7378 44.0217 44.5832C44.3036 41.3347 41.7667 38.1427 37.3792 36.6307C29.5295 34.4134 21.1646 34.9067 13.628 38.0312C10.5323 39.5997 6.03043 42.5123 5.35394 46.0403C5.35394 46.3197 5.4667 46.8803 5.4667 46.9352C4.73545 50.3533 8.39331 52.5373 10.1377 52.8168C10.8689 52.9783 11.2072 52.5373 10.5307 52.0333C9.40319 51.3613 6.42182 50.6328 6.87281 47.9448C8.39169 38.8147 28.4286 36.0701 37.5467 38.5901C43.2325 40.2701 44.0201 44.5832 40.6989 47.9997C35.8668 52.9848 25.7839 55.7859 18.2426 56.1219C21.8441 49.7928 26.4572 42.9597 29.78 42.9597C30.0619 42.9597 30.6804 43.5203 30.5112 42.6237C30.0619 41.2797 27.8101 40.7192 27.248 40.7192C24.3198 40.7192 20.2689 45.5363 19.987 47.3843C20.0942 47.7724 20.1145 48.1795 20.0463 48.5764C19.978 48.9732 19.823 49.35 19.5924 49.6797C18.9739 50.8557 17.5661 53.3208 16.0489 56.1219C15.6537 56.1289 15.2585 56.1062 14.8667 56.054ZM51.3439 56.894C52.4134 55.3255 52.75 52.4695 50.4435 51.6844C46.2219 50.2855 37.4968 57.6226 35.8088 61.4317C32.7131 68.4877 39.9176 70.7847 45.6581 68.4877C49.6953 66.77 53.099 63.8341 55.3964 60.0877C55.6203 59.8082 55.6203 59.5287 55.34 59.4173C55.2891 59.3856 55.2323 59.3647 55.1731 59.3557C55.1139 59.3468 55.0534 59.3499 54.9955 59.365C54.9375 59.3801 54.8832 59.4068 54.8358 59.4436C54.7885 59.4803 54.749 59.5263 54.7199 59.5788C52.2793 63.0735 48.8763 65.7791 44.9269 67.3649C41.269 68.8188 36.9347 68.7655 38.3424 64.0599C39.5794 59.9713 44.4212 55.3223 47.7408 53.8103C48.5284 53.4193 50.5546 52.5777 50.611 54.1463C50.7238 55.3788 49.0358 57.0539 48.079 57.7873C46.0449 59.5285 43.6371 60.7746 41.0435 61.4284C40.1995 61.4833 40.5925 62.2684 41.4381 62.2119C43.9717 61.9841 49.3177 59.8567 51.3439 56.8876V56.894ZM54.4412 61.4866C56.6962 58.7404 58.6065 55.8327 60.6327 52.9735C61.4836 52.9873 62.3312 53.0809 63.1647 53.253C67.0497 53.87 64.4533 56.3335 63.6157 57.2914C61.5331 59.4205 57.8172 63.5074 58.832 67.1453C58.9426 67.7667 59.2813 68.3241 59.7812 68.7077C60.2811 69.0913 60.9061 69.2732 61.5331 69.2178C63.1197 69.1449 64.6485 68.5987 65.9238 67.6493C68.7888 65.5378 71.2645 62.9411 73.2396 59.9762C73.287 59.8796 73.2967 59.7687 73.2668 59.6653C73.2368 59.5619 73.1694 59.4735 73.0778 59.4174C72.9861 59.3613 72.8768 59.3417 72.7715 59.3623C72.6661 59.3829 72.5722 59.4422 72.5083 59.5287C70.1987 62.5849 67.3805 65.2183 64.1778 67.3133C62.3207 68.2647 61.4767 66.6978 62.3771 64.1778C63.6165 61.1452 65.3261 58.3282 67.4427 55.8311C69.4126 53.5906 70.7639 51.686 67.3863 51.8556C65.4159 51.9313 63.4428 51.8936 61.4767 51.7426L63.6721 48.2711C65.191 45.525 64.0103 46.142 62.3835 46.8706C60.3758 47.9013 58.7709 49.5775 57.8253 51.6311C57.7923 51.8011 57.7988 51.9764 57.8441 52.1435C57.8894 52.3107 57.9723 52.4651 58.0865 52.595C58.2008 52.7248 58.3433 52.8266 58.5029 52.8925C58.6626 52.9585 58.8353 52.9867 59.0075 52.9751C57.5395 55.782 55.7852 58.4287 53.7728 60.8727C52.9224 61.9276 53.8791 62.2087 54.4412 61.4801V61.4866ZM77.9701 55.046L76.3385 59.1911H76.1775C75.7281 59.1911 75.5026 58.2946 74.6022 58.2946C73.7582 58.2946 71.2198 58.91 71.2198 59.8631C71.2651 60.2303 71.4465 60.5671 71.7278 60.8064C72.0092 61.0458 72.37 61.1704 72.7386 61.1554C73.6993 61.1339 74.658 61.0595 75.6105 60.9325C72.1201 69.8365 65.8723 85.5187 65.1974 86.7512C64.3534 88.4312 67.7294 87.0323 68.5798 86.5896C69.4239 86.0856 69.593 85.1891 70.9427 81.7177C71.5629 80.2057 70.4933 80.8211 72.1813 76.0638C73.813 71.5827 76.403 64.6382 77.9798 60.6611C81.4702 60.1571 85.4663 59.5966 86.423 59.3171C88.7875 58.6451 87.3234 58.364 86.423 58.364C84.4532 58.364 82.3705 58.5886 80.4007 58.7566C86.0284 54.2771 93.5149 46.0435 95.5975 41.619C96.8345 39.0424 97.1164 36.7453 94.8646 35.4579L93.7372 35.0653C89.9085 34.0008 86.758 37.6419 84.8429 40.5577C82.1562 45.1858 79.8574 50.0298 77.9701 55.0396V55.046ZM79.0976 58.0135C79.2587 57.5111 81.2366 52.862 83.7139 48.213C85.9076 44.2924 89.5671 39.0279 91.7673 37.3479C95.2013 34.6583 95.7086 37.9633 94.0222 40.8193C90.9829 46.0839 84.2856 54.7666 78.6579 58.9116C78.7687 58.5942 78.9157 58.2906 79.096 58.007L79.0976 58.0135ZM103.134 56.894C104.203 55.3255 104.54 52.4695 102.234 51.6844C98.0119 50.2855 89.2884 57.6226 87.5988 61.4317C84.5031 68.4877 91.7077 70.7847 97.4498 68.4877C101.487 66.7704 104.89 63.8343 107.186 60.0877C107.412 59.8082 107.412 59.5287 107.13 59.4173C107.079 59.3854 107.023 59.3644 106.963 59.3553C106.904 59.3462 106.844 59.3493 106.786 59.3644C106.728 59.3795 106.674 59.4064 106.627 59.4432C106.58 59.4801 106.54 59.5262 106.512 59.5788C104.07 63.0735 100.667 65.7791 96.7169 67.3649C93.0591 68.8188 88.7247 68.7655 90.1325 64.0599C91.3711 59.9713 96.2112 55.3223 99.5324 53.8103C100.32 53.4193 102.346 52.5777 102.403 54.1463C102.515 55.3788 100.826 57.0539 99.869 57.7873C97.8349 59.5285 95.4271 60.7746 92.8335 61.4284C91.9895 61.4833 92.3842 62.2684 93.2282 62.2119C95.7586 61.9841 101.106 59.8567 103.132 56.8876L103.134 56.894ZM124.975 60.2556C125.088 60.0311 125.255 59.5271 124.975 59.4157C124.866 59.3545 124.74 59.3323 124.617 59.3525C124.494 59.3728 124.382 59.4344 124.298 59.5271C121.091 63.6157 118.339 66.1922 113.267 67.6476C110.06 68.5442 106.795 68.2082 108.09 64.0631C109.609 58.9666 116.588 53.253 119.458 53.253C119.716 53.2941 119.948 53.4339 120.106 53.6429C120.263 53.8519 120.333 54.114 120.302 54.374C120.229 54.752 120.135 55.1257 120.022 55.4935C119.994 55.607 120 55.7264 120.04 55.8363C120.08 55.9462 120.152 56.0417 120.246 56.1106C120.64 56.6146 121.597 54.542 121.654 54.206C121.744 53.9443 121.778 53.6661 121.751 53.3903C121.725 53.1145 121.639 52.8477 121.5 52.6082C121.361 52.3688 121.172 52.1622 120.946 52.0028C120.72 51.8433 120.463 51.7347 120.191 51.6844C115.969 50.2855 107.244 57.6226 105.556 61.4317C103.024 67.2567 107.077 70.0562 112.482 69.1047C118.05 68.1452 121.768 64.5607 124.973 60.254L124.975 60.2556ZM137.922 51.741C136.151 51.7451 134.384 51.8763 132.632 52.1335L131.899 52.19L134.602 47.4844C134.939 46.8124 135.502 46.869 135.784 46.3084C136.067 46.007 136.263 45.6345 136.352 45.2305C136.441 44.8264 136.42 44.4058 136.29 44.013C135.983 43.7508 135.62 43.5636 135.228 43.4664C134.837 43.3691 134.428 43.3643 134.035 43.4524C133.247 43.5639 133.135 44.1244 131.728 46.533L128.913 51.741C128.868 51.7294 128.821 51.7344 128.78 51.7552C128.739 51.776 128.706 51.8112 128.689 51.854C127.62 51.909 126.155 51.909 125.706 52.862C125.635 52.9933 125.6 53.1415 125.605 53.291C125.61 53.4405 125.656 53.5858 125.736 53.7117C125.817 53.8375 125.929 53.9394 126.063 54.0065C126.196 54.0735 126.345 54.1034 126.494 54.0929C126.926 54.1001 127.358 54.0628 127.782 53.9815C127.051 55.3255 126.545 56.222 126.545 56.3335C125.701 57.6258 124.181 59.6951 122.211 62.1037C121.705 62.7757 122.267 63.5026 122.829 62.8871C124.012 61.5431 124.519 60.7031 125.025 60.086C123.843 62.6626 122.886 65.6882 123.337 66.9756C124.464 70.3356 128.628 68.9916 130.424 67.6476C133.289 65.5361 135.765 62.9395 137.741 59.9746C137.793 59.8847 137.809 59.7784 137.785 59.6774C137.761 59.5763 137.7 59.4882 137.613 59.4311C137.527 59.3739 137.422 59.3521 137.32 59.3699C137.218 59.3878 137.127 59.444 137.065 59.5271C134.723 62.574 131.889 65.2054 128.679 67.3117C126.821 68.2631 125.696 66.9756 126.089 64.5655C126.25 62.774 127.777 59.805 129.472 56.445C129.641 55.941 130.316 54.9911 131.047 53.6439C133.186 53.4649 135.31 53.1471 137.408 52.6924C139.779 52.127 138.596 51.7345 137.92 51.7345L137.922 51.741Z" fill="white"/>
<path fill-rule="evenodd" clip-rule="evenodd" d="M60.0255 81.498C61.3229 78.7576 61.9044 75.7314 61.7151 72.7038C61.554 67.7737 57.9413 72.1998 57.7158 73.5987C57.3703 76.3304 57.2759 79.0882 57.4339 81.8372C52.9469 88.0941 47.4226 93.5323 41.1015 97.9151C34.9068 102.005 28.3771 104.7 30.7399 97.8036C32.4296 92.8735 36.5964 86.7108 40.4266 81.1087C43.0181 77.3434 45.1899 73.3045 46.9032 69.0643C47.7628 69.1744 48.6108 69.362 49.4368 69.6249C52.8192 70.746 50.6207 68.3923 49.7187 68.0095C48.9859 67.6963 48.2324 67.434 47.4637 67.2244C47.5613 66.7461 47.5804 66.255 47.5201 65.7706C47.0127 64.4249 45.6613 64.874 46.0544 65.609C46.171 66.0319 46.171 66.4785 46.0544 66.9013C38.621 65.4475 26.3444 66.9579 26.681 74.1835C26.7299 74.416 26.8056 74.6421 26.9065 74.8571C26.9629 77.4886 30.0039 79.2816 31.3005 79.5611C31.8626 79.7307 32.0881 79.4497 31.4615 79.0022C30.5612 78.4417 28.1951 77.7696 28.0791 75.6406C27.7973 70.2064 38.2716 68.4133 45.1991 68.9173C42.921 72.8847 40.4204 76.7193 37.7094 80.4027C34.5557 85.1649 30.9445 90.2049 28.303 94.7425C25.6566 99.1686 24.8127 103.142 30.6127 103.315C34.9713 103.095 39.1412 101.464 42.4964 98.6646C47.9961 94.6742 52.9745 90.0069 57.3147 84.7723C56.7526 93.455 61.8246 100.514 67.6231 100.514C79.2812 100.626 86.3215 74.8571 76.8587 68.8059C74.0996 66.9579 70.3274 67.1808 66.7227 69.759C66.1026 70.2064 66.9482 70.935 67.5667 70.5424C68.299 70.0092 69.1498 69.6632 70.0456 69.5344C71.0642 69.3615 72.1095 69.4394 73.0915 69.7613C74.0735 70.0832 74.9628 70.6395 75.683 71.3824C82.2159 78.3286 77.8799 98.2721 69.4319 98.3852C64.3614 98.5289 59.9176 90.1807 60.0255 81.498ZM99.8964 87.2681C100.968 85.6996 101.304 82.8436 98.9961 82.0585C94.7712 80.658 86.0429 87.9966 84.3533 91.8057C81.2559 98.8649 88.4637 101.162 94.2091 98.8649C98.2472 97.1468 101.652 94.2111 103.952 90.4649C104.178 90.1839 104.178 89.9044 103.896 89.7929C103.845 89.7616 103.788 89.7408 103.729 89.732C103.67 89.7231 103.609 89.7263 103.551 89.7414C103.494 89.7565 103.439 89.7831 103.392 89.8197C103.344 89.8564 103.305 89.9022 103.276 89.9545C100.833 93.4495 97.4275 96.1551 93.4762 97.7406C89.8151 99.1945 85.4792 99.1412 86.8869 94.4356C88.1271 90.347 92.9688 85.6963 96.2917 84.1843C97.0809 83.7918 99.1088 82.9518 99.1651 84.5203C99.2779 85.7529 97.5883 87.428 96.63 88.1614C94.5947 89.9027 92.1858 91.1488 89.5912 91.8025C88.7456 91.859 89.1403 92.6441 89.9843 92.5876C92.5195 92.3662 97.8686 90.2372 99.8964 87.2681ZM105.471 98.8084C108.853 98.8084 114.813 92.3662 118.255 88.3892C116.791 92.0303 112.173 104.131 117.804 105.028C119.071 105.218 120.366 105.023 121.521 104.467C121.821 104.165 122.103 103.847 122.367 103.514C122.704 102.842 122.423 102.674 121.747 103.067C121.352 103.291 121.183 103.514 120.903 103.682C120.726 103.865 120.508 104.003 120.266 104.081C120.024 104.16 119.767 104.178 119.517 104.134C119.266 104.09 119.031 103.985 118.83 103.828C118.63 103.671 118.471 103.467 118.368 103.235C117.411 101.666 117.524 99.0346 118.424 95.5033C119.272 92.4179 120.306 89.3872 121.521 86.4281C126.59 82.0666 134.757 76.4563 138.079 70.6313C139.368 68.3342 139.656 65.7577 136.446 65.139C129.97 63.8467 124.393 74.1577 120.621 82.842L120.396 82.6804C118.647 81.7997 116.624 81.6385 114.758 82.2313C110.535 83.2393 97.6946 91.6426 101.861 96.9087C102.298 97.4602 102.844 97.914 103.466 98.2412C104.088 98.5683 104.771 98.7615 105.471 98.8084ZM120.17 83.7385L119.381 85.643C115.887 89.3116 112.165 92.7554 108.238 95.954C107.451 96.5695 104.695 98.5855 103.902 97.466C102.156 95.0009 106.83 89.6799 108.412 88.2228C111.34 85.6382 115.283 83.4041 118.212 83.4041C118.881 83.366 119.551 83.4803 120.17 83.7385ZM123.211 83.1796C126.139 76.7374 129.349 71.3033 134.418 67.4376C137.234 65.3086 138.079 66.9336 136.673 69.6216C134.136 74.3838 127.716 80.2654 123.218 83.1796H123.211ZM126.594 98.8084C129.976 98.8084 135.936 92.3662 139.378 88.3892C137.913 92.0303 133.296 104.131 138.927 105.028C140.194 105.218 141.489 105.023 142.644 104.467C142.943 104.165 143.225 103.847 143.488 103.514C143.826 102.842 143.544 102.674 142.87 103.067C142.475 103.291 142.306 103.514 142.024 103.682C141.848 103.865 141.629 104.003 141.387 104.081C141.146 104.16 140.889 104.178 140.638 104.134C140.388 104.09 140.153 103.985 139.953 103.828C139.752 103.671 139.594 103.467 139.49 103.235C138.524 101.666 138.645 99.0346 139.547 95.5033C140.394 92.4177 141.428 89.387 142.644 86.4281C147.713 82.0666 155.879 76.4563 159.202 70.6313C160.49 68.3342 160.779 65.7577 157.569 65.139C151.092 63.8467 145.516 74.1577 141.742 82.842L141.518 82.6804C139.769 81.7997 137.746 81.6385 135.881 82.2313C131.658 83.2393 118.817 91.6426 122.984 96.9087C123.42 97.4601 123.966 97.9139 124.587 98.2411C125.208 98.5682 125.89 98.7615 126.59 98.8084H126.594ZM141.293 83.7385L140.503 85.643C137.006 89.3109 133.282 92.7542 129.353 95.9524C128.563 96.5679 125.809 98.5839 125.017 97.4644C123.271 94.9993 127.945 89.6783 129.527 88.2212C132.455 85.6366 136.398 83.4025 139.326 83.4025C139.997 83.3643 140.669 83.4792 141.289 83.7385H141.293ZM144.334 83.1796C147.262 76.7374 150.472 71.3033 155.541 67.4376C158.356 65.3086 159.202 66.9336 157.796 69.6216C155.256 74.3838 148.836 80.2654 144.33 83.1796H144.334ZM147.824 86.7076C146.98 87.9999 145.46 90.0692 143.488 92.4777C142.981 93.1497 143.544 93.8782 144.108 93.2628C145.29 91.9188 145.798 91.0772 146.304 90.4617C145.121 93.0383 144.165 96.0639 144.614 97.3513C145.741 100.713 149.908 99.369 151.711 98.025C154.577 95.9133 157.055 93.3161 159.031 90.3503C159.091 90.2605 159.112 90.1508 159.091 90.0452C159.069 89.9396 159.007 89.8469 158.918 89.7873C158.828 89.7278 158.719 89.7063 158.613 89.7277C158.508 89.749 158.416 89.8114 158.356 89.9012C156.012 92.9485 153.176 95.5804 149.965 97.6873C148.106 98.6404 146.98 97.3513 147.375 94.9412C147.544 93.1481 149.064 90.179 150.757 86.819C151.601 85.0825 152.221 84.018 151.885 83.346C151.642 83.0725 151.333 82.8668 150.987 82.7491C150.642 82.6313 150.272 82.6054 149.913 82.674C149.125 82.8355 148.562 84.2425 147.942 85.9774C147.872 86.0841 147.825 86.2041 147.805 86.3298C147.784 86.4555 147.789 86.5841 147.821 86.7076H147.824ZM154.301 77.0153C154.301 75.8942 155.708 73.9347 153.4 75.7827C152.205 76.6315 151.075 77.5678 150.018 78.5838C150.018 79.7598 151.426 79.7598 152.434 79.7598C153.372 79.107 154.038 78.1306 154.304 77.0169L154.301 77.0153ZM170.351 87.3796C168.943 89.9561 164.326 98.8633 170.238 99.4239C171.856 99.4772 173.444 98.9839 174.748 98.0233C177.615 95.9117 180.092 93.3145 182.069 90.3486C182.121 90.2515 182.134 90.138 182.105 90.0315C182.077 89.925 182.008 89.8336 181.914 89.7761C181.821 89.7186 181.708 89.6993 181.601 89.7223C181.493 89.7453 181.398 89.8087 181.336 89.8996C179.007 92.96 176.169 95.5941 172.946 97.6857C171.144 98.6388 170.016 97.3497 170.354 94.9396C170.608 93.4731 171.041 92.0434 171.643 90.683C172.376 88.7785 173.671 87.0419 174.291 85.1374C175.418 81.7758 173.052 81.3833 169.781 83.7918C166.022 87.0065 162.554 90.5495 159.419 94.379C160.096 92.5876 161.897 87.5944 163.306 84.5252C163.755 83.6286 163.812 83.1246 162.911 82.9001C159.983 82.1166 160.207 84.7497 159.927 85.4217C158.799 88.5023 155.476 98.0815 155.027 99.2026C154.463 100.267 157.443 98.9215 158.012 98.642C159.081 98.0266 163.81 90.6313 167.022 87.7188C171.137 84.1876 171.363 85.5881 170.348 87.3812L170.351 87.3796ZM193.891 100.992C197.983 98.0511 201.775 94.7109 205.211 91.0206C206.675 89.339 206.393 87.995 204.929 89.6767C202.011 93.0339 198.681 96.0076 195.019 98.5273C197.101 94.1012 199.186 89.9561 200.593 86.874C200.875 86.2585 197.327 84.7465 196.82 86.034C194.035 89.3823 190.922 92.4416 187.527 95.1657C185.272 96.9023 182.628 98.3593 182.009 97.4628C180.207 94.9977 184.825 89.6766 186.519 88.2196C189.391 85.6349 193.334 83.4009 196.262 83.4009C196.775 83.3169 197.301 83.3712 197.786 83.5583C198.27 83.7454 198.697 84.0585 199.021 84.4654C199.303 84.5785 199.472 84.5785 199.472 84.186C199.43 83.8728 199.317 83.5735 199.141 83.3113C198.965 83.0492 198.731 82.8311 198.458 82.674C196.707 81.7975 194.686 81.6365 192.82 82.2249C188.595 83.2329 175.811 91.6361 179.923 96.9023C180.359 97.4543 180.904 97.9089 181.525 98.2369C182.146 98.5649 182.828 98.7591 183.528 98.8068C186.344 98.8068 189.61 95.5017 191.694 93.2046C192.538 92.3097 194.679 89.7881 196.204 87.9385C194.58 92.3963 192.698 96.755 190.567 100.992C186.907 103.401 181.049 107.267 178.234 110.515C175.249 113.988 173.563 117.35 177.106 119.086C177.466 119.259 177.844 119.391 178.234 119.479C182.064 120.151 185.387 116.397 187.469 113.316C189.214 110.573 191.467 105.924 193.888 100.994L193.891 100.992ZM189.499 103.12C187.133 107.882 184.656 113.484 180.376 117.012C179.023 118.077 178.179 118.245 177.672 117.964C175.869 117.012 177.277 113.651 179.53 111.41C182.656 108.418 185.986 105.649 189.496 103.121L189.499 103.12Z" fill="white"/>
</svg>
