<svg width="82" height="59" viewBox="0 0 82 59" fill="none" xmlns="http://www.w3.org/2000/svg">
<path d="M65.8966 58.4214C67.6859 58.266 69.4381 57.8186 71.0845 57.0969C72.5236 56.4582 74.076 56.0529 75.4485 55.2188C76.4361 54.6199 77.5531 54.258 78.5785 53.7007C79.6038 53.1435 80.4547 52.398 81.5412 52.0072C81.9351 51.866 82.0142 51.5168 81.9981 51.1278C81.9045 48.839 81.8182 46.5483 81.7228 44.2522C81.6725 43.1322 81.5286 42.0158 81.5106 40.8958C81.4674 38.1401 81.2713 35.3899 81.2623 32.6324C81.2623 30.5968 81.0573 28.5631 81.1346 26.5203C81.167 25.6555 81.0213 24.7815 81.0807 23.9221C81.1058 23.5421 80.6579 23.4697 80.782 23.059C81.1058 21.9933 80.9619 20.8877 80.872 19.8021C80.8036 19.0458 80.0679 18.6948 79.3807 19.0784C78.9634 19.3154 78.5281 19.4801 78.0982 19.6773C75.3316 20.9438 72.3905 21.5427 69.4224 22.0711C68.6524 22.2302 67.8935 22.4393 67.1504 22.6971C66.6971 22.8401 66.564 23.2164 66.6108 23.6742C66.6665 24.1591 67.0227 24.1374 67.3843 24.2007C68.6561 24.4251 69.8325 23.8823 71.0575 23.79C73.4608 23.609 75.7057 22.8292 77.9633 22.0928C79.03 21.7454 79.0156 21.6947 79.0947 22.8383C79.0947 22.9142 79.1037 22.9921 79.1055 23.068C79.2207 27.0631 79.3142 31.0582 79.4545 35.0533C79.62 39.8138 79.6758 44.5779 80.0265 49.3293C80.0679 49.8993 79.8053 50.1797 79.4563 50.4746C78.1874 51.5242 76.7753 52.3852 75.2632 53.0313C71.6655 54.6253 68.0678 56.0946 64.1104 56.6772C60.4515 57.22 56.8323 57.039 53.2004 56.7097C51.1839 56.5288 49.225 55.9426 47.2444 55.5228C44.1738 54.8732 41.2921 53.6628 38.3222 52.7183C34.9206 51.6326 31.6107 50.281 28.0832 49.5899C25.6152 49.1067 23.158 48.6562 20.6342 48.6562C19.6412 48.6562 18.6555 48.7811 17.6733 48.8263C14.7595 48.9747 11.877 49.5026 9.09822 50.3968C7.29938 50.9686 5.45557 51.4734 3.75387 52.3437C3.47504 52.4867 3.25918 52.4812 3.21421 52.0958C3.03433 50.3208 2.73932 48.5495 2.69794 46.7708C2.6098 43.0001 2.33818 39.2384 2.31299 35.4641C2.28421 31.3025 2.11512 27.1554 1.86688 23.0083C1.80212 21.9119 2.28601 21.4324 3.02893 20.9511C3.1167 20.8999 3.2074 20.854 3.30056 20.8136C4.81158 20.0717 6.3424 19.4059 8.02431 19.1146C9.20975 18.9101 10.3628 18.5175 11.5428 18.266C14.2411 17.6906 16.9897 17.5422 19.7474 17.4897C22.051 17.4622 24.354 17.5831 26.6423 17.8516C27.9735 18.0018 29.2956 18.2551 30.6124 18.5102C32.7566 18.9246 34.7983 19.7261 36.9083 20.2563C39.8566 20.9945 42.6556 22.1977 45.5931 22.9703C47.6402 23.5132 49.6117 24.3201 51.7326 24.5861C52.3478 24.6639 52.7039 24.454 52.8766 23.8624C53.0961 23.1223 52.8766 22.8057 51.9358 22.5705C50.137 22.1236 48.322 21.8123 46.5555 21.2677C43.2204 20.2382 39.9178 19.0965 36.5485 18.1809C33.4761 17.3378 30.4325 16.4095 27.2449 16.0477C24.2948 15.7129 21.3483 15.3909 18.5961 15.5049C15.297 15.5501 12.2624 15.8939 9.2871 16.7171C7.70412 17.155 6.06897 17.4409 4.52377 17.9729C3.21241 18.4288 1.90466 18.9372 0.873919 20.0283C0.388232 20.5403 -0.0524845 20.933 0.00507839 21.6694C0.161578 23.6597 0.152583 25.6392 0.184963 27.6241C0.249721 31.6047 0.377439 35.5853 0.413416 39.5659C0.436801 42.28 0.60769 44.9759 0.814557 47.6665C0.974054 49.7473 1.11796 51.8299 1.24628 53.9143C1.27326 54.3702 1.5179 54.5837 1.89386 54.743C2.63858 55.056 3.21062 54.6633 3.87259 54.3811C6.54567 53.243 9.36984 52.5554 12.1329 51.6851C13.7518 51.173 15.4751 51.0808 17.1516 50.9306C19.5819 50.7153 22.0373 50.4764 24.4783 50.9433C26.0793 51.2491 27.6803 51.5729 29.292 51.8154C30.0565 51.9294 30.7311 52.2858 31.4632 52.4378C32.8735 52.7327 34.2262 53.2285 35.552 53.7297C37.135 54.3286 38.6712 55.0867 40.3135 55.4938C42.2796 55.9806 44.1307 56.8111 46.1112 57.2616C47.8057 57.647 49.493 58.083 51.2001 58.3979C52.8029 58.6946 54.438 58.7688 56.0768 58.8737C58.5232 59.0312 60.9588 59.0999 63.3926 58.7236C64.2363 58.6259 65.0638 58.501 65.8966 58.4214Z" fill="white"/>
<path d="M55.5083 25.1887C56.307 27.4052 57.541 29.4624 57.8468 31.8598C57.9188 32.4262 58.1868 32.9654 58.3505 33.5208C58.5304 34.127 58.9999 34.2066 59.4982 34.1197C60.126 34.0094 60.5055 33.6131 60.6476 32.9599C60.8561 32.0716 61.1101 31.1947 61.4085 30.3327C61.8474 28.9974 62.54 27.7743 63.0131 26.4643C63.8786 24.1381 64.8731 21.8626 65.992 19.6484C66.7781 18.0507 67.852 16.6104 68.6902 15.049C69.9152 12.7547 71.4586 10.6739 72.8024 8.46284C74.2972 6.00209 76.4001 4.00997 78.1125 1.71026C78.4723 1.2163 78.6864 0.778431 78.323 0.286282C78.0226 -0.119017 77.0458 -0.0755921 76.6339 0.300757C76.0205 0.867091 75.3747 1.40629 74.8351 2.0468C72.6765 4.65411 70.5502 7.27951 68.6147 10.0515C66.7565 12.7239 65.4163 15.7076 63.783 18.5139C62.9519 19.9451 62.4716 21.579 61.7647 23.0898C61.0578 24.6006 60.5055 26.1332 59.5413 27.559C59.383 27.103 59.3057 26.6669 59.0952 26.3105C58.0825 24.5988 57.4169 22.7261 56.5912 20.9276C56.2315 20.1478 56.0678 19.2756 55.4939 18.5971C55.2205 18.294 54.9793 17.9629 54.7744 17.6092C53.7591 15.7914 52.617 14.0482 51.3566 12.3928C51.0652 11.9984 50.6137 11.9314 50.1982 11.9694C49.7826 12.0074 49.6297 12.4091 49.4786 12.7782C49.2358 13.3735 49.6117 13.7679 49.9049 14.1606C51.5599 16.368 52.6212 18.9029 53.8624 21.3383C54.4914 22.5855 55.0411 23.8715 55.5083 25.1887Z" fill="white"/>
<path d="M50.8421 32.446C50.5057 30.7814 50.056 29.3067 49.0019 27.9714C47.525 26.1005 45.6291 24.8521 43.3715 24.3527C41.445 23.9275 39.4896 23.8388 37.5037 24.6277C35.8416 25.2881 34.6813 26.3593 33.5876 27.6693C32.4058 29.086 32.1684 30.8592 31.6215 32.5166C31.4269 33.0486 31.2988 33.6029 31.2402 34.1667C31.134 35.5907 31.0189 37.0093 31.1664 38.3428C31.1138 39.6057 31.2428 40.8696 31.5496 42.0954C31.8949 43.5745 32.3668 45.0207 32.9598 46.418C33.4635 47.576 34.0823 48.7394 35.2246 49.4071C37.3571 50.6778 39.8393 51.2252 42.3048 50.9686C43.3949 50.8618 44.4274 50.699 45.4546 50.1743C46.1603 49.7877 46.8282 49.3352 47.4495 48.8227C48.2752 48.1876 48.4335 47.1327 49.0361 46.3275C50.2341 44.7262 50.7666 42.7233 50.9824 40.7438C51.281 37.9899 51.407 35.2379 50.8421 32.446ZM46.0788 47.3715C45.3592 48.307 44.2799 48.6851 43.1791 48.9204C42.6292 49.0339 42.0738 49.1185 41.5151 49.1737C39.9299 49.3577 38.3296 48.9926 36.9785 48.1387C35.8488 47.4349 35.0663 46.3474 34.5356 45.1551C33.6002 43.0562 32.985 40.8578 33.0336 38.3934C33.1271 36.9948 32.717 35.4622 33.0336 33.9442C33.1973 33.1571 33.1038 32.294 33.8251 31.6463C34.1615 31.3441 34.0841 30.7235 34.3234 30.2802C35.8002 27.5173 38.1009 26.03 41.2021 25.9847C42.7833 25.9612 44.226 26.5384 45.5463 27.4865C46.6706 28.2935 47.7283 29.1258 48.3975 30.3652C48.9227 31.3369 48.9659 32.4352 49.1584 33.4918C49.6981 36.4538 49.4642 39.3922 48.6691 42.2673C48.1394 44.1202 47.2599 45.8531 46.0788 47.3715Z" fill="white"/>
<path d="M10.03 24.2351C10.4276 22.9921 10.0498 21.7635 9.9185 20.5349C9.88612 20.2382 9.67926 20.088 9.34107 20.0374C8.34991 19.8908 7.84264 20.345 7.902 21.3473C7.93438 21.8902 8.15564 22.4239 8.0603 23.0138C8.04771 24.6314 7.09072 25.8328 6.10675 26.9944C5.79915 27.3563 5.48795 27.8991 4.9447 27.9117C4.44642 27.928 4.18379 28.2736 3.82402 28.4727C3.71933 28.5226 3.63438 28.6065 3.58283 28.7108C3.53128 28.8152 3.51612 28.934 3.53981 29.048C3.59737 29.3267 3.79344 29.4334 4.07946 29.4823C5.69842 29.7555 6.90184 28.7766 7.93977 27.89C8.97771 27.0034 9.59291 25.6012 10.03 24.2351Z" fill="white"/>
<path d="M71.6799 51.3287C71.6647 51.5093 71.6647 51.6909 71.6799 51.8715C71.786 52.5012 72.8276 53.2086 73.2413 52.9228C73.8349 52.5138 74.254 52.0181 74.0256 51.1984C73.8457 50.5362 73.9932 49.9065 74.3206 49.2931C75.0923 47.8456 76.0871 46.646 77.6754 46.067C78.1809 45.8861 78.5335 45.5532 78.395 44.9941C78.2763 44.5055 77.4956 44.3735 76.8947 44.6322C76.0673 44.9796 75.3639 45.5206 74.6336 46.0254C72.7862 47.2956 71.9174 49.1339 71.6799 51.3287Z" fill="white"/>
<path d="M8.16642 46.8885C8.54957 47.4584 8.88596 48.0555 9.22954 48.6399C9.69004 49.4071 10.2423 49.0018 10.7478 48.8046C11.2532 48.6074 11.2532 48.0971 11.0787 47.6973C10.7568 46.9572 10.5535 46.1557 10.0462 45.5061C8.9669 44.1346 7.74369 43.0128 5.89448 42.8825C5.41779 42.8427 5.00945 43.096 4.57233 43.2064C4.0075 43.3493 3.63334 43.8198 3.72868 44.3952C3.82402 44.9705 4.40144 44.8222 4.80798 44.8167C6.37477 44.7914 7.34975 45.669 8.16642 46.8885Z" fill="white"/>
<path d="M71.5881 26.0282C71.6817 27.8901 72.2537 29.5547 73.8601 30.6367C74.5796 31.1216 75.3603 31.592 76.2885 31.6192C77.0224 31.6391 77.7276 31.1831 77.8283 30.6331C77.9435 29.9654 77.5909 29.5475 76.7202 29.2797C76.303 29.1747 75.8926 29.0436 75.4916 28.887C74.1119 28.2755 73.2934 27.1736 72.8401 25.7568C72.7322 25.4185 72.5811 25.0005 72.1368 25.1109C71.7284 25.2086 71.5684 25.6356 71.5881 26.0282Z" fill="white"/>
</svg>
