<svg width="91" height="53" viewBox="0 0 91 53" fill="none" xmlns="http://www.w3.org/2000/svg">
<path d="M52.88 1.73803C51.2686 0.896442 49.5828 0.211978 47.7208 0.127097C46.8361 0.08556 45.9478 -0.0227971 45.0667 0.00429252C44.0985 0.0349941 43.1738 0.365488 42.2328 0.574981C40.9523 0.849761 39.7216 1.31749 38.5833 1.96197C37.2927 2.71512 36.181 3.73652 35.3243 4.95627C34.7284 5.79605 34.416 6.78934 33.7838 7.61286C33.0135 8.60976 32.8173 9.82518 32.6357 11.0298C32.5267 11.7522 32.6357 12.4745 32.672 13.1969C32.7447 14.7212 32.9663 16.1768 33.9673 17.4103C34.0399 17.4988 34.0435 17.6414 34.0999 17.7462C34.6812 18.8442 35.3715 19.9404 36.436 20.5436C37.7512 21.2931 38.7831 22.458 40.3308 22.904C41.2155 23.1587 42.0893 23.5759 42.9994 23.6264C44.4527 23.6969 45.906 23.8811 47.3593 23.807C48.6509 23.7384 49.9026 23.4332 50.9489 22.7921C52.5839 21.7916 54.1825 20.7098 55.3088 19.0537C56.2807 17.6252 57.1254 16.2292 57.456 14.4665C57.7449 12.9441 58.0682 11.474 57.8539 10.4627C57.6522 7.75373 57.2744 6.18614 55.8647 4.44338C55.0109 3.37243 54.0898 2.36831 52.88 1.73803ZM55.2834 12.563C55.1214 13.8999 54.7589 15.205 54.2079 16.435C53.6411 17.627 53.0362 18.8966 52.117 19.8014C50.9417 20.9608 49.4829 21.8728 47.7008 22.0011C46.362 22.0968 45.0304 21.9794 43.7043 21.9071C43.4618 21.8913 43.2245 21.83 43.0049 21.7265C41.3173 20.9355 39.3608 20.7278 37.9184 19.4167C36.8544 18.4234 35.9696 17.2561 35.3025 15.9655C34.3215 14.1595 34.3669 12.3535 35.0027 10.4789C35.1499 10.0473 35.1989 9.58499 35.3152 9.14433C35.7185 7.60564 36.6649 6.40828 37.6659 5.20369C38.5742 4.10566 39.8367 3.59999 40.9358 2.82161C41.9131 2.13173 42.9686 1.95835 44.024 1.73803C44.5555 1.6337 45.0984 1.59909 45.639 1.63509C46.7671 1.70733 47.9188 1.70191 49.0106 1.94752C50.115 2.20291 51.1601 2.66571 52.0898 3.31103C54.0208 4.63662 54.9636 6.53831 55.3215 8.7741C55.3796 9.31392 55.4069 9.85659 55.4033 10.3995C55.4372 11.1228 55.397 11.8478 55.2834 12.563Z" fill="white"/>
<path d="M67.7617 42.9576C67.6901 41.9386 67.4237 40.9426 66.9769 40.0229C66.2502 38.5546 65.6762 36.9997 64.7406 35.6307C64.3228 35.0185 63.9886 34.3485 63.5653 33.7381C62.842 32.6693 62.0098 31.6774 61.082 30.7781C60.3354 30.0701 59.6559 29.2845 58.8639 28.6326C57.8666 27.8109 56.684 27.2817 55.5177 26.7165C53.7792 25.8767 51.919 25.5281 50.0552 25.2193C49.0156 25.033 47.9537 25.0032 46.9051 25.1308C45.0359 25.3855 43.1066 24.7895 41.2737 25.5227C40.4871 25.8369 39.6224 25.6148 38.8249 25.9092C38.1999 26.1404 37.5532 26.3011 36.9083 26.4979C35.8941 26.8349 34.9258 27.2953 34.0254 27.8687C33.2515 28.34 32.5285 28.9017 31.7292 29.3134C30.9299 29.7252 30.3431 30.3085 29.7654 30.9099C28.7063 32.0116 27.7454 33.2053 26.7444 34.3611C26.6461 34.462 26.5557 34.5701 26.4737 34.6844C25.5605 36.1458 24.7648 37.6766 24.094 39.2626C23.1998 41.2804 22.548 43.3959 22.152 45.5654C21.8414 47.4057 22.0703 49.2369 22.0939 51.0718C22.0939 51.5775 22.6098 51.8953 23.1639 51.8917C23.8033 51.8917 23.9468 51.4132 23.8905 50.9996C23.7415 49.8727 23.9959 48.7548 23.8342 47.6314C23.9777 46.9199 23.7979 46.1867 23.9977 45.4769C24.381 44.1044 24.7607 42.7336 25.2076 41.3755C25.718 39.8242 26.4792 38.3993 27.2458 36.987C27.8871 35.8023 28.7881 34.7494 29.6237 33.6767C31.2042 31.6522 33.3605 30.3158 35.4968 28.9811C36.4051 28.4141 37.4679 28.1703 38.4379 27.7314C39.0374 27.4605 39.586 27.1698 40.2709 27.3865C40.4503 27.4277 40.6386 27.4053 40.8031 27.3233C41.3717 27.0451 41.9839 27.0596 42.5871 27.0343C43.9132 26.9765 45.2557 27.0542 46.5636 26.8754C48.6473 26.59 50.6147 27.0668 52.6093 27.484C53.257 27.622 53.8858 27.8366 54.4822 28.1233C55.4469 28.582 56.4369 29.0263 57.2998 29.6457C58.146 30.263 58.9144 30.9791 59.5887 31.7786C60.3154 32.631 61.2963 33.2776 61.7886 34.3341C62.1629 35.1377 62.795 35.7788 63.1874 36.5825C63.5508 37.3229 64.0558 38.0038 64.4445 38.7497C64.7188 39.2752 64.8078 39.8639 65.0767 40.375C65.5746 41.3348 65.8993 42.3739 66.0359 43.4452C66.2048 44.7365 66.5809 45.9862 66.639 47.31C66.6898 48.6608 67.0441 49.9973 66.9841 51.3662C66.9868 51.5691 67.0243 51.77 67.095 51.9604C67.2221 52.3631 67.7635 52.5022 68.0033 52.168C68.2921 51.7671 68.5955 51.3481 68.5955 50.8082C68.5955 50.0081 68.6191 49.2063 68.6082 48.4062C68.5955 47.3371 68.2757 46.3059 68.2031 45.2439C68.154 44.4746 67.8216 43.7522 67.7617 42.9576Z" fill="white"/>
<path d="M77.1063 10.934C76.1798 10.5277 75.1589 10.4266 74.1271 10.4735C72.7101 10.5385 71.2913 10.3417 69.8762 10.7534C69.2271 10.9588 68.6143 11.2635 68.0596 11.6564C67.1513 12.2578 66.2829 12.8646 65.5963 13.7676C64.2374 15.5555 63.6398 17.5493 63.5453 19.7273C63.5453 20.4226 63.6034 21.1017 63.6379 21.7843C63.707 23.1171 64.3101 24.1881 65.1566 25.1146C65.8799 25.875 66.6703 26.5695 67.5182 27.1896C68.0769 27.5956 68.719 27.8737 69.3984 28.0041C70.3067 28.1937 71.2023 28.3761 72.107 28.5567L72.652 28.6669C73.1515 28.7213 73.6536 28.7478 74.1561 28.7464C75.5004 28.7373 76.3361 28.2804 77.5441 27.8271C79.5605 27.074 81.0774 24.8816 81.8349 22.951C82.0838 22.3171 82.122 21.6597 82.2346 21.006C82.5761 19.0194 82.2346 17.1285 81.4898 15.2702C80.6451 13.1915 79.1118 11.8117 77.1063 10.934ZM79.6586 23.258C78.7049 24.9285 77.1953 26.2975 75.3478 26.9133C74.9163 27.056 74.4575 27.0974 74.0072 27.0343C73.8547 27.0527 73.7012 27.0611 73.5476 27.0596C73.3901 27.0563 73.233 27.0437 73.0771 27.0217C72.9002 27.0421 72.724 27.0566 72.5484 27.065C71.1021 27.1506 69.6671 26.7652 68.4611 25.967C67.2494 25.1615 66.0359 24.235 65.6326 22.7054C65.4092 21.7844 65.3242 20.8356 65.3801 19.8899C65.4556 17.988 66.0346 16.1397 67.0586 14.5315C67.3584 13.9916 67.8481 13.5806 68.4338 13.3775C69.0242 13.1969 69.4765 12.7039 70.0687 12.4547C70.9589 12.0772 71.8854 12.1314 72.8082 12.0429C74.7156 11.8208 76.3851 12.5576 78.0219 13.3559C78.6012 13.6725 79.0472 14.1851 79.279 14.8006C79.9075 16.2851 80.4761 17.8058 80.5124 19.4366C80.5342 20.4551 80.4725 21.5387 80.0728 22.4489C79.9489 22.7255 79.8106 22.9956 79.6586 23.258Z" fill="white"/>
<path d="M90.9852 49.0473C90.9852 47.9637 90.5928 46.9091 90.4802 45.8363C90.3367 44.4656 89.6645 43.2899 89.2594 42.0203C88.9433 41.0288 88.3275 40.1601 87.8225 39.2499C87.2861 38.303 86.6344 37.4253 85.8823 36.6367C85.0226 35.6775 84.0691 34.8057 83.0357 34.0343C82.2836 33.4925 81.6424 32.817 80.7595 32.4486C80.3586 32.3094 79.9751 32.1245 79.6169 31.8978C79.1636 31.5726 78.6764 31.2971 78.1636 31.0761C77.9946 31.002 77.822 30.9316 77.6495 30.8648C76.2452 29.8498 74.2106 30.3555 72.8082 29.5627C72.6629 29.541 72.5175 29.5211 72.3722 29.5049C71.7857 29.4331 71.1932 29.4235 70.6047 29.476C69.7454 29.5573 68.8807 29.5356 68.0214 29.6746C66.9714 29.8426 65.9832 30.202 64.9804 30.5144C64.4827 30.6697 64.1956 31.0887 64.0612 31.5673C63.9722 31.8815 64.1121 32.138 64.45 32.2897C65.0258 32.5552 65.5654 32.4107 66.0849 32.1886C66.3258 32.0854 66.572 31.9949 66.8225 31.9177C68.0608 31.5481 69.3446 31.3499 70.6374 31.3289C71.929 31.2892 73.1697 31.5998 74.4105 31.896C75.9473 32.2572 77.4442 32.734 78.8394 33.5087C79.497 33.8699 80.0692 34.3611 80.7105 34.7241C82.2698 35.607 83.6627 36.7528 84.8269 38.1103C86.0773 39.5937 87.0607 41.2806 87.7335 43.0966C88.0096 43.819 88.0968 44.5793 88.3275 45.3072C88.7297 46.4823 88.9573 47.7094 89.0033 48.9498C89.0215 49.9702 89.1068 50.9869 89.0505 52.0091C89.0321 52.1918 89.0657 52.3759 89.1476 52.5404C89.2296 52.7049 89.3565 52.8431 89.5138 52.9392C89.8208 53.1108 90.0969 52.8561 90.3912 52.7026C90.9452 52.4137 91.0252 51.9658 90.9943 51.4475C90.9398 50.6456 90.9907 49.8474 90.9852 49.0473Z" fill="white"/>
<path d="M9.51385 15.2792C8.76904 17.1376 8.42388 19.0248 8.76904 21.015C8.88167 21.6688 8.91982 22.3261 9.16869 22.96C9.92622 24.8888 11.4431 27.0813 13.4595 27.8362C14.6748 28.2895 15.5032 28.7391 16.8475 28.7554C17.35 28.7568 17.8522 28.7303 18.3517 28.6759L18.8966 28.5658C19.8049 28.3852 20.7024 28.2046 21.6052 28.0131C22.2847 27.8827 22.9267 27.6046 23.4854 27.1986C24.3334 26.5785 25.1237 25.884 25.847 25.1236C26.6935 24.1971 27.3003 23.128 27.3657 21.7934C27.4002 21.1107 27.4674 20.4299 27.4583 19.7364C27.362 17.5529 26.7662 15.5591 25.4074 13.7767C24.7207 12.8737 23.8524 12.2669 22.944 11.6655C22.3894 11.2725 21.7765 10.9678 21.1274 10.7625C19.7123 10.3507 18.2935 10.5476 16.8766 10.4826C15.8447 10.4356 14.8238 10.5385 13.8973 10.9431C11.8827 11.8118 10.3495 13.1915 9.51385 15.2792ZM10.9163 22.4399C10.5166 21.5369 10.4548 20.4533 10.4766 19.4275C10.513 17.8022 11.0816 16.2761 11.7101 14.7916C11.9419 14.1761 12.3879 13.6635 12.9672 13.3468C14.6022 12.5504 16.2735 11.8117 18.1809 12.0339C19.0892 12.1224 20.032 12.0682 20.9203 12.4456C21.5107 12.6949 21.9631 13.1825 22.5553 13.3685C23.141 13.5716 23.6307 13.9826 23.9305 14.5225C24.9545 16.1307 25.5335 17.979 25.609 19.8808C25.6649 20.8266 25.5798 21.7754 25.3565 22.6964C24.9532 24.226 23.7397 25.1525 22.528 25.9579C21.322 26.7561 19.887 27.1416 18.4407 27.056C18.2639 27.0476 18.0876 27.0331 17.912 27.0126C17.7561 27.0346 17.599 27.0473 17.4415 27.0506C17.2879 27.0521 17.1344 27.0436 16.9819 27.0253C16.5316 27.0884 16.0728 27.047 15.6413 26.9043C13.7938 26.2884 12.2842 24.9177 11.3305 23.249C11.1785 22.9866 11.0402 22.7165 10.9163 22.4399Z" fill="white"/>
<path d="M0.0166063 49.0473C0.0166063 47.9637 0.408994 46.9091 0.521624 45.8363C0.665136 44.4656 1.33728 43.2899 1.74239 42.0203C2.05848 41.0288 2.67431 40.1601 3.17933 39.2499C3.71405 38.3033 4.36382 37.4256 5.11402 36.6367C5.97506 35.6786 6.92985 34.808 7.96428 34.0379C8.71636 33.4961 9.35762 32.8206 10.2405 32.4522C10.6414 32.313 11.0249 32.1282 11.3831 31.9014C11.8364 31.5762 12.3236 31.3007 12.8364 31.0797C13.0054 31.0056 13.1779 30.9352 13.3505 30.8684C14.7548 29.8534 16.7894 30.3591 18.1918 29.5663C18.3371 29.5446 18.4825 29.5247 18.6278 29.5085C19.2143 29.4368 19.8068 29.4271 20.3953 29.4796C21.2546 29.5609 22.1193 29.5392 22.9786 29.6783C24.0286 29.8462 25.0168 30.2056 26.0196 30.518C26.5173 30.6733 26.8043 31.0923 26.9388 31.5709C27.0278 31.8852 26.8879 32.1416 26.55 32.2933C25.9742 32.5588 25.4346 32.4143 24.9151 32.1922C24.6742 32.089 24.428 31.9986 24.1775 31.9213C22.9392 31.5517 21.6554 31.3536 20.3626 31.3325C19.071 31.2928 17.8303 31.6034 16.5895 31.8996C15.0527 32.2608 13.5558 32.7376 12.1607 33.5123C11.503 33.8735 10.9308 34.3648 10.2895 34.7278C8.73023 35.6106 7.33732 36.7564 6.1731 38.114C4.92265 39.5973 3.93933 41.2842 3.26652 43.1003C2.9904 43.8226 2.9032 44.583 2.67249 45.3108C2.27033 46.4859 2.04267 47.713 1.99671 48.9534C1.97854 49.9738 1.89316 50.9906 1.94948 52.0127C1.96794 52.1954 1.93428 52.3795 1.85235 52.544C1.77043 52.7085 1.64354 52.8467 1.48624 52.9428C1.17924 53.1144 0.903111 52.8597 0.60882 52.7062C0.0547542 52.4173 -0.0251753 51.9694 0.0057071 51.4511C0.0547556 50.6456 0.00570666 49.8474 0.0166063 49.0473Z" fill="white"/>
</svg>
