<svg width="37" height="37" viewBox="0 0 31 31" fill="none" xmlns="http://www.w3.org/2000/svg">
<path d="M15.244 29.7881C23.0611 29.7881 29.3981 23.4511 29.3981 15.634C29.3981 7.81696 23.0611 1.47998 15.244 1.47998C7.42695 1.47998 1.08997 7.81696 1.08997 15.634C1.08997 23.4511 7.42695 29.7881 15.244 29.7881Z" stroke="rgb(153, 153, 153)" stroke-width="2"/>
<path d="M11.3195 19.4943V16.8565H11.8342H12.3489V16.4705V16.0844H10.9335H9.51805V16.4705V16.8565H9.9684H10.4188V19.43C10.4188 20.8454 10.4188 22.0034 10.4188 22.0677C10.4188 22.0677 10.5474 22.0677 10.8691 22.0677H11.3195V19.4943ZM19.4259 19.3013C19.4259 19.2369 19.4259 18.6579 19.4902 18.5292C19.5546 18.3362 19.6832 18.2076 19.8762 18.2076C20.0692 18.2076 20.1336 18.2719 20.1979 18.4006C20.2623 18.4649 20.2623 18.5292 20.2623 18.9153V19.3013H19.8119C19.4902 19.3656 19.4259 19.3656 19.4259 19.3013ZM20.1979 22.1321C20.5839 22.0034 20.9056 21.7461 20.97 21.36C20.97 21.2957 21.0343 21.1027 21.0343 20.9097V20.588H20.6483H20.2623V20.8454C20.2623 21.167 20.1979 21.2314 20.1336 21.36C20.0049 21.4887 19.8119 21.4887 19.6189 21.36C19.4259 21.2314 19.4259 21.0384 19.4259 20.395V19.9446H20.2623H21.0986V19.3013C21.0986 18.5292 21.0986 18.4649 20.97 18.1432C20.7126 17.6285 20.0692 17.3712 19.4902 17.5642C19.1042 17.6929 18.8469 18.0145 18.7182 18.4006C18.6538 18.5292 18.6538 18.6579 18.6538 19.7516C18.6538 21.1027 18.6538 21.167 18.7825 21.4244C19.0399 22.0034 19.6832 22.2608 20.1979 22.1321ZM16.9811 21.36C17.0454 21.2957 17.0454 21.2957 17.1098 21.2314C17.1741 21.1027 17.1741 21.0384 17.1098 19.8803C17.1098 18.6579 17.1098 18.5936 17.0454 18.5292C16.9168 18.3362 16.7237 18.3362 16.4664 18.4649L16.4021 18.5292V19.8803V21.2314L16.4664 21.2957C16.6594 21.4244 16.8524 21.4244 16.9811 21.36ZM17.4958 22.1321C17.6245 22.0678 17.7531 21.9391 17.8175 21.8104C17.9461 21.4887 17.9461 21.4887 17.9461 19.8803C17.9461 18.5292 17.9461 18.4006 17.8818 18.2076C17.7531 17.7572 17.5601 17.5642 17.1741 17.5642C16.9811 17.5642 16.7881 17.6929 16.5951 17.8859C16.5307 17.9502 16.4021 18.0145 16.4021 18.0145C16.4021 18.0145 16.4021 17.5642 16.4021 17.0495V16.0844H16.016H15.63V19.1083V22.1321H16.016H16.4021V21.9391C16.4021 21.8104 16.4021 21.7461 16.4021 21.7461C16.4021 21.7461 16.5307 21.8104 16.5951 21.8747C16.9168 22.1321 17.1741 22.2608 17.4958 22.1321ZM13.3782 22.1321C13.5069 22.0678 13.6999 21.9391 13.8929 21.8104C13.9573 21.7461 14.0216 21.6817 14.0216 21.6817C14.0216 21.6817 14.0216 21.7461 14.0216 21.9391V22.1964H14.4076H14.7936V19.9446V17.6929H14.4076H14.0216V19.43V21.167L13.8286 21.36C13.6999 21.4887 13.6356 21.5531 13.5713 21.5531C13.4426 21.6174 13.3782 21.5531 13.3139 21.4887C13.2496 21.4244 13.2496 21.3601 13.2496 19.5586V17.7572H12.8635H12.4775V19.6873C12.4775 21.8104 12.4775 21.8747 12.6062 22.0677C12.7349 22.1964 13.0566 22.2608 13.3782 22.1321ZM13.6999 23.9978C13.1852 23.9978 12.6062 23.9978 12.4132 23.9978C10.9335 23.9335 9.90407 23.8692 9.64672 23.8692C9.32504 23.8048 9.00335 23.6118 8.81034 23.3545C8.48866 22.9685 8.35999 22.5181 8.29565 21.8104C8.10264 20.202 8.10264 18.2719 8.29565 16.7278C8.35999 16.0201 8.61733 15.5698 8.93902 15.1837C9.13203 14.9907 9.32504 14.862 9.58238 14.7977C10.1614 14.669 14.472 14.5404 17.0454 14.6047C18.5895 14.669 20.1979 14.7334 20.6483 14.7334C21.2273 14.7977 21.6133 15.1194 21.8707 15.6341C22.0637 16.0844 22.128 16.4061 22.2567 17.3712C22.321 18.1432 22.321 18.6579 22.321 19.5586C22.321 20.6523 22.2567 21.6174 22.128 22.1964C21.9993 22.7755 21.742 23.2901 21.4203 23.5475C21.163 23.7405 20.9056 23.8692 20.4553 23.8692C20.3266 23.8692 20.1336 23.8692 20.0693 23.8692C19.8119 23.8692 18.4608 23.9335 17.7531 23.9335C16.6594 23.9978 14.7293 23.9978 13.6999 23.9978ZM12.3489 14.0257C12.3489 14.0257 12.3489 12.2243 12.3489 11.9669C12.3489 11.6452 12.3489 11.3879 12.0915 10.7445C12.0272 10.5515 11.8985 10.1011 11.7698 9.8438C11.1265 7.78502 11.1265 7.9137 11.1908 7.9137C11.6412 7.9137 12.1558 7.9137 12.1558 7.9137C12.1558 7.9137 12.2845 8.42839 12.4775 9.00742C12.6705 9.65078 12.7992 10.1011 12.7992 10.1655C12.7992 10.1655 12.9279 9.8438 12.9922 9.39344C13.2496 8.42839 13.3782 7.9137 13.3782 7.9137C13.3782 7.9137 13.5069 7.9137 13.8929 7.9137H14.3433V7.97803C14.3433 8.04237 14.0216 9.00742 13.6999 10.0368C13.6356 10.1655 13.5713 10.4228 13.5069 10.6802C13.4426 10.9375 13.3782 11.1949 13.3139 11.3235L13.2496 11.5165V12.7389C13.2496 13.897 13.2496 13.9613 13.1852 13.9613C13.1852 14.09 12.3489 14.0257 12.3489 14.0257ZM18.0105 14.09C17.8175 14.09 17.6888 13.9613 17.5601 13.8327C17.4314 13.6397 17.4314 13.6397 17.4314 11.4522V9.45778H17.8818H18.3322V11.3235C18.3322 13.318 18.3322 13.2536 18.4608 13.318C18.5895 13.318 18.7182 13.318 18.8469 13.125L18.9755 12.9963V11.2592V9.52211H19.4259H19.8762V11.7739V14.0257H19.8119C19.7476 14.0257 19.1042 14.0257 19.0399 14.0257C19.0399 14.0257 18.9755 13.9613 18.9755 13.8327V13.6397L18.8469 13.7683C18.5895 14.0257 18.2678 14.1543 18.0105 14.09ZM15.823 13.2536C15.9517 13.125 15.9517 13.125 15.9517 11.8382C15.9517 10.8088 15.9517 10.6802 15.9517 10.5515C15.8874 10.3585 15.823 10.2942 15.6944 10.2298C15.5014 10.1655 15.3727 10.2942 15.3083 10.4872C15.244 10.6158 15.244 12.932 15.3083 13.0606C15.3727 13.1893 15.437 13.318 15.5014 13.318C15.63 13.318 15.7587 13.2536 15.823 13.2536ZM15.437 14.09C15.051 14.0257 14.665 13.8327 14.5363 13.511C14.3433 13.1893 14.3433 12.9963 14.3433 11.6452C14.3433 10.5515 14.3433 10.4872 14.4076 10.3585C14.5363 9.97247 14.7293 9.71512 14.9867 9.58645C15.437 9.39344 15.8874 9.39344 16.2734 9.65078C16.5307 9.84379 16.6594 10.0368 16.7881 10.4228C16.8524 10.5515 16.8524 10.6802 16.8524 11.7739C16.8524 13.125 16.8524 13.1893 16.7237 13.4466C16.5951 13.704 16.2734 13.9613 16.016 14.0257C15.823 14.09 15.5657 14.09 15.437 14.09Z" fill="rgb(153, 153, 153)"/>
</svg>
