<svg width="95" height="37" viewBox="0 0 95 37" fill="none" xmlns="http://www.w3.org/2000/svg">
<path d="M63.3257 24.5429C63.2637 24.7421 63.1471 24.9353 63.0177 25.1109C62.6826 25.5647 62.3314 26.0087 61.9818 26.4538C61.7087 26.8015 61.3913 27.1282 61.3146 27.5635C61.2955 27.6714 61.1919 27.6979 61.0914 27.7403C60.9737 27.7899 60.8474 27.8542 60.771 27.9421C60.1902 28.6078 59.4009 29.0729 58.6512 29.5731C58.3103 29.8049 57.9433 30.0068 57.5556 30.1756C56.8019 30.4954 56.0291 30.7811 55.2589 31.0726C54.6628 31.2975 54.0623 31.5136 53.4572 31.721C52.7504 31.962 52.0443 32.2244 51.2849 32.3034C50.313 32.4046 49.3598 32.6076 48.3782 32.6367C48.2442 32.6407 48.1101 32.6776 47.9761 32.6967C47.4673 32.7682 46.9593 32.8469 46.4488 32.9071C45.9384 32.9674 45.424 33.0086 44.9116 33.0596C43.9397 33.1562 42.9761 33.2568 42.0347 33.5209C41.3644 33.7089 40.6764 33.8499 40.0122 34.0575C39.937 34.082 39.8578 34.096 39.7776 34.099C39.7515 34.0989 39.7257 34.0939 39.7021 34.0844C39.6785 34.0748 39.6576 34.0609 39.6408 34.0437C39.6187 34.0128 39.6211 33.9387 39.6485 33.9171C39.7665 33.824 39.8831 33.719 40.0262 33.6619C40.8359 33.3356 41.644 33.0095 42.4077 32.6044C43.007 32.2873 43.6477 32.0237 44.2383 31.6968C44.9236 31.3185 45.5822 30.9039 46.1861 30.4282C46.4066 30.2546 46.6398 30.0933 46.8842 29.9453C47.1982 29.7556 47.467 29.5295 47.7317 29.2923C48.3708 28.7191 49.0217 28.1603 49.8005 27.7155C50.9876 27.0374 51.9414 26.1387 52.8661 25.2158C53.6634 24.4201 54.4144 23.5883 55.3196 22.8753C55.6591 22.608 55.9604 22.2987 56.3274 22.0648C57.6843 21.1999 59.1469 20.4834 60.654 19.8322C61.4138 19.5038 62.192 19.2402 63.067 19.3017C63.1478 19.3074 63.2299 19.2947 63.3113 19.2956C63.5459 19.2976 63.7312 19.2129 63.8747 19.0577C63.9927 18.93 64.117 18.8055 64.2212 18.6697C64.5061 18.2995 64.7829 17.9244 65.0591 17.5502C65.0897 17.5114 65.1103 17.4675 65.1194 17.4213C65.1213 17.3779 65.1116 17.3347 65.0912 17.295C65.0833 17.2866 65.0729 17.28 65.0612 17.276C65.0495 17.2721 65.0367 17.2707 65.0242 17.2722C62.9464 17.75 60.8236 18.0184 58.6901 18.2286C58.1247 18.2842 57.5506 18.3251 56.9829 18.2989C55.7539 18.2412 54.5424 18.3989 53.3235 18.4572C53.2153 18.4642 53.1081 18.4803 53.0035 18.5053C52.6348 18.5869 52.2662 18.6636 51.9035 18.7591C50.9987 18.9966 50.0603 19.152 49.2318 19.5796C49.1206 19.6373 48.9724 19.643 48.8407 19.6704C48.6822 19.703 48.515 19.7148 48.3658 19.7664C47.3853 20.1104 46.3648 20.363 45.3218 20.5198C45.1653 20.5426 44.9806 20.5699 44.8713 20.655C44.6501 20.828 44.3857 20.8444 44.123 20.898C43.6219 21.0004 43.1088 21.0803 42.6296 21.2359C40.9539 21.7806 39.2913 22.3578 37.6545 22.9857C37.2603 23.1368 36.8971 23.3473 36.5197 23.5303C36.3521 23.8057 36.024 23.8763 35.7278 23.9876C35.4791 24.0816 35.2358 24.1865 34.9868 24.2799C34.7187 24.38 34.4505 24.4783 34.1489 24.4702C34.3604 24.2304 34.662 24.0905 34.9533 23.942C35.0685 23.8844 35.1905 23.8339 35.3119 23.7852C35.9453 23.5312 36.5465 23.2394 37.0857 22.8473C37.4306 22.5965 37.7765 22.3284 38.2252 22.2084C38.1964 22.2474 38.1728 22.2891 38.1548 22.3327C38.1347 22.4053 38.1589 22.4717 38.2554 22.4866C38.3091 22.4936 38.3641 22.4877 38.4142 22.4696C39.2389 22.1688 40.0625 21.866 40.8852 21.5612C40.9823 21.5199 41.0751 21.4717 41.1627 21.417C41.1825 21.4058 41.2089 21.3709 41.2036 21.3642C41.1795 21.3354 41.1399 21.2852 41.1148 21.2887C40.5266 21.372 39.9347 21.4435 39.3543 21.5568C39.0064 21.6246 38.7296 21.831 38.4678 22.038C38.4652 21.9711 38.4886 21.8901 38.4524 21.8417C38.4286 21.8149 38.3983 21.7929 38.3636 21.7772C38.3288 21.7616 38.2905 21.7527 38.2513 21.7512C37.9293 21.7612 37.6069 21.778 37.2872 21.8108C36.829 21.8578 36.3947 21.9613 36.02 22.2162C35.9894 22.2367 35.9565 22.2546 35.9218 22.2695C35.8182 22.3154 35.6986 22.3436 35.5904 22.3849C35.5954 22.3794 35.6007 22.3748 35.6058 22.369L35.5924 22.3742C35.6014 22.3567 35.6094 22.3388 35.6162 22.3206C35.6885 22.1017 35.6497 22.0271 35.4643 22.0323C35.3303 22.0351 35.1929 22.0398 35.0585 22.0527C34.4391 22.1125 33.82 22.1742 33.2012 22.2378C32.8935 22.2693 32.6445 22.4074 32.4015 22.5619C31.8341 22.9229 31.2657 23.2861 30.6196 23.537C29.8055 23.8541 28.9808 24.1488 28.1593 24.4512C27.9606 24.5244 27.7525 24.5798 27.5591 24.6617C27.5035 24.6853 27.4726 24.7709 27.4559 24.8329C27.4508 24.8514 27.5283 24.9041 27.5752 24.9125C28.0779 25.0036 28.5806 25.0967 29.088 25.172C29.2218 25.1949 29.3601 25.1889 29.4904 25.1544C29.6208 25.1198 29.7391 25.0579 29.8347 24.9742C30.0911 24.7626 30.4021 24.6187 30.7238 24.4893C31.7061 24.0943 32.684 23.6909 33.6653 23.2942C33.7595 23.2562 33.8664 23.2394 33.9669 23.2138C33.9619 23.2178 33.9562 23.221 33.9509 23.2247L33.9673 23.2198C33.7444 23.5021 33.4059 23.6442 33.0473 23.7411C32.1877 23.9738 31.4336 24.3846 30.6575 24.7588C30.6113 24.7827 30.5745 24.8178 30.5515 24.8597C30.5343 24.9018 30.5291 24.9468 30.5365 24.9909C30.5365 25.0053 30.5747 25.0258 30.5981 25.029C30.703 25.0431 30.8126 25.0719 30.9142 25.0578C31.261 25.0134 31.6042 24.9503 31.9504 24.901C32.2631 24.8566 32.5771 24.8191 32.8905 24.7793C31.9283 25.1253 30.9075 25.251 29.8803 25.3124C28.5122 25.394 27.1727 25.1682 25.8556 24.8857C25.0647 24.7165 24.2754 24.5518 23.4718 24.442C22.9905 24.3762 22.4999 24.3607 22.0229 24.2765C21.5202 24.1874 21.0283 24.0444 20.5319 23.9239C20.2444 23.8541 19.9572 23.7834 19.6703 23.7117C19.4095 23.6468 19.1535 23.5482 18.8877 23.5205C18.1504 23.4438 17.4771 23.2034 16.7888 22.9895C15.97 22.7346 15.2471 22.307 14.423 22.0646C14.0389 21.9515 13.6612 21.8229 13.2835 21.6926C13.1693 21.6531 13.1455 21.5713 13.1907 21.4634C13.3094 21.1791 13.2785 21.1174 12.9896 21.1042C12.2305 21.071 11.4795 20.9629 10.7144 20.9759C10.0639 20.9871 9.41203 20.9292 8.76086 20.8989C8.2729 20.8761 7.78494 20.8222 7.29765 20.8283C6.37635 20.8398 5.45439 20.8453 4.53276 20.8995C3.68687 20.9494 2.86075 21.0327 2.04201 21.212C1.78027 21.2697 1.50813 21.2913 1.23768 21.321C1.21289 21.3201 1.18874 21.314 1.1674 21.3031C1.14606 21.2922 1.12817 21.277 1.11535 21.2587C1.09892 21.2253 1.112 21.1538 1.14182 21.1362C1.27225 21.0546 1.41114 20.9836 1.55673 20.924C2.79674 20.4486 4.07027 20.0475 5.28279 19.5173C5.81902 19.2823 6.32842 19.0272 6.78019 18.6812C7.28826 18.2934 7.81711 17.9316 8.40527 17.6289C8.9177 17.3649 9.41228 17.0762 9.88659 16.7639C11.0321 16.0143 12.1742 15.2592 13.4538 14.68C14.1023 14.3865 14.7417 14.0728 15.412 13.8205C16.2321 13.5118 17.0813 13.2598 17.9162 12.9793C18.3724 12.8288 18.8479 12.7254 19.3325 12.6713C19.8709 12.6116 20.413 12.5791 20.9559 12.5742C21.5792 12.5638 22.2012 12.5107 22.8243 12.4816C23.6112 12.4447 24.3994 12.409 25.1846 12.4983C27.225 12.729 29.1393 13.3206 31.0117 14.0238C31.9078 14.3606 32.7842 14.7351 33.7102 15.0119C33.9194 15.0711 34.1195 15.1516 34.3064 15.2517C34.59 15.4092 34.8963 15.4824 35.2251 15.5112C35.7921 15.5631 36.3608 15.6055 36.9242 15.679C37.5677 15.7629 38.2175 15.8399 38.8445 15.9838C40.5786 16.3819 42.33 16.7106 44.0915 16.9957C44.2788 17.026 44.4765 17.0915 44.6458 16.994C44.8623 16.8692 45.058 16.9188 45.2614 16.994C45.6425 17.1324 46.043 17.1869 46.4522 17.2099C46.6962 17.2238 46.9395 17.2445 47.1828 17.2676C48.0736 17.3489 48.9634 17.4443 49.8555 17.5118C50.9112 17.5914 51.9689 17.6493 53.0259 17.7119C53.3782 17.7327 53.7317 17.7407 54.0846 17.752C54.411 17.7635 54.6523 17.6173 54.8638 17.427C54.8771 17.4084 54.8846 17.3872 54.8857 17.3653C54.8868 17.3435 54.8815 17.3218 54.8702 17.3022C54.8032 17.2304 54.7301 17.1552 54.6396 17.1111C53.8845 16.7417 53.1228 16.3816 52.3674 16.0129C51.9987 15.8327 51.6197 15.7494 51.1944 15.8399C51.0386 15.8733 50.8703 15.8638 50.7078 15.8733C49.136 15.9656 47.5645 16.0642 45.992 16.1443C45.6399 16.158 45.2871 16.14 44.9394 16.0907C44.4571 16.0276 43.9809 15.9298 43.503 15.8425C42.33 15.6277 41.2019 15.2912 40.1063 14.8714C39.4857 14.6336 38.8811 14.3764 38.2993 14.0688C37.4675 13.6288 36.5998 13.239 35.7465 12.829C35.2247 12.5785 34.6815 12.3565 34.1828 12.076C33.1596 11.4993 32.1458 10.9106 31.1551 10.2948C30.5804 9.93727 29.9771 9.6256 29.3712 9.31451C28.6959 8.96652 28.0273 8.60901 27.353 8.25958C26.8647 8.00673 26.3865 7.73542 25.8784 7.51688C25.2483 7.24587 24.5918 7.02012 23.946 6.7765C23.7231 6.69231 23.4939 6.61994 23.2757 6.5297C23.1698 6.48617 23.1172 6.39477 23.1795 6.29675C23.263 6.16556 23.2181 6.07792 23.079 6.01189C23.0305 5.99084 22.9803 5.97282 22.9288 5.95798C22.6242 5.85909 22.3169 5.76567 22.0152 5.66015C21.8162 5.5889 21.6215 5.50903 21.4318 5.42085C21.3983 5.40557 21.3738 5.33839 21.3832 5.30264C21.3926 5.26689 21.4562 5.22163 21.4884 5.22566C21.6754 5.24931 21.8695 5.26516 22.0437 5.32254C22.6567 5.52436 23.2941 5.63766 23.9363 5.73771C24.3103 5.79537 24.6833 5.86053 25.0583 5.91358C26.4779 6.11444 27.8979 6.31337 29.3182 6.51038C29.3719 6.51788 29.4262 6.52134 29.4801 6.52682C30.7201 6.65195 31.9702 6.6851 33.2068 6.83647C33.9582 6.92844 34.713 7.00311 35.46 7.11584C36.1279 7.21646 36.7841 7.37273 37.451 7.47883C38.1984 7.59761 38.9505 7.69679 39.7032 7.78732C40.4321 7.87381 41.1345 8.05516 41.8414 8.21748C43.0036 8.48446 44.072 8.9498 45.1314 9.4284C45.8064 9.73256 46.4133 10.1281 47.0417 10.4952C47.8998 10.9931 48.6338 11.6333 49.201 12.3781C49.4691 12.7281 49.7037 13.0989 50.0502 13.4036C50.4894 13.7877 50.8536 14.2303 51.1287 14.7143C51.2004 14.84 51.2906 14.9582 51.3589 15.0854C51.4595 15.2719 51.6304 15.3884 51.8563 15.4089C52.1428 15.4348 52.3624 15.5565 52.5815 15.6972C53.2813 16.1472 54.0642 16.4756 54.8337 16.8216C54.9808 16.8879 55.1323 16.9352 55.3002 16.8723C55.4771 16.8063 55.6192 16.8723 55.7409 16.973C55.8967 17.103 56.0341 17.2503 56.1953 17.3749C56.5288 17.6326 56.9045 17.8013 57.3753 17.7696C57.7544 17.7439 58.1368 17.7514 58.5148 17.7174C59.2441 17.6516 59.974 17.5839 60.6979 17.4867C61.4483 17.3852 62.206 17.2936 62.9353 17.1142C64.0577 16.8377 65.168 16.5177 66.2615 16.166C67.4828 15.7707 68.7013 15.3737 69.9551 15.0612C70.0849 15.0267 70.2106 14.9816 70.3305 14.9265C70.3506 14.9135 70.3671 14.8968 70.3787 14.8776C70.3903 14.8584 70.3967 14.8372 70.3975 14.8155C70.3975 14.7752 70.3656 14.712 70.3305 14.7002C70.0536 14.6062 69.7678 14.5312 69.4926 14.4329C69.0325 14.2683 68.5542 14.2049 68.0602 14.2086C67.4905 14.2127 66.9191 14.2086 66.3483 14.204C66.3095 14.204 66.2709 14.1685 66.232 14.1495C66.2739 14.1224 66.3158 14.095 66.3584 14.0688C66.5169 13.9708 66.4542 13.8468 66.2994 13.8093C66.1446 13.7718 65.9854 13.7271 65.8249 13.7093C65.0617 13.6228 64.363 13.3535 63.6465 13.1413C62.5693 12.8221 61.5093 12.4614 60.4368 12.1299C60.2571 12.0785 60.0675 12.0578 59.8785 12.0688C59.7029 12.0768 59.5594 12.05 59.4261 11.9575C59.0574 11.7029 58.6247 11.5674 58.183 11.4466C58.0017 11.397 57.8197 11.3491 57.6411 11.2935C57.6113 11.2843 57.5969 11.2387 57.5741 11.2099C57.5989 11.2032 57.6247 11.1888 57.6478 11.1914C57.8878 11.2203 58.1267 11.2589 58.3677 11.2747C58.4042 11.2773 58.4927 11.1724 58.4826 11.1306C58.4568 11.0406 58.4079 10.9568 58.3395 10.8852C57.9072 10.4061 57.4045 9.98109 56.9162 9.54603C56.6528 9.31134 56.38 9.07377 56.0646 8.89559C55.5157 8.58393 55.0394 8.20364 54.5729 7.81385C54.3678 7.64259 54.1516 7.53159 53.8788 7.47652C52.7947 7.25856 51.7125 7.03454 50.628 6.8134C50.5755 6.80151 50.5208 6.79819 50.4668 6.8036C50.4165 6.81023 50.3515 6.82493 50.326 6.85607C50.3158 6.87558 50.3113 6.89694 50.3128 6.91831C50.3144 6.93967 50.3221 6.96037 50.3351 6.9786C50.4035 7.05029 50.4793 7.11649 50.5616 7.17639C51.2122 7.672 51.866 8.16415 52.5152 8.6612C52.9214 8.97084 53.3233 9.28405 53.721 9.60081C53.8215 9.67923 53.9241 9.76255 53.9891 9.86029C54.1902 10.1688 54.519 10.3216 54.8866 10.4283C55.1691 10.5099 55.4563 10.5779 55.7432 10.6508C56.1075 10.7437 56.4732 10.8331 56.8354 10.9311C56.8736 10.9415 56.8941 11.0006 56.9226 11.0372C56.8783 11.0562 56.8274 11.0986 56.7909 11.0908C55.7365 10.8645 54.6963 10.5984 53.6858 10.2524C52.7018 9.91536 51.7209 9.57255 50.7366 9.23638C50.6391 9.20322 50.509 9.15882 50.4276 9.18794C50.1508 9.28741 49.943 9.18391 49.7573 9.04379C49.3374 8.72664 48.8189 8.58249 48.3162 8.4095C47.838 8.24545 47.3473 8.1085 46.8674 7.9482C46.2345 7.73677 45.6046 7.51833 44.9779 7.29286C44.6528 7.17552 44.3395 7.03338 44.0208 6.90364C43.8002 6.8134 43.5817 6.71826 43.3572 6.6358C43.265 6.60207 43.1253 6.54642 43.0767 6.65137C43.0522 6.70413 43.1437 6.82436 43.2181 6.87942C43.813 7.32285 44.4152 7.75935 45.0181 8.19499C45.1247 8.26759 45.2359 8.33497 45.3513 8.39681C46.1221 8.83649 46.9033 9.25916 47.7451 9.59331C47.9173 9.66256 48.0851 9.73955 48.2479 9.82396C48.9238 10.1699 49.5944 10.526 50.2728 10.87C51.7259 11.6069 53.2478 12.2288 54.7794 12.8305C55.5955 13.1511 56.4436 13.4078 57.3133 13.5974C58.606 13.8802 59.9033 14.1227 61.2449 14.1374C61.4074 14.1391 61.5693 14.1685 61.7318 14.1752C62.2469 14.1959 62.7624 14.2199 63.2778 14.2282C63.9568 14.2395 64.6365 14.236 65.3154 14.2423C65.3414 14.2435 65.3668 14.2488 65.3905 14.2579C65.4153 14.2663 65.4404 14.2767 65.4652 14.2839C65.4351 14.2957 65.4056 14.3127 65.3758 14.3254C65.3479 14.3395 65.317 14.3486 65.2849 14.3522C65.0684 14.3675 64.8493 14.3779 64.6334 14.3767C63.4377 14.3701 62.2422 14.3548 61.0475 14.3519C60.3926 14.3519 59.7501 14.2758 59.1057 14.1824C57.6807 13.9754 56.2872 13.6755 54.958 13.1831C54.3102 12.9429 53.6939 12.6382 53.0407 12.4101C51.8265 11.986 50.6977 11.4261 49.5871 10.8408C48.7298 10.3891 47.85 9.9759 46.9636 9.57226C46.0772 9.16863 45.1874 8.76643 44.4166 8.19557C43.6766 7.64778 42.9185 7.11526 42.1658 6.579C41.8732 6.37055 41.5813 6.16009 41.2746 5.96778C40.7924 5.66534 40.3007 5.37386 39.8081 5.08353C39.0037 4.60839 38.2115 4.10932 37.2758 3.82677C37.2266 3.80837 37.1819 3.78216 37.1441 3.7495C37.1273 3.73653 37.1105 3.69703 37.1209 3.68838C37.1511 3.65955 37.188 3.62409 37.2305 3.6163C37.2842 3.60875 37.3392 3.61302 37.3904 3.6287C38.0365 3.80774 38.6931 3.96401 39.3251 4.17477C40.7763 4.65884 42.3002 4.90823 43.8002 5.23258C44.8794 5.46612 45.9729 5.6492 47.0561 5.87004C48.1393 6.09089 49.2144 6.33769 50.2969 6.5594C53.1791 7.14929 56.0385 7.79914 58.8493 8.60642C59.4683 8.78431 60.0866 8.9596 60.6828 9.18679C61.1292 9.35689 61.5579 9.5616 62.0083 9.72449C62.8641 10.0285 63.6488 10.4632 64.3248 11.0075C64.4444 11.1029 64.5706 11.1919 64.7028 11.2742C65.2751 11.6325 65.7892 12.0548 66.2317 12.5301C66.9848 13.3408 68.0384 13.6977 69.1417 13.9731C69.4293 14.0449 69.7115 14.0953 69.9722 14.2383C70.2956 14.4132 70.659 14.526 71.0376 14.569C71.1944 14.5877 71.3727 14.5999 71.5158 14.5549C72.0031 14.4021 72.4897 14.2752 73.0173 14.2827C73.1751 14.285 73.338 14.2337 73.4925 14.1905C74.2998 13.9647 75.1316 13.8664 75.9749 13.8156C76.3536 13.7929 76.7296 13.7372 77.108 13.7067C77.7025 13.6588 78.2974 13.6052 78.8936 13.5807C79.5447 13.5539 80.1976 13.5475 80.8498 13.5518C81.5288 13.5553 82.2124 13.5417 82.8851 13.6055C83.9645 13.7078 85.039 13.8557 86.1111 14.0068C87.0234 14.1351 87.9232 14.3141 88.7822 14.62C89.3589 14.825 89.9394 15.0211 90.5172 15.2278C91.2511 15.491 91.8899 15.886 92.4975 16.3185C92.5992 16.3961 92.688 16.4854 92.7616 16.5837C92.8093 16.6402 92.834 16.7086 92.832 16.7783C92.8246 16.8334 92.7562 16.9225 92.7066 16.9254C92.5985 16.9315 92.4904 16.9147 92.3916 16.8764C91.7437 16.6344 91.0986 16.3882 90.4565 16.1377C89.4424 15.7404 88.4296 15.3492 87.3303 15.1413C86.5361 14.9911 85.7435 14.8242 84.9777 14.5794C84.4632 14.4139 83.926 14.3611 83.3787 14.3531C83.0185 14.3479 82.682 14.3917 82.3562 14.539C82.1186 14.6466 81.8619 14.7408 81.6005 14.7893C80.3521 15.0162 79.1014 15.2341 77.8469 15.4331C77.5617 15.4783 77.2574 15.4351 76.9622 15.4293C76.9484 15.4293 76.9287 15.3991 76.925 15.3812C76.9213 15.3633 76.933 15.3235 76.9434 15.3209C77.1559 15.2898 77.3697 15.2393 77.5828 15.2402C78.052 15.2425 78.4991 15.1508 78.9495 15.0638C79.6372 14.9308 80.3266 14.8043 81.0123 14.6633C81.328 14.599 81.6524 14.5425 81.9142 14.3594C81.9433 14.3389 81.9393 14.2775 81.94 14.2349C81.9393 14.2236 81.9354 14.2126 81.9287 14.2028C81.922 14.1931 81.9126 14.1849 81.9014 14.1789C81.8009 14.1486 81.698 14.112 81.5928 14.1002C80.4841 13.9757 79.3711 14.0457 78.2598 14.0573C78.2059 14.0573 78.1519 14.0691 78.098 14.0737C77.612 14.1155 77.124 14.1435 76.6408 14.202C76.1846 14.2573 75.7302 14.3317 75.2821 14.4234C75.0706 14.4667 74.8689 14.5139 74.6454 14.516C74.1762 14.52 73.7381 14.6486 73.3182 14.8204C73.2847 14.8337 73.2619 14.9 73.2683 14.9372C73.2808 14.9809 73.3117 15.0191 73.3551 15.0444C73.4015 15.0688 73.454 15.0831 73.5082 15.0862C74.21 15.152 74.9125 15.2143 75.6142 15.2803C75.8019 15.2979 75.9889 15.3215 76.1739 15.3526C76.2054 15.3578 76.2249 15.4164 76.2497 15.4504C76.2259 15.4619 76.2014 15.4844 76.1789 15.483C75.45 15.4363 74.7131 15.5118 73.9898 15.3575C73.5954 15.2739 73.1855 15.2402 72.7897 15.1638C72.2887 15.0675 71.803 15.1638 71.3503 15.2999C70.8161 15.461 70.301 15.6877 69.812 15.9359C69.4098 16.1397 68.9812 16.2781 68.5646 16.4459C68.3675 16.5252 68.1665 16.5408 67.9386 16.5324C67.2864 16.5119 66.7083 16.6869 66.3031 17.1647C66.1432 17.3532 65.9773 17.5395 65.8299 17.7341C65.4009 18.3032 64.9414 18.8536 64.4189 19.361C64.1844 19.5877 64.0972 19.8261 64.0975 20.1242C64.0944 20.5208 64.0651 20.9169 64.0101 21.3106C63.9431 21.8204 63.8271 22.3252 63.7674 22.8352C63.6981 23.4222 63.5013 23.9804 63.3257 24.5429ZM50.8321 14.9484C50.87 14.9089 50.8713 14.8072 50.8378 14.7593C50.6421 14.4802 50.4594 14.189 50.2201 13.9388C49.7369 13.4331 49.2348 12.9421 48.8719 12.3605C48.809 12.2564 48.7267 12.162 48.6282 12.0809C48.1104 11.6715 47.6768 11.1871 47.0866 10.8411C46.5936 10.5528 46.1304 10.2322 45.6237 9.9563C44.9762 9.60369 44.2855 9.33671 43.6002 9.0582C42.3712 8.55537 41.0674 8.20114 39.7256 8.00557C38.2269 7.7902 36.7513 7.46816 35.2401 7.30988C34.6483 7.24789 34.0671 7.11469 33.4766 7.03915C32.8606 6.96044 32.2403 6.90393 31.62 6.8529C31.1075 6.81081 30.5911 6.8036 30.0783 6.75776C29.6209 6.71682 29.1668 6.64503 28.7113 6.58477C27.7995 6.46502 26.8878 6.34461 25.9762 6.22351C25.5741 6.17018 25.1719 6.11424 24.8237 6.06667C24.7151 6.08311 24.6618 6.0883 24.6099 6.10012C24.5851 6.10559 24.5428 6.12433 24.5428 6.13471C24.5469 6.17767 24.5502 6.23015 24.5801 6.25955C24.6354 6.31077 24.6987 6.3552 24.7681 6.3916C25.2232 6.64618 25.6706 6.91056 26.1391 7.14698C26.4407 7.29863 26.7638 7.43702 27.0973 7.52438C28.1881 7.81216 29.2975 8.04484 30.4198 8.22123C31.3274 8.36193 32.2396 8.48936 33.1207 8.735C33.5852 8.86446 34.0527 8.9867 34.5152 9.12134C34.9525 9.24858 35.3871 9.38227 35.8193 9.52239C36.5566 9.76111 37.2918 10.0007 38.0221 10.2535C38.2473 10.3317 38.4555 10.4484 38.6649 10.5569C39.7853 11.1369 40.967 11.608 42.1812 12.0206C43.0649 12.3207 43.9551 12.6065 44.8355 12.9144C45.4139 13.1162 45.9793 13.3445 46.551 13.5605C47.4452 13.8984 48.3357 14.2447 49.2358 14.5696C49.6856 14.7322 50.1521 14.8608 50.6153 14.994C50.6789 15.013 50.7932 14.9891 50.8321 14.9484ZM50.8921 15.6657C50.9494 15.6585 51.0081 15.5914 51.0402 15.54C51.0523 15.521 51.0007 15.4536 50.9608 15.4328C50.8673 15.3864 50.77 15.346 50.6696 15.312C49.3226 14.8175 47.9821 14.3095 46.6261 13.8341C44.9186 13.2353 43.2225 12.6125 41.4888 12.0679C40.6227 11.7919 39.7892 11.4453 38.9997 11.0329C38.07 10.5509 37.0907 10.1436 36.0743 9.81589C35.3889 9.59533 34.6892 9.4085 33.9964 9.20438C33.5862 9.08329 33.179 8.95383 32.7675 8.83591C32.5111 8.76239 32.2527 8.66725 31.9883 8.64505C30.8553 8.54908 29.7288 8.40252 28.6134 8.20595C28.5863 8.20452 28.559 8.20627 28.5323 8.21114C28.5119 8.22296 28.4854 8.23305 28.4626 8.2443C28.442 8.25192 28.4253 8.26576 28.4157 8.28322C28.4106 8.30524 28.4116 8.32799 28.4187 8.3496C28.4258 8.37121 28.4388 8.39106 28.4566 8.40748C28.6457 8.5386 28.8433 8.66037 29.0485 8.7722C29.3967 8.95326 29.7579 9.11587 30.1105 9.29116C30.322 9.3961 30.5442 9.49298 30.7325 9.62301C31.8335 10.3879 33.0477 11.0118 34.2247 11.6784C35.2871 12.2804 36.4295 12.778 37.5372 13.3218C38.0791 13.5876 38.6297 13.8407 39.1633 14.119C40.4287 14.778 41.7921 15.2235 43.2251 15.5184C43.8056 15.6378 44.3928 15.7326 44.9719 15.8569C45.3151 15.9276 45.6687 15.9537 46.0209 15.9342C47.2944 15.8779 48.5679 15.8312 49.8414 15.7716C50.194 15.7534 50.5439 15.7096 50.8924 15.6655L50.8921 15.6657ZM23.8598 24.1191C23.8619 24.1554 23.9121 24.192 23.9463 24.2246C23.9654 24.2415 23.9897 24.2533 24.0163 24.2586C24.6752 24.3898 25.3301 24.5417 25.9957 24.6395C26.2904 24.6781 26.5915 24.6575 26.8754 24.5792C28.3986 24.1594 29.9061 23.7002 31.2791 22.9748C31.4839 22.8666 31.6639 22.7233 31.8489 22.5881C31.877 22.5674 31.8824 22.4959 31.8623 22.4618C31.8491 22.4433 31.831 22.4278 31.8095 22.4164C31.788 22.405 31.7637 22.3982 31.7386 22.3964C31.3877 22.4128 31.0372 22.4376 30.6866 22.4601C30.6866 22.4693 30.6866 22.4789 30.6866 22.489C30.4158 22.489 30.1444 22.4803 29.8742 22.4918C29.6862 22.4999 29.4831 22.5025 29.3166 22.5659C28.9077 22.7219 28.4787 22.749 28.0464 22.7677C27.6929 22.7781 27.3474 22.8609 27.0386 23.0094C26.3013 23.3721 25.4947 23.5681 24.6823 23.7564C24.4249 23.8161 24.1796 23.9144 23.9319 24.0037C23.8934 24.0164 23.8582 24.0799 23.8602 24.1188L23.8598 24.1191ZM20.5038 23.432C20.5483 23.4851 20.5819 23.552 20.6408 23.5874C20.6998 23.6229 20.7903 23.639 20.8691 23.6549C21.2645 23.7347 21.6597 23.8149 22.0565 23.8887C22.4819 23.9689 22.9241 23.9532 23.3404 23.8432C24.1172 23.6413 24.8984 23.4534 25.6739 23.2478C25.875 23.1942 26.063 23.099 26.2551 23.0194C26.2657 23.0125 26.274 23.0033 26.2793 22.9927C26.2846 22.9822 26.2866 22.9706 26.2852 22.9592C26.2655 22.92 26.2397 22.864 26.2021 22.8542C26.0992 22.8281 25.993 22.8128 25.8857 22.8087C25.4802 22.7911 25.0744 22.7799 24.6685 22.7649C23.7905 22.6475 22.9563 22.7626 22.1275 23.0402C21.654 23.1988 21.1338 23.2544 20.6355 23.3599C20.5879 23.37 20.5477 23.4069 20.5038 23.4317V23.432ZM16.4486 22.1831C16.4084 22.2096 16.3571 22.2407 16.3457 22.2776C16.3343 22.3145 16.3531 22.3857 16.3829 22.3978C16.775 22.5553 17.1691 22.7095 17.5673 22.8557C18.3934 23.159 19.2701 23.1728 20.1318 23.0863C20.7461 23.0232 21.3802 23.0111 21.975 22.8231C22.0497 22.8007 22.1187 22.7664 22.1785 22.7219C22.1989 22.7058 22.1858 22.6175 22.1617 22.6066C22.0682 22.5607 21.9661 22.5291 21.8601 22.5132C21.1871 22.4408 20.5128 22.3765 19.8392 22.3093C19.5144 22.2932 19.1974 22.2574 18.8673 22.3292C18.696 22.3664 18.4966 22.3064 18.3096 22.2935C17.7155 22.2525 17.1214 22.2127 16.5274 22.1738C16.5002 22.1692 16.4721 22.1723 16.4473 22.1828L16.4486 22.1831ZM13.7712 21.159C13.77 21.1766 13.77 21.1943 13.7712 21.212H13.9052V21.1544C13.8593 21.1552 13.8144 21.1552 13.7702 21.1587L13.7712 21.159ZM16.1061 21.2521C15.9482 21.2844 15.7942 21.3292 15.6459 21.3859C15.6124 21.3977 15.5967 21.4559 15.5849 21.4954C15.5816 21.507 15.6185 21.5398 15.6389 21.5427C16.0391 21.6004 16.4379 21.6716 16.841 21.7099C17.8934 21.8097 18.9363 21.9847 20.0001 21.9982C20.2427 22.0014 20.4847 22.0478 20.727 22.0752C21.9107 22.2096 23.0897 22.3782 24.2865 22.4163C24.9903 22.4385 25.6961 22.4855 26.4012 22.5097C26.9731 22.5317 27.5449 22.465 28.0893 22.3128C28.3713 22.2303 28.6732 22.2117 28.966 22.2586C29.2006 22.2946 29.457 22.2721 29.6949 22.2341C30.1767 22.1605 30.6655 22.126 31.1548 22.1312C31.2364 22.1315 31.318 22.128 31.3991 22.1205C32.4786 22.0184 33.5577 21.9132 34.6376 21.8126C35.528 21.7298 36.4188 21.6517 37.3096 21.5718C37.5526 21.5499 37.7986 21.543 38.0385 21.5067C39.4551 21.2912 40.8708 21.0718 42.2857 20.8485C42.3656 20.8386 42.4432 20.8181 42.5156 20.7876C42.5492 20.7712 42.5653 20.7155 42.5777 20.6749C42.5773 20.6639 42.5737 20.6532 42.5673 20.6437C42.561 20.6342 42.552 20.6262 42.5411 20.6204C42.472 20.5864 42.3983 20.5598 42.3216 20.5414C41.2326 20.3417 40.1431 20.144 39.053 19.9483C38.4963 19.848 37.9413 19.7387 37.381 19.6557C37.0351 19.6047 36.6812 19.5908 36.3303 19.5692C35.9241 19.5433 35.5123 19.5525 35.1114 19.4994C34.464 19.4129 33.8138 19.3928 33.1619 19.3778C33.0262 19.3746 32.8865 19.3902 32.7551 19.3683C31.9732 19.2379 31.1843 19.2965 30.4979 19.2936C29.3628 19.2581 28.3386 19.3544 27.3161 19.4781C26.5098 19.5758 25.6974 19.6424 24.8968 19.7664C23.2405 20.0236 21.5896 20.3061 19.9367 20.5852C18.6582 20.8012 17.382 21.0261 16.1051 21.2521H16.1061ZM7.32781 19.007C6.94039 19.0226 6.6019 19.1148 6.28117 19.3273C5.98592 19.5228 5.62765 19.652 5.28815 19.7941C4.82868 19.9861 4.35948 20.1614 3.89767 20.3497C3.87052 20.3606 3.86716 20.4252 3.86415 20.465C3.86415 20.4768 3.90604 20.5039 3.92481 20.5013C4.21739 20.4618 4.51701 20.4419 4.79987 20.3719C5.89108 20.102 6.97826 19.8195 8.06344 19.5326C8.31915 19.4651 8.5638 19.3651 8.80878 19.2714C8.84229 19.2587 8.8671 19.1921 8.86107 19.1543C8.85503 19.1166 8.81113 19.0569 8.7756 19.0517C8.51084 19.0148 8.24407 18.9891 8.0383 18.9652C7.7588 18.9828 7.5433 18.9998 7.32781 19.007ZM10.1095 17.3685C10.0294 17.3772 9.94524 17.4227 9.87486 17.4097C9.33462 17.3132 8.93848 17.5649 8.54067 17.8091C8.23335 17.9979 7.93207 18.1942 7.63346 18.3932C7.59995 18.4148 7.58586 18.4797 7.59558 18.518C7.6053 18.5564 7.65356 18.6097 7.69077 18.6132C8.41734 18.6826 9.14392 18.751 9.87184 18.8058C10.0294 18.8176 10.1973 18.7905 10.3518 18.7542C11.4242 18.5019 12.4424 18.1161 13.4739 17.7655C13.5148 17.7517 13.5708 17.679 13.5597 17.6614C13.523 17.6045 13.4721 17.5553 13.4106 17.5173C13.3639 17.493 13.3109 17.4792 13.2564 17.4772C12.5312 17.4086 11.8059 17.3417 11.0569 17.2725C10.7502 17.3025 10.4288 17.3336 10.1074 17.3685H10.1095ZM15.2669 14.1348C14.8959 14.2775 14.537 14.4436 14.1743 14.6022C14.1259 14.6236 14.0846 14.6552 14.0544 14.6941C14.0249 14.7322 14.0104 14.7774 14.0131 14.823C14.0185 14.8614 14.0557 14.9222 14.0899 14.928C14.4612 14.9934 14.8349 15.0493 15.2072 15.1099C15.3929 15.1387 15.5806 15.1647 15.7612 15.2102C15.9258 15.2517 16.0052 15.3685 16.0481 15.5043L16.0354 15.5078L16.0545 15.5213C15.4934 15.4449 14.9432 15.3157 14.3684 15.3042C14.1238 15.2976 13.8823 15.2552 13.6542 15.1788C13.3402 15.0741 13.0751 15.1292 12.8103 15.2716C12.4196 15.4818 12.0214 15.6819 11.6397 15.9036C11.2375 16.1383 10.8454 16.39 10.456 16.6423C10.3742 16.6953 10.3186 16.7801 10.2569 16.8542C10.2197 16.8986 10.2857 17.0142 10.3491 17.0182C10.4831 17.0269 10.6172 17.0361 10.7512 17.0367C11.9195 17.0436 13.0805 17.1033 14.2075 17.3976C14.3949 17.4467 14.5738 17.4642 14.7652 17.4213C15.8403 17.1803 16.9121 16.9312 17.9423 16.565C18.016 16.5388 18.1012 16.5073 18.1434 16.4549C18.1633 16.4276 18.1763 16.3971 18.1814 16.3652C18.1864 16.3333 18.1836 16.3009 18.1729 16.2701C18.1467 16.2124 18.0723 16.1619 18.007 16.1242C17.6883 15.9414 17.3367 15.824 16.9647 15.7459C16.6561 15.6813 16.3544 15.5914 16.0498 15.5118C16.0498 15.5092 16.0478 15.5069 16.0468 15.5043C16.1721 15.474 16.3011 15.4149 16.4218 15.4256C17.2117 15.4956 17.9802 15.6349 18.6434 16.0437C18.8743 16.1862 19.1126 16.2657 19.4049 16.2029C20.3258 16.0039 21.2732 15.8996 22.1768 15.6386C22.327 15.5918 22.4681 15.5257 22.5954 15.4426C22.6654 15.3988 22.4573 15.218 22.211 15.1393C21.0155 14.757 19.8261 14.3608 18.5489 14.2129C18.2299 14.176 17.9222 14.0647 17.6105 13.9883C16.4821 13.7121 16.3564 13.7162 15.2669 14.1348ZM18.6005 13.047C18.2851 13.1121 17.9765 13.1997 17.6779 13.3088C17.5023 13.376 17.1611 13.3569 17.2167 13.606C17.2543 13.775 17.5381 13.7156 17.7194 13.7274C17.7466 13.7274 17.7737 13.7301 17.8002 13.7352C18.9638 14.0443 20.1827 14.1677 21.3309 14.539C22.0146 14.7604 22.7237 14.9207 23.3702 15.2266C23.6383 15.3541 23.9309 15.3645 24.2389 15.3189C25.0395 15.2007 25.8439 15.0978 26.6482 14.9995C26.9424 14.9634 27.2427 14.9637 27.5387 14.9346C27.698 14.9155 27.855 14.8842 28.0079 14.8412C28.034 14.8343 28.045 14.7677 28.0511 14.7258C28.0492 14.7146 28.0443 14.7038 28.0368 14.6944C28.0292 14.6851 28.0192 14.6773 28.0075 14.6719C27.3299 14.3836 26.6552 14.0869 25.9702 13.8107C25.6522 13.6824 25.3224 13.5628 24.9832 13.489C23.9859 13.2725 22.9845 13.0683 21.9844 12.861C21.5963 12.7806 21.1767 12.8132 20.7715 12.7944C20.0386 12.8026 19.3096 12.8875 18.6005 13.0473V13.047ZM32.9136 15.1779C32.925 15.1701 32.9364 15.1603 32.9471 15.1537C32.9394 15.1442 32.933 15.1321 32.926 15.1214C32.9205 15.1114 32.9116 15.1031 32.9005 15.0975C32.4809 14.9343 32.0453 14.7974 31.6424 14.6074C30.4942 14.0673 29.2579 13.7159 28.0357 13.3359C26.8567 12.9692 25.6247 12.8028 24.3806 12.7045C24.2499 12.6941 24.1142 12.7252 23.9815 12.7411C23.959 12.7437 23.9205 12.7699 23.9229 12.7818C23.9306 12.8239 23.9379 12.8815 23.9715 12.9014C24.0397 12.9378 24.1143 12.9648 24.1923 12.9813C24.7114 13.1127 25.2282 13.252 25.7517 13.3691C26.4984 13.5363 27.1429 13.8857 27.8037 14.2052C28.0374 14.3234 28.253 14.4662 28.4455 14.6304C28.6608 14.8112 28.9469 14.9161 29.2475 14.9245C29.5991 14.9406 29.9513 14.951 30.2704 14.9628C31.0459 14.8945 31.7574 15.0718 32.4806 15.1595C32.6147 15.1756 32.7487 15.1846 32.8808 15.1918C32.8934 15.1907 32.9052 15.1858 32.9139 15.1779H32.9136ZM33.6174 15.2932C33.5963 15.2811 33.5752 15.2601 33.5541 15.2598C33.5329 15.2595 33.5118 15.2806 33.4907 15.2924C33.5122 15.3045 33.5333 15.3261 33.5547 15.3264C33.5762 15.3267 33.598 15.3056 33.6187 15.2935L33.6174 15.2932ZM31.1649 15.6709C31.321 15.6493 31.4702 15.5891 31.621 15.5424C31.6323 15.5367 31.6418 15.5287 31.6486 15.5191C31.6554 15.5095 31.6593 15.4985 31.6599 15.4873C31.6528 15.4469 31.6448 15.3852 31.6143 15.372C31.2895 15.2356 30.9386 15.2111 30.5841 15.2099C30.0954 15.2085 29.6071 15.2099 29.1185 15.2099C29.1185 15.205 29.1185 15.1998 29.1185 15.1949C28.9556 15.1949 28.7917 15.2053 28.6302 15.1932C27.7012 15.1246 26.7926 15.2829 25.8777 15.3694C25.5546 15.3999 25.2118 15.3953 24.9159 15.4919C24.2704 15.7024 23.5881 15.6854 22.9325 15.8013C21.7669 16.0071 20.5896 16.1885 19.4635 16.5396C19.363 16.574 19.2565 16.5941 19.1485 16.599C18.7034 16.6048 18.2986 16.7374 17.8944 16.8755C17.2134 17.1085 16.5257 17.3204 15.8115 17.4726C15.5025 17.5386 15.1359 17.543 14.916 17.7727C14.6479 18.0524 14.3091 17.8122 14.0048 17.9169C13.0238 18.2557 12.0141 18.5322 11.0261 18.8574C10.7878 18.9358 10.6081 19.1457 10.3702 19.2273C10.1527 19.3019 9.85877 19.2273 9.65668 19.3175C8.65764 19.7589 7.57447 19.9806 6.51543 20.2661C6.46449 20.2799 6.42529 20.3606 6.40819 20.4166C6.40182 20.4376 6.47018 20.4961 6.51241 20.5031C6.64495 20.526 6.77946 20.5394 6.91458 20.5431C7.8094 20.5653 8.70322 20.5881 9.59335 20.6928C9.99551 20.74 10.4054 20.7305 10.8122 20.7403C11.6253 20.7594 12.439 20.7942 13.2517 20.7847C14.0644 20.7752 14.8728 20.7447 15.6664 20.54C16.6524 20.286 17.6658 20.1109 18.6491 19.8494C20.4652 19.3694 22.275 18.8905 23.9202 18.0273C24.9373 17.4931 26.0154 17.0433 27.0772 16.5745C27.3878 16.4376 27.731 16.3439 28.0702 16.268C29.093 16.0359 30.1199 15.8171 31.1662 15.6715L31.1649 15.6709ZM45.927 17.6603C45.1227 17.545 44.3184 17.4343 43.5194 17.3068C43.0133 17.2264 42.4996 17.1549 42.0129 17.0171C41.0022 16.7308 39.9652 16.5659 38.9179 16.4355C37.8173 16.2986 36.7201 16.1472 35.6336 15.9428C34.9968 15.8223 34.3423 15.8105 33.6898 15.8459C32.8785 15.8903 32.0677 15.9402 31.2574 15.9956C31.0682 16.0123 30.8806 16.0397 30.6957 16.0777C30.1122 16.185 29.5327 16.3101 28.9462 16.4035C28.218 16.5189 27.536 16.7357 26.8804 17.0269C26.0858 17.3803 25.2842 17.7223 24.4889 18.0743C24.3696 18.1271 24.2687 18.2101 24.1564 18.2761C24.067 18.328 23.9798 18.3966 23.88 18.4203C22.9034 18.644 22.0665 19.1529 21.1097 19.4158C20.7484 19.515 20.3955 19.6381 20.0319 19.7304C18.7051 20.0671 17.3753 20.3952 16.0471 20.7279C15.9171 20.7605 15.79 20.8023 15.6634 20.8433C15.6425 20.857 15.6281 20.8768 15.6228 20.8989C15.6587 20.9277 15.6992 20.9681 15.7398 20.9695C15.8478 20.9738 15.9561 20.9668 16.0622 20.9488C17.2305 20.7377 18.3947 20.51 19.566 20.3145C20.977 20.0778 22.3745 19.7837 23.8005 19.6119C24.5787 19.5182 25.3472 19.3662 26.1224 19.2512C26.3888 19.2117 26.6616 19.2056 26.9314 19.1823C27.3087 19.1494 27.6854 19.1108 28.0628 19.0808C28.468 19.0485 28.8732 19.0119 29.2794 18.9963C30.936 18.9332 32.5919 18.9946 34.2444 19.0693C35.5438 19.1269 36.8434 19.2091 38.134 19.3755C38.8308 19.4654 39.5379 19.494 40.2384 19.5655C40.5886 19.6001 40.9358 19.6552 41.2773 19.7304C41.6165 19.8062 41.962 19.8907 42.2713 20.0271C42.6103 20.1758 42.9851 20.2541 43.3656 20.2554C43.6642 20.26 43.9638 20.2554 44.2607 20.2776C44.6413 20.3076 45.0246 20.2577 45.3777 20.132C46.4079 19.7641 47.4921 19.5378 48.5468 19.2345C49.3176 19.0125 50.0596 18.7132 50.8649 18.5789C51.1843 18.5255 51.5017 18.4609 51.8164 18.3894C51.9361 18.3623 52.0875 18.3606 52.1361 18.2225C52.0367 18.1903 51.9353 18.1626 51.8325 18.1395C51.3013 18.0414 50.7603 17.9876 50.2171 17.9789C49.947 17.9754 49.6776 17.9356 49.4074 17.9169C48.9751 17.8866 48.5424 17.8592 48.2086 17.8379C47.3698 17.9019 46.6509 17.765 45.9284 17.6623L45.927 17.6603ZM44.7383 5.6737C44.5721 5.59671 44.3953 5.53801 44.2121 5.49898C43.3186 5.31187 42.4221 5.13398 41.5263 4.95552C41.4218 4.93784 41.3158 4.92714 41.2093 4.92351C41.1912 4.92351 41.162 4.94687 41.154 4.96474C41.1459 4.98262 41.1439 5.0224 41.1577 5.03105C41.3728 5.17031 41.5799 5.32254 41.8109 5.44017C42.4627 5.77173 43.1239 6.09003 43.7828 6.41149C44.5594 6.7916 45.3742 7.11089 46.2173 7.36552C46.547 7.46499 46.8503 7.62788 47.1768 7.73744C47.5789 7.87208 47.9891 7.98366 48.399 8.09812C48.4092 8.10073 48.42 8.10073 48.4302 8.09812C48.4681 8.08405 48.5051 8.06827 48.5411 8.05084C48.5411 8.03931 48.5461 8.02633 48.5485 8.01422C48.5516 8.00351 48.5508 7.99222 48.5461 7.98193C48.5121 7.92014 48.4695 7.86207 48.4194 7.80894C48.061 7.45853 47.6321 7.16652 47.1533 6.94689C46.8664 6.81744 46.5621 6.69606 46.3215 6.51615C45.8446 6.15951 45.2859 5.92799 44.7396 5.67572L44.7383 5.6737ZM49.1866 6.47636C48.3678 6.32125 47.5498 6.1621 46.7314 6.00526C46.7056 6.0028 46.6797 6.0028 46.6539 6.00526C46.6087 6.03063 46.5457 6.04678 46.5309 6.07936C46.5162 6.11194 46.5256 6.18459 46.5561 6.20593C46.8708 6.42447 47.1744 6.66002 47.5146 6.84512C48.2519 7.24673 48.8886 7.74638 49.4996 8.27832C49.6672 8.42564 49.8538 8.58076 50.0673 8.66466C51.0014 9.03139 51.9129 9.4431 52.8878 9.73141C53.037 9.77524 53.1982 9.78907 53.3547 9.81329C53.3704 9.8156 53.4009 9.7885 53.4097 9.76976C53.4149 9.75894 53.4174 9.7473 53.4171 9.73559C53.4168 9.72387 53.4137 9.71234 53.408 9.70172C53.3634 9.64405 53.3239 9.57342 53.2595 9.54199C52.8768 9.35516 52.5892 9.07118 52.2638 8.82842C51.8546 8.52425 51.426 8.23651 51.0362 7.91591C50.5476 7.51544 49.9973 7.16831 49.574 6.71134C49.4694 6.59544 49.3572 6.50866 49.1866 6.47636ZM59.5273 9.0386C59.3296 8.96222 59.1273 8.89486 58.9213 8.83678C57.9202 8.54847 56.918 8.26275 55.9148 7.97962C55.8143 7.95079 55.7054 7.95079 55.5837 7.93407C55.5452 8.00586 55.4852 8.06554 55.4909 8.12032C55.5033 8.18912 55.5431 8.25209 55.6035 8.2985C55.7808 8.44216 55.9689 8.57565 56.1665 8.6981C56.6365 8.9758 57.0675 9.29932 57.4511 9.66222C57.9434 10.1267 58.4314 10.5949 58.9066 11.0721C59.2287 11.3953 59.5832 11.6504 60.0571 11.8165C61.0877 12.1777 62.1467 12.4612 63.2031 12.7538C63.2701 12.7722 63.3619 12.7472 63.4316 12.7212C63.4651 12.7091 63.4772 12.6477 63.4869 12.6059C63.4909 12.5886 63.4692 12.5609 63.4504 12.5459C62.7939 12.0233 62.1759 11.4661 61.5998 10.8775C61.2539 10.522 60.838 10.2172 60.4543 9.88883C60.2073 9.6775 59.904 9.51114 59.7759 9.20553C59.7458 9.13288 59.6221 9.07608 59.5273 9.0386ZM66.7773 13.6516C66.8135 13.6294 66.8276 13.5804 66.8655 13.5216C66.8216 13.4532 66.7864 13.3616 66.717 13.2961C66.1875 12.7944 65.7002 12.249 65.1056 11.8116C64.2008 11.1464 63.2835 10.4804 62.1725 10.0621C61.7502 9.90325 61.337 9.72593 60.9168 9.56246C60.8922 9.55586 60.8662 9.55429 60.8408 9.5579C60.8154 9.5615 60.7914 9.57018 60.7706 9.58322C60.7442 9.60398 60.7334 9.67865 60.7552 9.70085C61.087 10.0405 61.4118 10.3862 61.765 10.7085C62.2496 11.1505 62.7587 11.5734 63.2547 12.0059C63.4645 12.189 63.6719 12.3729 63.7959 12.6148C63.9109 12.8386 64.1237 12.9937 64.3714 13.0928C65.0892 13.3812 65.861 13.5253 66.6252 13.6865C66.6793 13.692 66.7338 13.6793 66.7773 13.651V13.6516ZM57.9199 29.7394C58.3466 29.4929 58.7668 29.2363 59.1734 28.9659C59.4944 28.7523 59.7914 28.5124 60.099 28.2837C60.4067 28.0551 60.6466 27.7688 60.8581 27.4684C60.97 27.308 61.0355 27.1269 61.0491 26.9402C61.1041 26.3128 61.1594 25.6855 61.2284 25.0593C61.2794 24.598 61.1326 24.1834 60.8883 23.7846C60.8025 23.6448 60.6299 23.6206 60.4807 23.727C60.3961 23.7851 60.3157 23.8477 60.2401 23.9144C59.7766 24.3396 59.3051 24.7548 58.7578 25.1054C58.419 25.3228 58.2269 25.6258 58.2511 26.0113C58.2655 26.2436 58.2537 26.4775 58.2537 26.7104H58.2289C58.2289 26.9667 58.2336 27.223 58.2289 27.4794C58.2206 27.8343 58.1073 28.1699 57.9387 28.4899C57.7162 28.9128 57.4789 29.3303 57.2534 29.7521C57.2445 29.7727 57.2411 29.7947 57.2434 29.8166C57.2457 29.8384 57.2537 29.8595 57.2668 29.8784C57.2932 29.909 57.3673 29.9392 57.4035 29.928C57.5791 29.8741 57.7661 29.8277 57.9199 29.7391V29.7394ZM43.9983 32.5992C43.9631 32.6128 43.949 32.667 43.9252 32.703C43.9681 32.7223 44.0114 32.7581 44.0543 32.7575C44.1883 32.7575 44.2802 32.6857 44.2597 32.6133C44.2446 32.5963 44.2262 32.564 44.2141 32.5652C44.1406 32.5664 44.0677 32.5777 43.9983 32.5986V32.5992ZM63.1823 19.8702C63.258 19.7261 63.1461 19.5969 62.9517 19.5819C62.4897 19.5422 62.0233 19.5987 61.5921 19.7468C61.1141 19.9126 60.6352 20.0838 60.1845 20.2946C59.0638 20.8193 57.9578 21.3663 56.9142 22.0017C56.1769 22.45 55.5502 23.0001 54.9211 23.5479C54.6007 23.8326 54.3058 24.1376 54.0387 24.4604C53.4019 25.2147 52.7347 25.9542 51.9572 26.6084C51.5885 26.9177 51.1863 27.1948 50.7946 27.4843C50.6712 27.5756 50.5338 27.6535 50.4149 27.7489C49.8186 28.2261 49.2305 28.7107 48.6309 29.185C48.41 29.3573 48.1783 29.5191 47.9368 29.6697C47.236 30.1113 46.5647 30.5865 45.926 31.0931C45.5694 31.3768 45.1522 31.6037 44.7638 31.858C44.7 31.9006 44.6406 31.9479 44.5861 31.9992C44.5795 32.0094 44.5756 32.0209 44.5749 32.0326C44.5742 32.0443 44.5767 32.0559 44.5821 32.0667C44.5915 32.0851 44.6264 32.1108 44.6424 32.1073C44.877 32.0572 45.1193 32.0188 45.3462 31.9465C46.0349 31.7259 46.728 31.5399 47.4666 31.4682C47.8353 31.4321 48.1909 31.2808 48.5532 31.1847C48.5672 31.181 48.6058 31.2072 48.6101 31.2242C48.6116 31.2356 48.6098 31.2471 48.6049 31.2576C48.5999 31.2682 48.5919 31.2775 48.5816 31.2848C48.2603 31.4085 47.9365 31.5275 47.6144 31.6501C47.4405 31.7161 47.2672 31.7833 47.0973 31.8565C47.0259 31.8871 46.9244 31.924 46.9056 31.9764C46.8125 32.2359 46.544 32.2988 46.3087 32.4046C46.2705 32.4219 46.2273 32.5069 46.2377 32.5156C46.288 32.558 46.3624 32.6197 46.416 32.6119C47.031 32.5234 47.6436 32.4349 48.1996 32.1604C48.528 31.9981 48.8984 31.8989 49.2278 31.7377C49.6514 31.5304 50.0529 31.29 50.4635 31.0634C50.5271 31.0282 50.569 31.0374 50.5787 31.0977C50.5784 31.1093 50.5753 31.1207 50.5695 31.1312C50.5637 31.1416 50.5555 31.151 50.5452 31.1585C50.1367 31.4661 49.7181 31.7608 49.2405 31.9894C49.1923 32.0125 49.1775 32.1047 49.1735 32.1662C49.1735 32.1832 49.2606 32.2083 49.3099 32.2238C49.3352 32.2326 49.3626 32.2357 49.3897 32.2328C50.1669 32.1295 50.945 32.0309 51.7206 31.9182C51.9954 31.8781 52.2233 31.7475 52.4039 31.5613C52.7159 31.2378 53.0252 30.9129 53.3379 30.59C53.405 30.5216 53.479 30.4591 53.5504 30.3942C53.6 30.4983 53.6215 30.6035 53.5451 30.707C53.472 30.8053 53.3892 30.8984 53.3172 30.9973C53.223 31.1268 53.0041 31.2493 53.1663 31.4163C53.287 31.5405 53.4743 31.4364 53.6205 31.3874C54.3313 31.1568 55.0394 30.9181 55.7479 30.6805C56.0258 30.5869 56.2697 30.4315 56.4547 30.2301C56.8183 29.8493 57.1947 29.4825 57.3505 28.993C57.3644 28.9474 57.387 28.9041 57.4176 28.865C57.985 28.167 57.9484 27.3658 57.9377 26.5726C57.9333 26.2399 57.9169 26.2402 57.4484 26.2488C57.4243 26.2488 57.3814 26.2425 57.3784 26.2321C57.3666 26.1927 57.3627 26.1518 57.367 26.1113C57.3693 26.0911 57.3941 26.0715 57.4122 26.0536C57.689 25.797 57.9585 25.5347 58.245 25.2862C58.7994 24.8058 59.3691 24.3385 59.9207 23.8553C60.1333 23.6746 60.3237 23.4756 60.4888 23.2613C61.0019 22.5694 61.6262 21.9536 62.2231 21.3201C62.637 20.8793 62.9122 20.3794 63.1823 19.8702ZM63.7815 20.6461C63.7641 20.574 63.7674 20.4947 63.7255 20.4425C63.6883 20.3964 63.5868 20.3445 63.5382 20.3583C63.4145 20.3935 63.2701 20.4411 63.195 20.5247C62.6199 21.1711 62.0706 21.8345 61.4905 22.4771C61.1554 22.8491 61.0947 23.2368 61.3052 23.6549C61.5502 24.1416 61.5733 24.645 61.5344 25.1625C61.5086 25.5084 61.5197 25.8582 61.5291 26.2059C61.5291 26.2347 61.6453 26.2635 61.7107 26.2849C61.7278 26.2903 61.763 26.2705 61.7807 26.256C62.4336 25.6771 62.9202 25.0094 63.1548 24.2266C63.262 23.8691 63.3978 23.5107 63.3867 23.131C63.3885 23.0144 63.4127 22.8987 63.4581 22.7888C63.7199 22.0888 63.6548 21.3562 63.7815 20.6461Z" fill="#999999"/>
<path d="M33.0205 24.7519C33.3422 24.5432 33.7243 24.5126 34.1057 24.489C33.788 24.7112 33.4103 24.7502 33.0205 24.7519Z" fill="#999999"/>
<path d="M54.1584 28.965C54.2093 28.8439 54.1423 28.7546 54.0129 28.6767C53.8728 28.5925 53.8665 28.5153 53.9606 28.4749C54.2418 28.3581 54.5273 28.248 54.8109 28.1356C54.5568 28.8852 54.0575 29.5414 53.7364 30.2653C53.716 30.3115 53.6252 30.3345 53.5575 30.3651C53.5598 30.0361 53.7317 29.7544 53.8959 29.4696C53.9943 29.3057 54.0819 29.1373 54.1584 28.965Z" fill="#999999"/>
<path d="M54.836 28.1273L54.8111 28.1371C54.8138 28.1293 54.8175 28.1215 54.8199 28.1136L54.836 28.1273Z" fill="#999999"/>
<path d="M53.5578 30.3665C53.5578 30.3738 53.5554 30.3807 53.5554 30.3879L53.5386 30.3749C53.5433 30.372 53.5514 30.3694 53.5578 30.3665Z" fill="#999999"/>
<path d="M52.0265 29.8781C51.993 29.9009 51.9337 29.8945 51.8861 29.9018C51.8918 29.8401 51.8697 29.7576 51.9082 29.7198C52.2588 29.3868 52.6345 29.0815 53.1633 28.9702C53.0745 29.0726 52.9958 29.1853 52.8878 29.2686C52.61 29.482 52.3174 29.6795 52.0265 29.8781Z" fill="#999999"/>
<path d="M53.1807 28.9506L53.1969 28.9633C53.1851 28.9657 53.1747 28.9691 53.1632 28.9714C53.1693 28.9645 53.1747 28.9573 53.1807 28.9503V28.9506Z" fill="#999999"/>
<path d="M50.192 30.5323C49.9688 30.6147 49.7443 30.694 49.5201 30.7742C49.7828 30.4827 50.1803 30.3769 50.5486 30.2307C50.4766 30.3654 50.3498 30.4727 50.192 30.5323Z" fill="#999999"/>
<path d="M49.4767 30.7918L49.5214 30.7756C49.512 30.7861 49.5015 30.7947 49.4925 30.8046L49.4767 30.7918Z" fill="#999999"/>
<path d="M50.5498 30.232C50.5548 30.2233 50.5609 30.2158 50.5656 30.2071L50.5818 30.2195L50.5498 30.232Z" fill="#999999"/>
<path d="M56.4118 26.9284C56.2955 27.0466 56.1692 27.1576 56.0562 27.2616C56.0033 27.2481 55.9731 27.2481 55.9607 27.2354C55.9542 27.227 55.95 27.2175 55.9482 27.2076C55.9464 27.1976 55.9471 27.1874 55.9503 27.1777C56.0174 27.0212 56.1678 26.9301 56.3234 26.8453C56.3466 26.8352 56.371 26.8271 56.3961 26.8211C56.4021 26.8574 56.4303 26.9099 56.4118 26.9284Z" fill="#999999"/>
<path d="M51.0932 30.1024C50.94 30.1474 50.7775 30.1693 50.618 30.1979C50.756 30.116 50.8908 30.0292 51.0362 29.9591C51.1236 29.9182 51.2216 29.8969 51.3211 29.8972C51.4032 29.898 51.2829 30.0471 51.0932 30.1024Z" fill="#999999"/>
<path d="M50.5657 30.2071L50.6176 30.1981L50.5818 30.2197L50.5657 30.2071Z" fill="#999999"/>
<path d="M55.1755 27.8775C55.1725 27.9138 55.1842 27.9735 55.1645 27.9824C55.0703 28.0254 54.9711 28.0594 54.8722 28.0946C54.9483 28.026 55.0237 27.9565 55.1025 27.8902C55.1185 27.8778 55.1521 27.8815 55.1755 27.8775Z" fill="#999999"/>
<path d="M54.8722 28.0949L54.8357 28.1272L54.8199 28.1137L54.8722 28.0949Z" fill="#999999"/>
<path d="M49.2425 30.9757C49.2234 30.9786 49.2007 30.9648 49.1799 30.9584C49.206 30.9244 49.2238 30.8748 49.2603 30.8601C49.3227 30.8386 49.3875 30.8229 49.4537 30.8131C49.4068 30.8569 49.3602 30.9013 49.3112 30.9431C49.2925 30.9595 49.2686 30.9708 49.2425 30.9757Z" fill="#999999"/>
<path d="M49.4546 30.8132L49.4778 30.7917L49.4939 30.8054C49.4798 30.8082 49.4667 30.8106 49.4546 30.8132Z" fill="#999999"/>
<path d="M53.3835 28.8967C53.3798 28.9102 53.346 28.9221 53.3235 28.927C53.29 28.9342 53.2565 28.9385 53.223 28.9434L53.3068 28.8823C53.3671 28.8393 53.3969 28.8454 53.3835 28.8967Z" fill="#999999"/>
<path d="M53.224 28.9434L53.1967 28.9633L53.1806 28.9506L53.224 28.9434Z" fill="#999999"/>
<path d="M53.224 28.9434C53.2575 28.9385 53.291 28.9344 53.3245 28.9269C53.291 28.9344 53.2572 28.9385 53.224 28.9434Z" fill="#999999"/>
<path d="M53.1807 28.9506L53.1969 28.9634L53.1807 28.9506Z" fill="#999999"/>
<path d="M35.5951 22.3843H35.5984C35.1902 22.8528 34.5826 23.0359 33.9753 23.2204C33.9777 23.2175 33.981 23.2155 33.9834 23.2124L33.975 23.2144C34.4546 22.8453 35.0106 22.5853 35.6007 22.3745L35.5957 22.3863L35.5951 22.3843Z" fill="#999999"/>
<path d="M35.6004 22.3731L35.6138 22.3679L35.5953 22.3846L35.6004 22.3731Z" fill="#999999"/>
<path d="M33.9588 23.2236C33.9639 23.2195 33.9696 23.2164 33.9749 23.2126L33.9834 23.2106L33.9588 23.2236Z" fill="#999999"/>
<path d="M33.9753 23.2184L33.9588 23.2233L33.9834 23.2103C33.981 23.2135 33.9776 23.2155 33.9753 23.2184Z" fill="#999999"/>
<path d="M35.6135 22.3672C35.6088 22.373 35.603 22.3774 35.598 22.3832H35.5946L35.6135 22.3672Z" fill="#999999"/>
<path d="M35.595 22.3843H35.5953L35.6138 22.3672L35.5953 22.3843H35.595Z" fill="#999999"/>
</svg>
