<svg width="28" height="28" viewBox="0 0 28 28" fill="none" xmlns="http://www.w3.org/2000/svg">
<g clip-path="url(#clip0)">
<path d="M16.4763 14.0007L27.4869 2.99006C28.171 2.30657 28.171 1.19756 27.4869 0.514067C26.8029 -0.170013 25.695 -0.170013 25.0109 0.514067L14.0003 11.5247L2.98906 0.514067C2.30498 -0.170013 1.19714 -0.170013 0.51306 0.514067C-0.17102 1.19756 -0.17102 2.30657 0.51306 2.99006L11.5243 14.0007L0.51306 25.0114C-0.17102 25.6949 -0.17102 26.8039 0.51306 27.4874C0.8551 27.8288 1.30337 27.9998 1.75106 27.9998C2.19875 27.9998 2.64702 27.8288 2.98906 27.4868L14.0003 16.4761L25.0109 27.4868C25.353 27.8288 25.8013 27.9998 26.2489 27.9998C26.6966 27.9998 27.1449 27.8288 27.4869 27.4868C28.171 26.8033 28.171 25.6943 27.4869 25.0108L16.4763 14.0007Z" fill="#999999"/>
</g>
<defs>
<clipPath id="clip0">
<rect width="28" height="28" fill="white"/>
</clipPath>
</defs>
</svg>
