<svg width="37" height="37" viewBox="0 0 31 31" fill="none" xmlns="http://www.w3.org/2000/svg">
<path d="M15.8459 29.7881C23.663 29.7881 30 23.4511 30 15.634C30 7.81696 23.663 1.47998 15.8459 1.47998C8.02888 1.47998 1.69189 7.81696 1.69189 15.634C1.69189 23.4511 8.02888 29.7881 15.8459 29.7881Z" stroke="rgb(153, 153, 153)" stroke-width="2"/>
<path d="M19.7705 9.2002H11.8571C10.506 9.2002 9.34797 10.2939 9.34797 11.7093V19.6227C9.34797 20.9738 10.4417 22.1319 11.8571 22.1319H19.7705C21.1216 22.1319 22.2796 21.0381 22.2796 19.6227V11.7093C22.2796 10.2939 21.1859 9.2002 19.7705 9.2002ZM20.4782 10.6799H20.7356V12.8674H18.5481V10.6799H20.4782ZM13.9802 14.2828C14.3662 13.7038 15.0739 13.3177 15.846 13.3177C16.618 13.3177 17.2614 13.7038 17.7117 14.2828C17.9691 14.6688 18.1621 15.1192 18.1621 15.6339C18.1621 16.8563 17.1327 17.8856 15.9103 17.8856C14.6879 17.8856 13.6585 16.8563 13.6585 15.6339C13.5942 15.1192 13.7229 14.6688 13.9802 14.2828ZM21.0572 19.5584C21.0572 20.2661 20.4782 20.7808 19.8348 20.7808H11.9214C11.2137 20.7808 10.699 20.2018 10.699 19.5584V14.2828H12.6291C12.4361 14.6688 12.3718 15.1192 12.3718 15.6339C12.3718 17.564 13.9802 19.1724 15.9103 19.1724C17.8404 19.1724 19.4488 17.564 19.4488 15.6339C19.4488 15.1835 19.3845 14.7331 19.1915 14.2828H21.1216V19.5584H21.0572Z" fill="rgb(153, 153, 153)"/>
</svg>
