<svg width="458" height="79" viewBox="0 0 458 79" fill="none" xmlns="http://www.w3.org/2000/svg">
<path d="M14.08 31.2C11.92 30.96 12.88 32.4 13.76 32.48C14.16 32.56 14.72 32.56 15.2 32.56C11.6 39.36 8 47.04 8.4 50.08C8.48 50.64 11.12 51.04 11.52 51.04C13.68 51.04 15.92 47.2 17.12 45.44C17.2 45.36 18.56 43.76 18.16 43.36C17.52 43.28 16.4 44.64 15.2 46.08C13.36 48.24 10.72 48.56 12.56 44C13.6 41.6 15.6 37.28 18.16 32.64C22.56 32.56 28.32 32.08 33.36 30.96C43.6 28.64 54.8 23.6 55.52 14.8C55.92 10.16 52.32 5.6 46.08 3.44C34.8 -0.160005 20.4 1.6 12.32 5.44C7.92 7.68 1.52 11.84 0.56 16.88C0.56 17.28 0.72 18.08 0.72 18.16C-0.32 23.04 4.88 26.16 7.36 26.56C8.4 26.8 8.88 26.16 7.92 25.44C6.32 24.48 2.08 23.44 2.72 19.6C4.88 6.56 33.36 2.64 46.32 6.24C54.4 8.64 55.52 14.8 50.8 19.68C43.92 26.8 29.6 30.8 18.88 31.28C24 22.24 30.56 12.48 35.28 12.48C35.68 12.48 36.56 13.28 36.32 12C35.68 10.08 32.48 9.28 31.68 9.28C27.52 9.28 21.76 16.16 21.36 18.8C21.52 19.28 21.76 20.08 20.8 22.08C19.92 23.76 17.92 27.28 15.76 31.28C15.2 31.28 14.56 31.28 14.08 31.2ZM65.925 32.4C67.445 30.16 67.925 26.08 64.645 24.96C58.645 22.96 46.245 33.44 43.845 38.88C39.445 48.96 49.685 52.24 57.845 48.96C63.445 46.64 68.485 42.24 71.685 36.96C72.005 36.56 72.005 36.16 71.605 36C71.445 35.84 71.045 35.84 70.725 36.24C67.845 40.64 62.725 44.96 56.805 47.36C51.605 49.44 45.445 49.36 47.445 42.64C49.205 36.8 56.085 30.16 60.805 28C61.925 27.44 64.805 26.24 64.885 28.48C65.045 30.24 62.645 32.64 61.285 33.68C58.325 36.08 53.845 38.64 51.285 38.88C50.085 38.96 50.645 40.08 51.845 40C55.445 39.68 63.045 36.64 65.925 32.4ZM70.3519 38.96C73.5519 35.04 76.2719 30.88 79.1519 26.8C80.3519 26.8 81.4719 26.96 82.7519 27.2C88.2719 28.08 84.5919 31.6 83.3919 32.96C80.4319 36 75.1519 41.84 76.5919 47.04C77.1519 49.28 78.6719 50 80.4319 50C82.6719 50 85.2319 48.88 86.6719 47.76C90.6719 44.88 95.5519 39.6 97.0719 36.8C97.4719 36.08 96.4319 35.6 96.0319 36.16C92.7519 40.8 86.7519 45.84 84.1919 47.28C81.5519 48.64 80.3519 46.4 81.6319 42.8C82.5919 40.24 85.2319 35.04 88.8319 30.88C91.6319 27.68 93.5519 24.96 88.7519 25.2C85.8719 25.36 83.0719 25.2 80.3519 25.04L83.4719 20.08C85.6319 16.16 83.9519 17.04 81.6319 18.08C79.2319 19.2 75.8719 22.48 75.1519 24.88C74.8319 25.84 75.6319 26.64 76.8319 26.8C74.7519 30.8 72.2719 34.56 69.3919 38.08C68.1919 39.6 69.5519 40 70.3519 38.96ZM103.826 29.76L101.506 35.68H101.266C100.626 35.68 100.306 34.4 99.0263 34.4C97.8263 34.4 94.2263 35.28 94.2263 36.64C94.2263 37.76 95.4263 38.48 96.3863 38.48C97.0263 38.48 98.6263 38.4 100.466 38.16C95.5063 50.88 86.6263 73.28 85.6662 75.04C84.4662 77.44 89.2663 75.44 90.4662 74.8C91.6662 74.08 91.9062 72.8 93.8263 67.84C94.7063 65.68 93.1863 66.56 95.5863 59.76C97.9063 53.36 101.586 43.44 103.826 37.76C108.786 37.04 114.466 36.24 115.826 35.84C119.186 34.88 117.106 34.48 115.826 34.48C113.026 34.48 110.066 34.8 107.266 35.04C115.266 28.64 125.906 16.88 128.866 10.56C130.626 6.88 131.026 3.6 127.826 1.76L126.226 1.2C120.786 -0.320003 116.306 4.88 113.586 9.04C110.066 14.64 105.426 25.28 103.826 29.76ZM105.426 34C105.666 33.28 108.466 26.64 111.986 20C115.106 14.4 120.306 6.88 123.426 4.48C128.306 0.639999 129.026 5.36 126.626 9.44C122.306 16.96 112.786 29.36 104.786 35.28C105.026 34.8 105.186 34.24 105.426 34ZM139.597 32.4C141.117 30.16 141.597 26.08 138.317 24.96C132.317 22.96 119.917 33.44 117.517 38.88C113.117 48.96 123.357 52.24 131.517 48.96C137.117 46.64 142.157 42.24 145.357 36.96C145.677 36.56 145.677 36.16 145.277 36C145.117 35.84 144.717 35.84 144.397 36.24C141.517 40.64 136.397 44.96 130.477 47.36C125.277 49.44 119.117 49.36 121.117 42.64C122.877 36.8 129.757 30.16 134.477 28C135.597 27.44 138.477 26.24 138.557 28.48C138.717 30.24 136.317 32.64 134.957 33.68C131.997 36.08 127.517 38.64 124.957 38.88C123.757 38.96 124.317 40.08 125.517 40C129.117 39.68 136.717 36.64 139.597 32.4ZM170.664 37.2C170.824 36.88 171.064 36.16 170.664 36C170.504 36 170.104 35.68 169.704 36.16C165.144 42 161.224 45.68 154.024 47.76C149.464 49.04 144.824 48.56 146.664 42.64C148.824 35.36 158.744 27.2 162.824 27.2C163.624 27.2 164.024 28.08 164.024 28.8C164.024 29.28 163.704 29.84 163.624 30.4C163.544 30.64 163.624 31.04 163.944 31.28C164.504 32 165.864 29.04 165.944 28.56C166.504 26.48 165.304 25.44 163.864 24.96C157.864 22.96 145.464 33.44 143.064 38.88C139.464 47.2 145.224 51.2 152.904 49.84C160.824 48.48 166.104 43.36 170.664 37.2ZM189.098 25.04C186.058 24.96 184.058 25.36 181.578 25.6L180.538 25.68L184.378 18.96C184.858 18 185.658 18.08 186.058 17.28C186.538 16.56 187.498 14.96 186.778 14C186.298 13.28 184.778 13.04 183.578 13.2C182.458 13.36 182.298 14.16 180.298 17.6L176.298 25.04C176.138 25.04 176.058 25.04 175.978 25.2C174.458 25.28 172.378 25.28 171.738 26.64C171.258 27.68 172.058 28.4 172.858 28.4C173.258 28.4 173.898 28.4 174.698 28.24C173.658 30.16 172.938 31.44 172.938 31.6C171.738 33.44 169.578 36.4 166.778 39.84C166.058 40.8 166.858 41.84 167.658 40.96C169.338 39.04 170.058 37.84 170.778 36.96C169.098 40.64 167.738 44.96 168.378 46.8C169.978 51.6 175.898 49.68 178.458 47.76C182.458 44.88 187.338 39.6 188.858 36.8C189.258 36.08 188.298 35.6 187.898 36.16C184.538 40.8 178.538 45.84 175.978 47.28C173.338 48.64 171.738 46.8 172.298 43.36C172.538 40.8 174.698 36.56 177.098 31.76C177.338 31.04 178.298 29.68 179.338 27.76C183.098 27.36 187.178 26.8 188.378 26.4C191.738 25.6 190.058 25.04 189.098 25.04ZM250.085 24.16C252.325 19.68 252.645 14.88 252.485 11.6C252.245 4.56 247.125 10.88 246.805 12.88C246.245 16.24 246.245 21.44 246.405 24.64C240.245 33.36 232.085 41.44 223.205 47.6C214.405 53.44 205.125 57.28 208.485 47.44C210.885 40.4 216.805 31.6 222.245 23.6C226.085 17.84 229.845 10.96 231.445 6.4C232.805 6.56 234.005 6.88 235.045 7.2C239.845 8.8 236.725 5.44 235.445 4.88C234.485 4.48 233.445 4.08 232.245 3.76C232.405 2.88 232.405 2.16 232.325 1.68C231.605 -0.240004 229.685 0.399998 230.245 1.44C230.405 1.84 230.405 2.48 230.245 3.28C219.685 1.2 202.245 3.36 202.725 13.68C202.725 14 203.045 14.56 203.045 14.64C203.125 18.4 207.445 20.96 209.285 21.36C210.085 21.6 210.405 21.2 209.525 20.56C208.245 19.76 204.885 18.8 204.725 15.76C204.325 8 219.205 5.44 229.045 6.16C226.805 10.56 222.245 17.04 218.405 22.56C213.925 29.36 208.805 36.56 205.045 43.04C201.285 49.36 200.085 55.04 208.325 55.28C214.085 55.36 219.845 52.64 225.205 48.64C232.325 43.68 241.125 35.2 246.245 28.8C245.445 41.2 252.645 51.28 260.885 51.28C277.445 51.44 287.445 14.64 274.005 6C270.085 3.36 264.725 3.68 259.605 7.36C258.725 8 259.925 9.04 260.805 8.48C261.925 7.68 263.125 7.2 264.325 7.04C267.605 6.56 270.405 7.68 272.325 9.68C281.605 19.6 275.445 48.08 263.445 48.24C256.245 48.48 249.925 36.56 250.085 24.16ZM306.706 32.4C308.226 30.16 308.706 26.08 305.426 24.96C299.426 22.96 287.026 33.44 284.626 38.88C280.226 48.96 290.466 52.24 298.626 48.96C304.226 46.64 309.266 42.24 312.466 36.96C312.786 36.56 312.786 36.16 312.386 36C312.226 35.84 311.826 35.84 311.506 36.24C308.626 40.64 303.506 44.96 297.586 47.36C292.386 49.44 286.226 49.36 288.226 42.64C289.986 36.8 296.866 30.16 301.586 28C302.706 27.44 305.586 26.24 305.666 28.48C305.826 30.24 303.426 32.64 302.066 33.68C299.106 36.08 294.626 38.64 292.066 38.88C290.866 38.96 291.426 40.08 292.626 40C296.226 39.68 303.826 36.64 306.706 32.4ZM314.653 48.88C319.453 48.88 327.933 39.68 332.813 34C330.733 39.2 324.173 56.48 332.173 57.76C333.613 58 336.333 57.76 337.453 56.96C337.933 56.48 338.333 56 338.653 55.6C339.133 54.64 338.733 54.4 337.773 54.96C337.213 55.28 336.973 55.6 336.573 55.84C335.053 57.04 333.613 56.48 332.973 55.2C331.613 52.96 331.773 49.2 333.053 44.16C334.013 40.56 335.853 34.96 337.453 31.2C344.653 24.96 356.253 16.96 360.973 8.64C362.813 5.36 363.213 1.68 358.653 0.799997C349.453 -1.04 341.533 13.68 336.173 26.08L335.853 25.84C333.853 24.4 330.253 24.56 327.853 25.2C321.853 26.64 303.613 38.64 309.533 46.16C310.733 47.76 312.973 48.88 314.653 48.88ZM335.533 27.36L334.413 30.08C329.613 35.2 323.933 40.4 318.573 44.8C317.453 45.68 313.533 48.56 312.413 46.96C309.933 43.44 316.573 35.84 318.813 33.76C322.973 30.08 328.573 26.88 332.733 26.88C333.773 26.88 334.733 26.96 335.533 27.36ZM339.853 26.56C344.013 17.36 348.573 9.6 355.773 4.08C359.773 1.04 360.973 3.36 358.973 7.2C355.373 14 346.253 22.4 339.853 26.56ZM344.653 48.88C349.453 48.88 357.933 39.68 362.813 34C360.733 39.2 354.173 56.48 362.173 57.76C363.613 58 366.333 57.76 367.453 56.96C367.933 56.48 368.333 56 368.653 55.6C369.133 54.64 368.733 54.4 367.773 54.96C367.213 55.28 366.973 55.6 366.573 55.84C365.053 57.04 363.613 56.48 362.973 55.2C361.613 52.96 361.773 49.2 363.053 44.16C364.013 40.56 365.853 34.96 367.453 31.2C374.653 24.96 386.253 16.96 390.973 8.64C392.813 5.36 393.213 1.68 388.653 0.799997C379.453 -1.04 371.533 13.68 366.173 26.08L365.853 25.84C363.853 24.4 360.253 24.56 357.853 25.2C351.853 26.64 333.613 38.64 339.533 46.16C340.733 47.76 342.973 48.88 344.653 48.88ZM365.533 27.36L364.413 30.08C359.613 35.2 353.933 40.4 348.573 44.8C347.453 45.68 343.533 48.56 342.413 46.96C339.933 43.44 346.573 35.84 348.813 33.76C352.973 30.08 358.573 26.88 362.733 26.88C363.773 26.88 364.733 26.96 365.533 27.36ZM369.853 26.56C374.013 17.36 378.573 9.6 385.773 4.08C389.773 1.04 390.973 3.36 388.973 7.2C385.373 14 376.253 22.4 369.853 26.56ZM374.813 31.6C373.613 33.44 371.453 36.4 368.653 39.84C367.933 40.8 368.733 41.84 369.533 40.96C371.213 39.04 371.933 37.84 372.653 36.96C370.973 40.64 369.613 44.96 370.253 46.8C371.853 51.6 377.773 49.68 380.333 47.76C384.333 44.88 389.213 39.6 390.733 36.8C391.133 36.08 390.173 35.6 389.773 36.16C386.413 40.8 380.413 45.84 377.853 47.28C375.213 48.64 373.613 46.8 374.173 43.36C374.413 40.8 376.573 36.56 378.973 31.76C380.173 29.28 381.053 27.76 380.573 26.8C380.173 26 378.813 25.76 377.773 25.84C376.653 26.08 375.853 28.08 374.973 30.56C374.733 31.04 374.733 31.36 374.813 31.6ZM384.013 17.76C384.013 16.16 386.013 13.36 382.733 16C382.253 16.4 377.933 19.6 377.933 20C377.933 21.68 379.933 21.68 381.373 21.68C382.173 21.68 384.013 18.64 384.013 17.76ZM406.78 32.56C404.78 36.24 398.22 48.96 406.62 49.76C408.86 50 411.5 48.88 413.02 47.76C417.02 44.88 421.9 39.6 423.42 36.8C423.82 36.08 422.78 35.6 422.38 36.16C419.1 40.8 413.02 45.84 410.46 47.28C407.9 48.64 406.3 46.8 406.78 43.36C407.02 41.84 407.58 39.68 408.62 37.28C409.66 34.56 411.5 32.08 412.38 29.36C413.98 24.56 410.62 24 405.98 27.44C401.58 30.88 394.62 38.4 391.26 42.56C392.22 40 394.78 32.88 396.78 28.48C397.42 27.2 397.5 26.48 396.22 26.16C392.06 25.04 392.38 28.8 391.98 29.76C390.38 34.16 385.66 47.84 385.02 49.44C384.22 50.96 388.46 49.04 389.26 48.64C390.78 47.76 397.5 37.2 402.06 33.04C407.9 28 408.22 30 406.78 32.56ZM440.234 52C443.354 50.24 452.794 41.76 456.314 37.76C458.394 35.36 457.994 33.44 455.914 35.84C450.954 41.6 443.914 47.36 441.834 48.48C444.794 42.16 447.754 36.24 449.754 31.84C450.154 30.96 445.114 28.8 444.394 30.64C441.434 34.24 436.234 39.76 431.194 43.68C427.994 46.16 424.234 48.24 423.354 46.96C420.794 43.44 427.354 35.84 429.754 33.76C433.834 30.08 439.434 26.88 443.594 26.88C445.114 26.88 446.714 27.04 447.514 28.4C447.914 28.56 448.154 28.56 448.154 28C448.154 27.2 447.514 26.4 446.714 25.84C444.634 24.4 441.034 24.56 438.714 25.2C432.714 26.64 414.554 38.64 420.394 46.16C421.594 47.76 423.834 48.88 425.514 48.88C429.514 48.88 434.154 44.16 437.114 40.88C438.314 39.6 441.354 36 443.514 33.36C442.314 37.04 439.194 44.48 435.514 52C430.314 55.44 421.994 60.96 417.994 65.6C413.754 70.56 411.354 75.36 416.394 77.84C416.794 78.08 417.434 78.24 417.994 78.4C423.434 79.36 428.154 74 431.114 69.6C433.594 65.68 436.794 59.04 440.234 52ZM433.994 55.04C430.634 61.84 427.114 69.84 421.034 74.88C419.114 76.4 417.914 76.64 417.194 76.24C414.634 74.88 416.634 70.08 419.834 66.88C423.994 62.64 429.834 58.16 433.994 55.04Z" fill="white"/>
</svg>
