<svg width="77" height="68" viewBox="0 0 77 68" fill="none" xmlns="http://www.w3.org/2000/svg">
<path d="M1.41481 57.0639C1.87191 56.8284 2.36493 56.7748 2.84816 56.6497C4.3713 56.2533 5.93362 56.1152 7.48777 55.9544C9.14641 55.7838 10.8181 55.7416 12.48 55.6035C12.7935 55.5775 12.8996 55.6929 13.0089 55.917C13.324 56.5555 13.613 57.2085 13.9689 57.8225C14.666 59.0279 15.3924 60.2137 16.0209 61.4597C17.1392 63.6722 18.5677 65.6947 19.9847 67.7237C20.0412 67.8069 20.1169 67.8755 20.2055 67.9235C20.2942 67.9716 20.3931 67.9977 20.494 67.9998C20.765 68.0128 21.6368 67.35 21.6841 67.0771C21.818 66.2649 22.1168 65.5079 22.3894 64.7525C22.7877 63.6479 23.2399 62.5514 23.7215 61.4792C24.5296 59.6777 25.4504 57.9314 26.3254 56.1445C26.6927 55.4005 27.1841 54.7003 27.4812 53.9417C28.0934 52.3806 29.1496 51.0323 29.6035 49.3932C29.6933 49.0683 29.9512 48.9286 30.3071 49.0764C30.5732 49.1869 30.8638 49.1788 31.1446 49.2226C32.4702 49.4257 33.7697 49.1284 35.0822 49.0602C35.6477 49.0087 36.192 48.8202 36.6674 48.5111C36.9008 48.373 37.0886 48.321 37.3514 48.4851C38.1089 48.9578 38.8664 49.3899 39.7741 49.606C40.8303 49.8562 41.8963 50.0349 42.9591 50.2558C43.4897 50.3695 44.0578 50.5433 44.5818 50.48C45.5401 50.3646 46.4821 50.1015 47.424 49.8789C47.5873 49.8399 47.7179 49.7912 47.8175 49.9471C48.0134 50.2607 48.3072 50.4897 48.5309 50.7756C49.7308 52.3302 50.7201 54.0245 51.6768 55.7319C52.1551 56.5863 52.5093 57.509 53.0073 58.3505C53.6178 59.3804 54.039 60.4932 54.5239 61.5751C55.0087 62.6569 55.363 63.7486 55.8087 64.824C55.9474 65.1586 56.078 65.4998 56.0046 65.8344C55.9311 66.169 56.1237 66.3396 56.349 66.4549C56.4642 66.5259 56.5997 66.5573 56.7345 66.544C56.8693 66.5308 56.996 66.4738 57.0951 66.3819C57.3726 66.0992 57.6877 65.8165 57.8542 65.4705C58.2444 64.6583 58.7994 63.9581 59.1602 63.1345C59.743 61.8187 60.5903 60.6377 61.1045 59.2764C61.6792 57.7543 62.373 56.2761 63.0064 54.775C63.0303 54.6984 63.0738 54.6292 63.1328 54.5745C63.1918 54.5198 63.2642 54.4814 63.3427 54.4632C64.6879 54.0814 66.0739 53.9921 67.4518 54.0115C68.9978 54.0343 70.5536 54.0002 72.0914 54.2032C73.2946 54.3657 74.5206 54.3007 75.7107 54.5574C76.2184 54.6662 76.5645 54.5379 76.8534 54.096C77.1179 53.6899 76.9889 53.365 76.7473 53.0466C76.2576 52.3968 75.714 51.7828 75.2519 51.1135C74.6495 50.2412 73.9622 49.4322 73.3092 48.6037C72.6301 47.7411 71.8841 46.9143 71.1135 46.1134C69.4679 44.4045 67.8648 42.6647 66.0625 41.1084C64.5932 39.8365 63.124 38.5483 61.6041 37.3315C61.4082 37.1691 61.4229 37.044 61.529 36.8653C62.3805 35.4298 62.8586 33.8055 62.9199 32.1397C63.0146 30.2391 62.7567 28.4165 61.3951 26.9268C61.2319 26.7498 61.1845 26.6263 61.3951 26.394C61.9012 25.8498 62.3991 25.2942 62.6881 24.5795C63.2954 23.0736 63.7917 21.5515 63.6774 19.8961C63.7153 19.6001 63.7087 19.3001 63.6578 19.0059C63.4325 17.3815 62.8007 15.8805 62.1885 14.3762C62.0606 14.0349 61.8964 13.7082 61.6988 13.4015C61.1259 12.5894 60.483 11.8284 59.7773 11.1273C59.4508 10.791 59.1243 10.4288 58.6721 10.2046C57.8799 9.82347 57.0134 9.61996 56.1335 9.60841C55.8176 9.59817 55.5026 9.56997 55.1899 9.52394C54.6643 9.44922 55.1654 8.94238 54.932 8.71171C54.9117 8.68483 54.8998 8.65265 54.8977 8.61911C54.7916 7.86699 54.4749 7.18633 54.1631 6.50731C53.6337 5.33761 52.8464 4.30156 51.8596 3.47606C50.9389 2.68355 49.9113 2.02305 48.8068 1.5137C47.7228 1.02636 46.6274 0.552017 45.4454 0.423684C43.3705 0.197884 41.5813 0.946762 40.0124 2.25121C39.7773 2.44777 39.5978 2.51925 39.3953 2.28532C38.8746 1.68427 38.1644 1.32689 37.5555 0.839547C36.9815 0.347416 36.2512 0.0729685 35.4936 0.0646788C35.2113 0.0890869 34.9276 0.0928887 34.6447 0.0760512C33.2424 -0.133505 31.8547 0.123157 30.5324 0.443177C28.9619 0.824926 27.2984 1.11733 26.0952 2.43802C25.5369 3.05045 24.7549 3.43869 24.1933 4.09335C23.4211 4.99168 22.9036 5.96636 22.8351 7.15709C22.8269 7.30655 22.8122 7.456 22.809 7.60545C22.809 7.81013 22.7404 7.93846 22.5053 7.84749C21.9339 7.62494 21.3625 7.71104 20.7895 7.83775C19.9961 8.01319 19.1799 8.08466 18.504 8.64998C17.6453 9.37286 16.7082 10.0097 15.9589 10.8511C15.5214 11.3385 14.9941 11.7982 14.6708 12.3424C14.168 13.1839 13.6522 14.0546 13.3926 15.0146C12.9681 16.5757 12.6302 18.1482 12.8408 19.7954C12.9126 20.3656 13.1298 20.8757 13.2473 21.4199C13.3629 22.0391 13.6515 22.6133 14.0799 23.0769C14.3182 23.3303 14.2562 23.4895 14.0178 23.6844C13.6832 23.9573 13.3061 24.2221 13.1738 24.651C12.9208 25.4729 12.7445 26.3177 12.5208 27.1494C12.2219 28.2247 12.1739 29.3537 12.3804 30.4503C12.5861 31.5078 12.8147 32.5621 13.0987 33.6034C13.4644 34.9387 14.3623 36.0401 14.8455 37.3283C14.9402 37.5817 14.9157 37.6922 14.71 37.8075C14.1391 38.1513 13.6142 38.5656 13.1477 39.0405C12.2009 39.9502 11.3046 40.9151 10.4377 41.9028C8.80521 43.7547 7.1727 45.5984 5.65772 47.5381C5.17613 48.1521 4.5721 48.6622 4.16234 49.3347C3.33302 50.6976 2.378 51.9793 1.58622 53.365C1.04423 54.3137 0.443461 55.2299 0.069614 56.2647C0.019006 56.406 -0.0528244 56.5295 0.0598193 56.6822C0.347142 57.0395 1.01158 57.2718 1.41481 57.0639ZM63.2203 40.215C65.0161 41.7956 66.7988 43.4038 68.4884 45.1062C70.1443 46.7632 71.6754 48.5392 73.0693 50.4199C73.559 51.0859 74.0733 51.7438 74.6038 52.3838C74.7635 52.5806 74.8848 52.8054 74.9613 53.0466C74.9124 53.0759 74.8716 53.123 74.8357 53.1181C73.5982 52.9654 72.3542 53.1619 71.1021 52.915C70.0361 52.7055 68.9063 52.8192 67.8044 52.7883C66.1028 52.7449 64.4015 52.886 62.7305 53.2091C62.1543 53.3195 62.0563 53.7403 61.9257 54.1009C61.2319 56.0048 60.587 57.9379 59.6141 59.715C58.788 61.2242 58.0485 62.7918 57.0265 64.1921C57.0102 64.2148 56.971 64.2246 56.909 64.2587C56.5988 63.5065 56.2739 62.7674 55.9882 62.0137C55.1201 59.8024 54.1181 57.6454 52.9877 55.5548C52.0432 53.7985 51.0079 52.0922 49.8859 50.4426C49.7189 50.1534 49.5049 49.8937 49.2525 49.6742C49.0631 49.528 49.0892 49.4192 49.2949 49.3087C49.5006 49.1982 49.7112 49.0131 49.9479 48.9318C50.3397 48.7921 50.787 48.7402 50.6532 48.0855C50.9209 48.6134 51.156 48.2821 51.2899 48.1196C51.8259 47.4961 52.3931 46.8997 52.9893 46.3327C53.3031 46.0309 53.5399 45.6589 53.6799 45.2476C53.8594 44.7115 54.1027 44.1933 54.2414 43.6475C54.3296 43.3031 54.4929 43.1975 54.8161 43.1601C56.669 42.9359 58.2591 42.2423 59.4018 40.6844C59.9014 40.0038 60.476 39.3849 60.8711 38.6262C61.0262 38.3289 61.1764 38.5255 61.3054 38.6149C61.9736 39.1117 62.613 39.6459 63.2203 40.215ZM14.3101 32.9244C14.0309 31.7271 13.6701 30.5136 13.7877 29.2969C13.9509 27.6351 13.9885 25.9148 14.9729 24.4333C15.0847 24.248 15.239 24.0917 15.4231 23.9771C15.6073 23.8625 15.816 23.7928 16.0324 23.7737C16.4993 23.7299 16.3589 23.5431 16.225 23.2864C16.0487 22.9615 15.7108 22.8218 15.4626 22.5814C14.6823 21.8244 14.4668 20.8595 14.4048 19.8068L14.3558 20.2243C14.2872 19.9303 13.9183 19.6086 14.4129 19.3617C14.4521 19.3422 14.4684 19.1895 14.4374 19.1278C14.0195 18.2782 14.2562 17.4595 14.4847 16.6131C14.9337 14.9594 15.5247 13.3642 16.7278 12.1166C17.6259 11.1556 18.6309 10.2994 19.7235 9.56455C20.7683 8.88228 21.836 8.89365 22.9706 9.12595C23.131 9.17702 23.2736 9.2722 23.382 9.40048C23.6236 9.61978 23.8407 9.56293 24.115 9.44272C24.4676 9.29652 24.2782 8.96837 24.4121 8.76207C24.4219 8.74745 24.3974 8.69384 24.3745 8.67759C23.6138 8.16426 23.9191 7.41376 24.0644 6.80296C24.337 5.66584 25.0733 4.77563 25.976 4.00888C26.5066 3.5589 27.1188 3.22589 27.6086 2.72068C27.8142 2.50788 28.1522 2.39579 28.4509 2.30319C30.2467 1.75737 32.0327 1.14495 33.9346 1.30577C35.6164 1.42342 37.2068 2.11149 38.4403 3.25513C38.7537 3.54429 39.0166 3.93578 39.4541 4.04462C39.9781 4.17458 40.1365 3.62713 40.414 3.38021C40.9451 2.92406 41.532 2.53653 42.1608 2.22684C43.2301 1.67452 44.3908 1.45522 45.6022 1.77199C46.0707 1.89545 46.5621 1.94419 47.0176 2.09689C49.3586 2.901 51.3747 4.1632 52.7559 6.27339C53.4089 7.26918 53.6194 8.38519 53.6064 9.55805C53.6064 9.79035 53.6064 10.0243 53.6064 10.2566C53.6064 10.8333 53.8643 11.0347 54.4226 10.9064C55.603 10.6481 56.7555 10.6237 57.8297 11.306C59.219 12.1881 60.3601 13.3203 61.0001 14.8311C61.3658 15.6937 61.7657 16.553 62.0024 17.4806C62.5477 19.6265 62.7109 21.7545 61.7184 23.8014C61.2858 24.6899 60.858 25.6532 59.7691 26.0285C59.5537 26.1032 59.3806 26.3372 59.2206 26.5256C59.0606 26.714 59.1537 26.8765 59.3431 26.9772C61.6286 28.1809 61.6841 30.2131 61.5225 32.4208C61.369 34.5326 60.2736 36.209 59.2647 37.944C58.8735 38.655 58.3783 39.3043 57.7954 39.8706C57.0461 40.5691 56.238 41.0775 55.1687 41.1864C54.5157 41.253 53.9084 41.2839 53.2815 41.0239C52.8081 40.8225 52.2041 41.0662 51.8971 41.5649C51.791 41.7324 51.7347 41.9265 51.7347 42.1245C51.7347 42.3226 51.791 42.5166 51.8971 42.6842C52.4294 43.6117 52.2743 44.5669 51.5788 45.4327C51.1397 45.9802 50.6581 46.4838 50.1895 47.002C49.8345 47.3834 49.3837 47.6638 48.8835 47.8142C47.522 48.2561 46.1637 48.7223 44.7614 49.0163C43.7656 49.2242 42.7763 49.0358 41.7935 48.8035C40.7502 48.5714 39.7416 48.2055 38.7929 47.7151C38.2934 47.4503 37.8363 47.1433 37.6502 46.5439C37.5375 46.167 37.1523 46.0419 36.816 46.0224C36.4797 46.0029 36.3115 46.2239 36.2495 46.5877C36.1581 47.1124 35.6879 47.4113 35.27 47.5803C33.8399 48.1553 32.3478 48.3552 30.8116 48.0221C30.4051 47.9344 29.9773 47.9296 29.5823 47.8126C27.5335 47.205 25.7948 46.0858 24.288 44.5848C23.635 43.9269 22.9298 43.2966 22.4694 42.473C22.1429 41.88 21.8376 41.2595 22.1184 40.5447C22.1543 40.4538 22.151 40.3498 22.2376 40.2799C22.3584 40.1792 22.5771 40.1337 22.5363 39.9274C22.4857 39.6773 22.2098 39.6253 22.0351 39.5668C21.7856 39.4675 21.5145 39.4345 21.2483 39.471C20.0908 39.7065 19.126 39.2322 18.2053 38.6344C17.771 38.3533 17.389 37.9732 16.9188 37.7783C16.2936 37.5151 15.9769 36.966 15.7499 36.4787C15.2243 35.3123 14.6023 34.1833 14.3101 32.9244ZM2.21311 54.9748C2.66369 54.1626 3.02937 53.2935 3.58279 52.5528C4.58679 51.1947 5.27081 49.6109 6.5605 48.4494C6.88701 48.1521 7.13352 47.7314 7.41268 47.3675C8.38239 46.1004 9.46965 44.9308 10.4965 43.7173C11.5478 42.4697 12.6596 41.2806 13.7877 40.1029C14.2294 39.6523 14.6965 39.2271 15.1867 38.8293C15.4104 38.6441 15.4071 38.4004 15.4626 38.1795C15.4806 38.1665 15.5013 38.1576 15.5231 38.1536C15.545 38.1495 15.5675 38.1504 15.5889 38.1562C15.6104 38.162 15.6303 38.1725 15.6471 38.1869C15.664 38.2013 15.6774 38.2193 15.6863 38.2396C16.7344 39.8023 18.4093 40.2978 20.0941 40.7624C20.4761 40.868 20.7063 40.8907 20.6753 41.3959C20.654 41.7485 20.8499 42.1383 21.0213 42.4746C21.4801 43.3778 21.9323 44.3314 22.6702 45.0088C23.5124 45.8054 24.411 46.541 25.3589 47.2099C26.3385 47.8759 27.411 48.2284 28.4722 48.6589C28.6354 48.7255 28.8395 48.7873 28.6175 48.9838C28.1799 49.3737 27.9889 49.9179 27.7163 50.402C27.2265 51.2646 26.7368 52.1255 26.3352 53.0385C25.8699 54.0928 25.2936 55.0983 24.7843 56.1347C23.7449 58.2509 22.7768 60.3989 21.88 62.579C21.3903 63.7713 20.9169 64.9686 20.4108 66.2324C20.0386 65.7532 19.6696 65.3324 19.3594 64.8711C18.5007 63.5991 17.8118 62.2313 17.1017 60.8765C16.3915 59.5217 15.7287 58.188 14.9484 56.8901C14.6273 56.3298 14.3611 55.7401 14.1533 55.1292C14.0946 54.9288 13.9729 54.7525 13.806 54.6262C13.639 54.4999 13.4358 54.4302 13.2261 54.4274C12.5605 54.3812 11.8919 54.404 11.2311 54.4956C10.6697 54.5518 10.1058 54.5795 9.54148 54.5785C8.45586 54.6142 7.38166 54.7523 6.30747 54.879C4.90676 55.0415 3.51259 55.2591 2.107 55.4541C2.09213 55.3712 2.09386 55.2862 2.11207 55.2039C2.13028 55.1217 2.16461 55.0439 2.21311 54.9748Z" fill="white"/>
<path d="M21.9176 34.0046C22.9559 35.51 24.1546 36.8994 25.4928 38.1486C26.313 38.8964 27.2149 39.5502 28.1816 40.098C28.877 40.4944 29.641 40.6893 30.3561 41.0158C30.7022 41.1783 30.9764 41.4788 31.3699 41.5243C32.4588 41.6477 33.4366 42.1578 34.5043 42.3836C35.6879 42.6338 36.8404 42.9993 38.0665 43.0529C38.5268 43.074 38.9594 42.9246 39.4051 42.9506C40.9152 43.0383 42.3779 42.7394 43.7852 42.2764C45.3069 41.7776 46.7729 41.1244 48.1603 40.3271C50.2385 39.1314 51.8955 37.5265 53.2668 35.5885C53.5052 35.2522 53.5803 34.8494 53.817 34.5375C54.9598 33.0381 55.4169 31.2642 55.8021 29.487C56.0887 28.2736 56.249 27.0341 56.2805 25.7881C56.2935 24.1458 56.3702 22.4969 56.0323 20.8822C55.7825 19.6866 55.5573 18.4731 55.0104 17.3587C54.0766 15.4549 52.7559 13.845 51.187 12.4269C50.2243 11.5543 49.1501 10.812 47.9922 10.2192C46.9816 9.70101 45.9368 9.26565 44.8904 8.83517C43.9811 8.46154 43.0587 8.0668 42.1037 7.86049C39.9259 7.40726 37.7057 7.28218 35.4822 7.25131C34.6496 7.23994 33.8758 7.55022 33.0628 7.61845C31.6458 7.73703 30.3904 8.31697 29.1448 8.91802C27.5922 9.66365 26.3695 10.8674 25.0782 11.9606C23.836 13.0259 22.8345 14.3408 22.1396 15.8187C21.5438 17.0452 21.0426 18.3139 20.5528 19.5859C19.7888 21.5694 19.2729 23.6016 19.3154 26.0837C19.2665 27.7722 19.6383 29.4464 20.3977 30.9571C20.912 31.9643 21.2646 33.0771 21.9176 34.0046ZM21.3495 21.0089C22.0025 19.1083 22.7486 17.2402 23.7754 15.5003C24.3487 14.5813 25.0079 13.7181 25.7442 12.9223C26.7825 11.743 28.0477 10.908 29.37 10.1705C30.4733 9.52623 31.6827 9.08183 32.942 8.85791C34.5015 8.59857 36.083 8.49463 37.6632 8.54764C39.2435 8.6045 40.8417 8.76369 42.3632 9.18605C43.0587 9.37936 43.7411 9.74974 44.4578 9.94306C45.7638 10.2939 46.9229 10.96 48.1146 11.5367C49.0479 12.0198 49.9026 12.6403 50.6499 13.3772C51.3029 13.9847 51.9559 14.5874 52.4179 15.3265C53.0987 16.4198 54.0423 17.3929 54.4047 18.6193C54.7541 19.7922 55.0757 20.9894 55.1752 22.2435C55.2843 23.6634 55.3023 25.0888 55.2291 26.511C55.1818 27.4987 54.9287 28.4766 54.7541 29.4578C54.5533 30.5819 54.1011 31.6362 53.8317 32.7457C53.7827 32.9536 53.7501 33.1648 53.435 33.246C53.244 33.2947 53.066 33.5888 52.9779 33.8097C52.5061 34.9826 51.7159 35.9215 50.8034 36.7613C50.565 36.9823 50.5487 37.3267 50.2859 37.5037C49.5806 37.9748 48.9635 38.558 48.2566 39.034C47.6722 39.4271 46.9506 39.5879 46.4609 40.1402C46.4314 40.1802 46.3895 40.2093 46.3417 40.2231C45.4046 40.3319 44.608 40.8453 43.7444 41.1572C42.8285 41.482 41.9061 41.7745 40.9528 41.8378C39.2321 41.9531 37.5016 42.1237 35.7956 41.6071C35.0235 41.3732 34.2121 41.2709 33.4301 41.0499C32.6282 40.8343 31.8546 40.5257 31.125 40.1305C30.1357 39.5798 29.1301 39.06 28.1865 38.4313C27.3229 37.8546 26.4625 37.2471 25.7981 36.4657C25.1337 35.6843 24.4774 34.8981 23.8391 34.1005C23.2334 33.3532 22.6065 32.6271 22.151 31.7661C21.1911 29.9532 20.5708 28.0591 20.5936 25.8384C20.4483 24.2692 20.801 22.6155 21.3495 21.0122V21.0089Z" fill="white"/>
<path d="M28.6566 23.9411C29.3651 24.5502 29.832 25.3673 30.5193 26.0106C31.4698 26.9185 32.3344 27.9114 33.102 28.9769C33.9182 30.0897 34.7345 31.1992 35.332 32.4598C35.554 32.9309 35.585 33.4962 36.0454 33.8665C36.2331 34.016 36.274 34.4059 36.6315 34.1346C36.8372 33.9721 37.1212 34.0225 37.2698 33.6765C37.8787 32.2957 38.5236 30.9263 39.3823 29.6706C40.6752 27.7797 41.9943 25.8986 43.2334 23.9849C44.7523 21.6158 46.5487 19.4346 48.5848 17.4871C48.8672 17.219 48.8656 16.9884 48.6599 16.7122C48.5815 16.6082 48.4591 16.5368 48.3905 16.4279C48.1146 15.9926 47.8534 16.0835 47.5742 16.4182C47.3635 16.6763 47.1372 16.9214 46.8967 17.1524C45.1597 18.7541 43.8243 20.6678 42.5542 22.635C42.1412 23.2767 41.738 23.9232 41.3005 24.5519C40.6148 25.5509 39.9275 26.55 39.299 27.5847C38.548 28.821 37.8297 30.0799 37.1049 31.321C36.9841 31.5273 36.8682 31.6459 36.6853 31.3502C36.1744 30.538 35.5426 29.7989 34.9892 29.0061C34.1516 27.7874 33.2239 26.6325 32.2139 25.5509C31.4728 24.7688 30.6607 24.0564 29.788 23.4229C29.503 23.2117 29.1489 23.1143 28.7954 23.15C28.5864 23.1694 28.433 23.2409 28.4819 23.4878C28.4706 23.5719 28.4807 23.6574 28.5112 23.7366C28.5417 23.8158 28.5917 23.8861 28.6566 23.9411Z" fill="white"/>
</svg>
